<svg width="16" height="16" viewBox="0 0 16 16" fill="none" xmlns="http://www.w3.org/2000/svg">
<path d="M7.97485 1.30461L9.57285 4.66825C9.6086 4.75332 9.66518 4.82695 9.73706 4.8816C9.80875 4.93625 9.89325 4.96998 9.98157 4.97934L13.5306 5.54319C13.6322 5.557 13.7277 5.60076 13.8063 5.66936C13.8849 5.73793 13.9432 5.8285 13.9744 5.93048C14.0055 6.03244 14.0084 6.1416 13.9824 6.24517C13.9566 6.34875 13.9029 6.44245 13.8279 6.51534L11.2079 9.1207C11.1689 9.19869 11.1485 9.28543 11.1485 9.37346C11.1485 9.46152 11.1689 9.54825 11.2079 9.62623L11.7098 13.3204C11.7312 13.4272 11.7224 13.5382 11.6847 13.6399C11.647 13.7416 11.582 13.8297 11.4974 13.8935C11.4129 13.9573 11.3123 13.9941 11.2083 13.9993C11.1041 14.0046 11.0007 13.9781 10.9107 13.9231L7.75176 12.1733C7.67013 12.1346 7.58143 12.1146 7.49177 12.1146C7.40197 12.1146 7.31329 12.1346 7.23155 12.1733L4.07268 13.9231C3.98262 13.9781 3.87926 14.0046 3.77511 13.9993C3.67096 13.9941 3.57052 13.9573 3.48592 13.8935C3.40135 13.8297 3.33628 13.7416 3.2986 13.6399C3.26094 13.5382 3.25228 13.4272 3.27367 13.3204L3.86828 9.62623C3.89384 9.54049 3.89876 9.44946 3.88254 9.36124C3.86633 9.27305 3.82951 9.19041 3.77537 9.1207L1.15538 6.4959C1.08589 6.42224 1.03711 6.32999 1.0144 6.22923C0.991685 6.12849 0.99591 6.02316 1.02661 5.92476C1.05733 5.82636 1.11333 5.73871 1.18848 5.67142C1.26362 5.6041 1.35504 5.55974 1.45269 5.54319L5.00175 4.99878C5.09011 4.98942 5.17451 4.9557 5.24634 4.90105C5.31816 4.8464 5.37482 4.77276 5.41055 4.68769L7.00856 1.32405C7.05131 1.22884 7.11868 1.14803 7.20304 1.09079C7.28739 1.03354 7.38538 1.00213 7.48584 1.0001C7.5864 0.99808 7.68542 1.02553 7.77183 1.07934C7.85824 1.13315 7.92859 1.21118 7.97485 1.30461Z" stroke="#FFCF07" stroke-width="2" stroke-linecap="round" stroke-linejoin="round"/>
<rect x="4" y="5" width="7" height="7" fill="#FFCF07"/>
<path d="M7.5 1L9.66506 5.5H5.33494L7.5 1Z" fill="#FFCF07"/>
<path d="M7.36948 12.0383L3.29274 13.7854L4.03216 9.11687L7.36948 12.0383Z" fill="#FFCF07"/>
<path d="M3.63368 9.43306L0.597599 6.19973L5.23745 5.29783L3.63368 9.43306Z" fill="#FFCF07"/>
<path d="M10.9696 9.20888L8.44124 5.11701L14.4127 5.85022L10.9696 9.20888Z" fill="#FFCF07"/>
<path d="M11.2657 13.6109L7.21996 11.8619L11.0058 9.21101L11.2657 13.6109Z" fill="#FFCF07"/>
</svg>
