<svg width="108" height="192" viewBox="0 0 108 192" fill="none" xmlns="http://www.w3.org/2000/svg">
<g clip-path="url(#clip0_1_74)">
<path d="M49.7606 145.357C49.7606 141.22 49.7606 136.669 49.7606 132.532C50.1759 96.1276 51.0063 59.3093 51.4215 22.9047C51.4215 18.7678 51.4215 15.0446 51.8368 10.9077C52.252 5.52974 53.4977 -1.08928 60.5565 0.151785C63.463 0.565474 66.7848 6.77081 67.2 10.494C68.8609 41.107 70.1066 71.3063 71.3523 101.919C71.7675 108.952 71.3523 115.985 75.0893 123.431C80.072 115.157 84.2242 106.47 89.6221 98.6097C92.1135 94.8865 98.3418 90.7496 102.079 91.577C109.553 93.2318 108.722 101.506 106.231 106.47C95.4353 131.291 84.6395 156.526 71.7675 180.52C63.463 195.827 51.0063 195.827 42.7018 180.52C31.4908 160.249 23.1863 138.324 14.0514 117.226C12.8057 114.744 15.7123 110.607 16.5427 107.297C19.8645 108.538 24.8472 108.538 26.5081 111.02C30.6603 115.985 33.1517 122.604 36.4735 128.395C39.7953 134.601 43.117 140.806 46.4388 146.598C47.2693 145.77 48.515 145.357 49.7606 145.357Z" fill="#FEBC2E"/>
</g>
<defs>
<clipPath id="clip0_1_74">
<rect width="108" height="192" fill="white"/>
</clipPath>
</defs>
</svg>
