    <svg width="16" height="23" viewBox="0 0 16 23" fill="none" xmlns="http://www.w3.org/2000/svg">
<mask id="path-1-outside-1_23_12" maskUnits="userSpaceOnUse" x="-1" y="-1" width="18" height="25" fill="black">
<rect fill="white" x="-1" y="-1" width="18" height="25"/>
<path d="M15.7363 9.92969C15.7363 10.5059 15.7363 11.0771 15.7363 11.6436C15.7363 12.21 15.707 12.7812 15.6484 13.3574C15.541 14.5781 15.2773 15.7354 14.8574 16.8291C14.4375 17.9131 13.8662 18.8652 13.1436 19.6855C12.4307 20.5059 11.5615 21.1553 10.5361 21.6338C9.51074 22.1123 8.33398 22.3516 7.00586 22.3516C6.48828 22.3516 5.94629 22.3076 5.37988 22.2197C4.82324 22.1318 4.2666 22 3.70996 21.8242C3.16309 21.6484 2.63574 21.4336 2.12793 21.1797C1.62988 20.916 1.18555 20.6133 0.794922 20.2715L1.70312 14.207C2.2793 14.7637 2.91895 15.2178 3.62207 15.5693C4.3252 15.9111 5.0918 16.082 5.92188 16.082C6.45898 16.082 6.91309 16.0039 7.28418 15.8477C7.65527 15.6914 7.96289 15.4766 8.20703 15.2031C8.45117 14.9297 8.6416 14.6123 8.77832 14.251C8.9248 13.8799 9.02734 13.4893 9.08594 13.0791C9.1543 12.6592 9.19336 12.2295 9.20312 11.79C9.22266 11.3506 9.23242 10.916 9.23242 10.4863C9.23242 8.93359 9.1543 7.39062 8.99805 5.85742C8.8418 4.31445 8.70508 2.77148 8.58789 1.22852L15.2969 0.789062C15.5898 3.83594 15.7363 6.88281 15.7363 9.92969Z"/>
</mask>
<path d="M15.7363 9.92969C15.7363 10.5059 15.7363 11.0771 15.7363 11.6436C15.7363 12.21 15.707 12.7812 15.6484 13.3574C15.541 14.5781 15.2773 15.7354 14.8574 16.8291C14.4375 17.9131 13.8662 18.8652 13.1436 19.6855C12.4307 20.5059 11.5615 21.1553 10.5361 21.6338C9.51074 22.1123 8.33398 22.3516 7.00586 22.3516C6.48828 22.3516 5.94629 22.3076 5.37988 22.2197C4.82324 22.1318 4.2666 22 3.70996 21.8242C3.16309 21.6484 2.63574 21.4336 2.12793 21.1797C1.62988 20.916 1.18555 20.6133 0.794922 20.2715L1.70312 14.207C2.2793 14.7637 2.91895 15.2178 3.62207 15.5693C4.3252 15.9111 5.0918 16.082 5.92188 16.082C6.45898 16.082 6.91309 16.0039 7.28418 15.8477C7.65527 15.6914 7.96289 15.4766 8.20703 15.2031C8.45117 14.9297 8.6416 14.6123 8.77832 14.251C8.9248 13.8799 9.02734 13.4893 9.08594 13.0791C9.1543 12.6592 9.19336 12.2295 9.20312 11.79C9.22266 11.3506 9.23242 10.916 9.23242 10.4863C9.23242 8.93359 9.1543 7.39062 8.99805 5.85742C8.8418 4.31445 8.70508 2.77148 8.58789 1.22852L15.2969 0.789062C15.5898 3.83594 15.7363 6.88281 15.7363 9.92969Z" fill="#EDC624"/>
<path d="M15.6484 13.3574L14.6535 13.2562L14.6523 13.2698L15.6484 13.3574ZM14.8574 16.8291L15.7899 17.1903L15.791 17.1875L14.8574 16.8291ZM13.1436 19.6855L12.3932 19.0245L12.3888 19.0296L13.1436 19.6855ZM5.37988 22.2197L5.22392 23.2075L5.22655 23.2079L5.37988 22.2197ZM3.70996 21.8242L3.40395 22.7763L3.40883 22.7778L3.70996 21.8242ZM2.12793 21.1797L1.66004 22.0635L1.67032 22.0689L1.68072 22.0741L2.12793 21.1797ZM0.794922 20.2715L-0.194049 20.1234L-0.27502 20.6641L0.136417 21.0241L0.794922 20.2715ZM1.70312 14.207L2.39794 13.4878L1.00169 12.1389L0.714154 14.0589L1.70312 14.207ZM3.62207 15.5693L3.17483 16.4638L3.18488 16.4687L3.62207 15.5693ZM8.77832 14.251L7.84817 13.8838L7.84555 13.8904L7.84303 13.8971L8.77832 14.251ZM9.08594 13.0791L8.09893 12.9184L8.09737 12.928L8.09599 12.9377L9.08594 13.0791ZM9.20312 11.79L8.20411 11.7456L8.20362 11.7567L8.20337 11.7678L9.20312 11.79ZM8.99805 5.85742L8.00313 5.95817L8.0032 5.95881L8.99805 5.85742ZM8.58789 1.22852L8.52253 0.230654L7.51424 0.296699L7.59076 1.30425L8.58789 1.22852ZM15.2969 0.789062L16.2923 0.69335L16.1994 -0.272201L15.2315 -0.208799L15.2969 0.789062ZM14.7363 9.92969C14.7363 9.93081 14.7363 9.93194 14.7363 9.93306C14.7363 9.93419 14.7363 9.93531 14.7363 9.93644C14.7363 9.93756 14.7363 9.93869 14.7363 9.93981C14.7363 9.94094 14.7363 9.94207 14.7363 9.94319C14.7363 9.94432 14.7363 9.94544 14.7363 9.94657C14.7363 9.94769 14.7363 9.94882 14.7363 9.94994C14.7363 9.95107 14.7363 9.95219 14.7363 9.95332C14.7363 9.95444 14.7363 9.95557 14.7363 9.95669C14.7363 9.95782 14.7363 9.95894 14.7363 9.96007C14.7363 9.96119 14.7363 9.96232 14.7363 9.96344C14.7363 9.96457 14.7363 9.96569 14.7363 9.96682C14.7363 9.96794 14.7363 9.96907 14.7363 9.97019C14.7363 9.97132 14.7363 9.97244 14.7363 9.97357C14.7363 9.97469 14.7363 9.97582 14.7363 9.97694C14.7363 9.97807 14.7363 9.97919 14.7363 9.98032C14.7363 9.98144 14.7363 9.98256 14.7363 9.98369C14.7363 9.98481 14.7363 9.98594 14.7363 9.98706C14.7363 9.98819 14.7363 9.98931 14.7363 9.99044C14.7363 9.99156 14.7363 9.99269 14.7363 9.99381C14.7363 9.99494 14.7363 9.99606 14.7363 9.99719C14.7363 9.99831 14.7363 9.99943 14.7363 10.0006C14.7363 10.0017 14.7363 10.0028 14.7363 10.0039C14.7363 10.0051 14.7363 10.0062 14.7363 10.0073C14.7363 10.0084 14.7363 10.0096 14.7363 10.0107C14.7363 10.0118 14.7363 10.0129 14.7363 10.0141C14.7363 10.0152 14.7363 10.0163 14.7363 10.0174C14.7363 10.0185 14.7363 10.0197 14.7363 10.0208C14.7363 10.0219 14.7363 10.023 14.7363 10.0242C14.7363 10.0253 14.7363 10.0264 14.7363 10.0275C14.7363 10.0287 14.7363 10.0298 14.7363 10.0309C14.7363 10.032 14.7363 10.0332 14.7363 10.0343C14.7363 10.0354 14.7363 10.0365 14.7363 10.0377C14.7363 10.0388 14.7363 10.0399 14.7363 10.041C14.7363 10.0422 14.7363 10.0433 14.7363 10.0444C14.7363 10.0455 14.7363 10.0467 14.7363 10.0478C14.7363 10.0489 14.7363 10.05 14.7363 10.0512C14.7363 10.0523 14.7363 10.0534 14.7363 10.0545C14.7363 10.0556 14.7363 10.0568 14.7363 10.0579C14.7363 10.059 14.7363 10.0601 14.7363 10.0613C14.7363 10.0624 14.7363 10.0635 14.7363 10.0646C14.7363 10.0658 14.7363 10.0669 14.7363 10.068C14.7363 10.0691 14.7363 10.0703 14.7363 10.0714C14.7363 10.0725 14.7363 10.0736 14.7363 10.0748C14.7363 10.0759 14.7363 10.077 14.7363 10.0781C14.7363 10.0792 14.7363 10.0804 14.7363 10.0815C14.7363 10.0826 14.7363 10.0837 14.7363 10.0849C14.7363 10.086 14.7363 10.0871 14.7363 10.0882C14.7363 10.0894 14.7363 10.0905 14.7363 10.0916C14.7363 10.0927 14.7363 10.0939 14.7363 10.095C14.7363 10.0961 14.7363 10.0972 14.7363 10.0983C14.7363 10.0995 14.7363 10.1006 14.7363 10.1017C14.7363 10.1028 14.7363 10.104 14.7363 10.1051C14.7363 10.1062 14.7363 10.1073 14.7363 10.1085C14.7363 10.1096 14.7363 10.1107 14.7363 10.1118C14.7363 10.113 14.7363 10.1141 14.7363 10.1152C14.7363 10.1163 14.7363 10.1174 14.7363 10.1186C14.7363 10.1197 14.7363 10.1208 14.7363 10.1219C14.7363 10.1231 14.7363 10.1242 14.7363 10.1253C14.7363 10.1264 14.7363 10.1276 14.7363 10.1287C14.7363 10.1298 14.7363 10.1309 14.7363 10.132C14.7363 10.1332 14.7363 10.1343 14.7363 10.1354C14.7363 10.1365 14.7363 10.1377 14.7363 10.1388C14.7363 10.1399 14.7363 10.141 14.7363 10.1422C14.7363 10.1433 14.7363 10.1444 14.7363 10.1455C14.7363 10.1466 14.7363 10.1478 14.7363 10.1489C14.7363 10.15 14.7363 10.1511 14.7363 10.1523C14.7363 10.1534 14.7363 10.1545 14.7363 10.1556C14.7363 10.1568 14.7363 10.1579 14.7363 10.159C14.7363 10.1601 14.7363 10.1612 14.7363 10.1624C14.7363 10.1635 14.7363 10.1646 14.7363 10.1657C14.7363 10.1669 14.7363 10.168 14.7363 10.1691C14.7363 10.1702 14.7363 10.1713 14.7363 10.1725C14.7363 10.1736 14.7363 10.1747 14.7363 10.1758C14.7363 10.177 14.7363 10.1781 14.7363 10.1792C14.7363 10.1803 14.7363 10.1815 14.7363 10.1826C14.7363 10.1837 14.7363 10.1848 14.7363 10.1859C14.7363 10.1871 14.7363 10.1882 14.7363 10.1893C14.7363 10.1904 14.7363 10.1916 14.7363 10.1927C14.7363 10.1938 14.7363 10.1949 14.7363 10.196C14.7363 10.1972 14.7363 10.1983 14.7363 10.1994C14.7363 10.2005 14.7363 10.2017 14.7363 10.2028C14.7363 10.2039 14.7363 10.205 14.7363 10.2061C14.7363 10.2073 14.7363 10.2084 14.7363 10.2095C14.7363 10.2106 14.7363 10.2118 14.7363 10.2129C14.7363 10.214 14.7363 10.2151 14.7363 10.2162C14.7363 10.2174 14.7363 10.2185 14.7363 10.2196C14.7363 10.2207 14.7363 10.2219 14.7363 10.223C14.7363 10.2241 14.7363 10.2252 14.7363 10.2263C14.7363 10.2275 14.7363 10.2286 14.7363 10.2297C14.7363 10.2308 14.7363 10.232 14.7363 10.2331C14.7363 10.2342 14.7363 10.2353 14.7363 10.2364C14.7363 10.2376 14.7363 10.2387 14.7363 10.2398C14.7363 10.2409 14.7363 10.2421 14.7363 10.2432C14.7363 10.2443 14.7363 10.2454 14.7363 10.2465C14.7363 10.2477 14.7363 10.2488 14.7363 10.2499C14.7363 10.251 14.7363 10.2521 14.7363 10.2533C14.7363 10.2544 14.7363 10.2555 14.7363 10.2566C14.7363 10.2578 14.7363 10.2589 14.7363 10.26C14.7363 10.2611 14.7363 10.2622 14.7363 10.2634C14.7363 10.2645 14.7363 10.2656 14.7363 10.2667C14.7363 10.2679 14.7363 10.269 14.7363 10.2701C14.7363 10.2712 14.7363 10.2723 14.7363 10.2735C14.7363 10.2746 14.7363 10.2757 14.7363 10.2768C14.7363 10.2779 14.7363 10.2791 14.7363 10.2802C14.7363 10.2813 14.7363 10.2824 14.7363 10.2836C14.7363 10.2847 14.7363 10.2858 14.7363 10.2869C14.7363 10.288 14.7363 10.2892 14.7363 10.2903C14.7363 10.2914 14.7363 10.2925 14.7363 10.2936C14.7363 10.2948 14.7363 10.2959 14.7363 10.297C14.7363 10.2981 14.7363 10.2993 14.7363 10.3004C14.7363 10.3015 14.7363 10.3026 14.7363 10.3037C14.7363 10.3049 14.7363 10.306 14.7363 10.3071C14.7363 10.3082 14.7363 10.3093 14.7363 10.3105C14.7363 10.3116 14.7363 10.3127 14.7363 10.3138C14.7363 10.3149 14.7363 10.3161 14.7363 10.3172C14.7363 10.3183 14.7363 10.3194 14.7363 10.3206C14.7363 10.3217 14.7363 10.3228 14.7363 10.3239C14.7363 10.325 14.7363 10.3262 14.7363 10.3273C14.7363 10.3284 14.7363 10.3295 14.7363 10.3306C14.7363 10.3318 14.7363 10.3329 14.7363 10.334C14.7363 10.3351 14.7363 10.3362 14.7363 10.3374C14.7363 10.3385 14.7363 10.3396 14.7363 10.3407C14.7363 10.3418 14.7363 10.343 14.7363 10.3441C14.7363 10.3452 14.7363 10.3463 14.7363 10.3475C14.7363 10.3486 14.7363 10.3497 14.7363 10.3508C14.7363 10.3519 14.7363 10.3531 14.7363 10.3542C14.7363 10.3553 14.7363 10.3564 14.7363 10.3575C14.7363 10.3587 14.7363 10.3598 14.7363 10.3609C14.7363 10.362 14.7363 10.3631 14.7363 10.3643C14.7363 10.3654 14.7363 10.3665 14.7363 10.3676C14.7363 10.3687 14.7363 10.3699 14.7363 10.371C14.7363 10.3721 14.7363 10.3732 14.7363 10.3743C14.7363 10.3755 14.7363 10.3766 14.7363 10.3777C14.7363 10.3788 14.7363 10.3799 14.7363 10.3811C14.7363 10.3822 14.7363 10.3833 14.7363 10.3844C14.7363 10.3856 14.7363 10.3867 14.7363 10.3878C14.7363 10.3889 14.7363 10.39 14.7363 10.3912C14.7363 10.3923 14.7363 10.3934 14.7363 10.3945C14.7363 10.3956 14.7363 10.3968 14.7363 10.3979C14.7363 10.399 14.7363 10.4001 14.7363 10.4012C14.7363 10.4024 14.7363 10.4035 14.7363 10.4046C14.7363 10.4057 14.7363 10.4068 14.7363 10.408C14.7363 10.4091 14.7363 10.4102 14.7363 10.4113C14.7363 10.4124 14.7363 10.4136 14.7363 10.4147C14.7363 10.4158 14.7363 10.4169 14.7363 10.418C14.7363 10.4192 14.7363 10.4203 14.7363 10.4214C14.7363 10.4225 14.7363 10.4236 14.7363 10.4248C14.7363 10.4259 14.7363 10.427 14.7363 10.4281C14.7363 10.4292 14.7363 10.4304 14.7363 10.4315C14.7363 10.4326 14.7363 10.4337 14.7363 10.4348C14.7363 10.436 14.7363 10.4371 14.7363 10.4382C14.7363 10.4393 14.7363 10.4404 14.7363 10.4415C14.7363 10.4427 14.7363 10.4438 14.7363 10.4449C14.7363 10.446 14.7363 10.4471 14.7363 10.4483C14.7363 10.4494 14.7363 10.4505 14.7363 10.4516C14.7363 10.4527 14.7363 10.4539 14.7363 10.455C14.7363 10.4561 14.7363 10.4572 14.7363 10.4583C14.7363 10.4595 14.7363 10.4606 14.7363 10.4617C14.7363 10.4628 14.7363 10.4639 14.7363 10.4651C14.7363 10.4662 14.7363 10.4673 14.7363 10.4684C14.7363 10.4695 14.7363 10.4707 14.7363 10.4718C14.7363 10.4729 14.7363 10.474 14.7363 10.4751C14.7363 10.4763 14.7363 10.4774 14.7363 10.4785C14.7363 10.4796 14.7363 10.4807 14.7363 10.4818C14.7363 10.483 14.7363 10.4841 14.7363 10.4852C14.7363 10.4863 14.7363 10.4874 14.7363 10.4886C14.7363 10.4897 14.7363 10.4908 14.7363 10.4919C14.7363 10.493 14.7363 10.4942 14.7363 10.4953C14.7363 10.4964 14.7363 10.4975 14.7363 10.4986C14.7363 10.4998 14.7363 10.5009 14.7363 10.502C14.7363 10.5031 14.7363 10.5042 14.7363 10.5054C14.7363 10.5065 14.7363 10.5076 14.7363 10.5087C14.7363 10.5098 14.7363 10.5109 14.7363 10.5121C14.7363 10.5132 14.7363 10.5143 14.7363 10.5154C14.7363 10.5165 14.7363 10.5177 14.7363 10.5188C14.7363 10.5199 14.7363 10.521 14.7363 10.5221C14.7363 10.5233 14.7363 10.5244 14.7363 10.5255C14.7363 10.5266 14.7363 10.5277 14.7363 10.5288C14.7363 10.53 14.7363 10.5311 14.7363 10.5322C14.7363 10.5333 14.7363 10.5344 14.7363 10.5356C14.7363 10.5367 14.7363 10.5378 14.7363 10.5389C14.7363 10.54 14.7363 10.5412 14.7363 10.5423C14.7363 10.5434 14.7363 10.5445 14.7363 10.5456C14.7363 10.5467 14.7363 10.5479 14.7363 10.549C14.7363 10.5501 14.7363 10.5512 14.7363 10.5523C14.7363 10.5535 14.7363 10.5546 14.7363 10.5557C14.7363 10.5568 14.7363 10.5579 14.7363 10.559C14.7363 10.5602 14.7363 10.5613 14.7363 10.5624C14.7363 10.5635 14.7363 10.5646 14.7363 10.5658C14.7363 10.5669 14.7363 10.568 14.7363 10.5691C14.7363 10.5702 14.7363 10.5713 14.7363 10.5725C14.7363 10.5736 14.7363 10.5747 14.7363 10.5758C14.7363 10.5769 14.7363 10.5781 14.7363 10.5792C14.7363 10.5803 14.7363 10.5814 14.7363 10.5825C14.7363 10.5836 14.7363 10.5848 14.7363 10.5859C14.7363 10.587 14.7363 10.5881 14.7363 10.5892C14.7363 10.5904 14.7363 10.5915 14.7363 10.5926C14.7363 10.5937 14.7363 10.5948 14.7363 10.5959C14.7363 10.5971 14.7363 10.5982 14.7363 10.5993C14.7363 10.6004 14.7363 10.6015 14.7363 10.6027C14.7363 10.6038 14.7363 10.6049 14.7363 10.606C14.7363 10.6071 14.7363 10.6082 14.7363 10.6094C14.7363 10.6105 14.7363 10.6116 14.7363 10.6127C14.7363 10.6138 14.7363 10.615 14.7363 10.6161C14.7363 10.6172 14.7363 10.6183 14.7363 10.6194C14.7363 10.6205 14.7363 10.6217 14.7363 10.6228C14.7363 10.6239 14.7363 10.625 14.7363 10.6261C14.7363 10.6272 14.7363 10.6284 14.7363 10.6295C14.7363 10.6306 14.7363 10.6317 14.7363 10.6328C14.7363 10.6339 14.7363 10.6351 14.7363 10.6362C14.7363 10.6373 14.7363 10.6384 14.7363 10.6395C14.7363 10.6407 14.7363 10.6418 14.7363 10.6429C14.7363 10.644 14.7363 10.6451 14.7363 10.6462C14.7363 10.6474 14.7363 10.6485 14.7363 10.6496C14.7363 10.6507 14.7363 10.6518 14.7363 10.6529C14.7363 10.6541 14.7363 10.6552 14.7363 10.6563C14.7363 10.6574 14.7363 10.6585 14.7363 10.6596C14.7363 10.6608 14.7363 10.6619 14.7363 10.663C14.7363 10.6641 14.7363 10.6652 14.7363 10.6664C14.7363 10.6675 14.7363 10.6686 14.7363 10.6697C14.7363 10.6708 14.7363 10.6719 14.7363 10.6731C14.7363 10.6742 14.7363 10.6753 14.7363 10.6764C14.7363 10.6775 14.7363 10.6786 14.7363 10.6798C14.7363 10.6809 14.7363 10.682 14.7363 10.6831C14.7363 10.6842 14.7363 10.6853 14.7363 10.6865C14.7363 10.6876 14.7363 10.6887 14.7363 10.6898C14.7363 10.6909 14.7363 10.692 14.7363 10.6932C14.7363 10.6943 14.7363 10.6954 14.7363 10.6965C14.7363 10.6976 14.7363 10.6987 14.7363 10.6999C14.7363 10.701 14.7363 10.7021 14.7363 10.7032C14.7363 10.7043 14.7363 10.7054 14.7363 10.7066C14.7363 10.7077 14.7363 10.7088 14.7363 10.7099C14.7363 10.711 14.7363 10.7121 14.7363 10.7133C14.7363 10.7144 14.7363 10.7155 14.7363 10.7166C14.7363 10.7177 14.7363 10.7188 14.7363 10.72C14.7363 10.7211 14.7363 10.7222 14.7363 10.7233C14.7363 10.7244 14.7363 10.7255 14.7363 10.7267C14.7363 10.7278 14.7363 10.7289 14.7363 10.73C14.7363 10.7311 14.7363 10.7322 14.7363 10.7334C14.7363 10.7345 14.7363 10.7356 14.7363 10.7367C14.7363 10.7378 14.7363 10.7389 14.7363 10.7401C14.7363 10.7412 14.7363 10.7423 14.7363 10.7434C14.7363 10.7445 14.7363 10.7456 14.7363 10.7468C14.7363 10.7479 14.7363 10.749 14.7363 10.7501C14.7363 10.7512 14.7363 10.7523 14.7363 10.7535C14.7363 10.7546 14.7363 10.7557 14.7363 10.7568C14.7363 10.7579 14.7363 10.759 14.7363 10.7602C14.7363 10.7613 14.7363 10.7624 14.7363 10.7635C14.7363 10.7646 14.7363 10.7657 14.7363 10.7668C14.7363 10.768 14.7363 10.7691 14.7363 10.7702C14.7363 10.7713 14.7363 10.7724 14.7363 10.7735C14.7363 10.7747 14.7363 10.7758 14.7363 10.7769C14.7363 10.778 14.7363 10.7791 14.7363 10.7802C14.7363 10.7814 14.7363 10.7825 14.7363 10.7836C14.7363 10.7847 14.7363 10.7858 14.7363 10.7869C14.7363 10.7881 14.7363 10.7892 14.7363 10.7903C14.7363 10.7914 14.7363 10.7925 14.7363 10.7936C14.7363 10.7947 14.7363 10.7959 14.7363 10.797C14.7363 10.7981 14.7363 10.7992 14.7363 10.8003C14.7363 10.8014 14.7363 10.8026 14.7363 10.8037C14.7363 10.8048 14.7363 10.8059 14.7363 10.807C14.7363 10.8081 14.7363 10.8092 14.7363 10.8104C14.7363 10.8115 14.7363 10.8126 14.7363 10.8137C14.7363 10.8148 14.7363 10.8159 14.7363 10.8171C14.7363 10.8182 14.7363 10.8193 14.7363 10.8204C14.7363 10.8215 14.7363 10.8226 14.7363 10.8238C14.7363 10.8249 14.7363 10.826 14.7363 10.8271C14.7363 10.8282 14.7363 10.8293 14.7363 10.8304C14.7363 10.8316 14.7363 10.8327 14.7363 10.8338C14.7363 10.8349 14.7363 10.836 14.7363 10.8371C14.7363 10.8383 14.7363 10.8394 14.7363 10.8405C14.7363 10.8416 14.7363 10.8427 14.7363 10.8438C14.7363 10.8449 14.7363 10.8461 14.7363 10.8472C14.7363 10.8483 14.7363 10.8494 14.7363 10.8505C14.7363 10.8516 14.7363 10.8527 14.7363 10.8539C14.7363 10.855 14.7363 10.8561 14.7363 10.8572C14.7363 10.8583 14.7363 10.8594 14.7363 10.8606C14.7363 10.8617 14.7363 10.8628 14.7363 10.8639C14.7363 10.865 14.7363 10.8661 14.7363 10.8672C14.7363 10.8684 14.7363 10.8695 14.7363 10.8706C14.7363 10.8717 14.7363 10.8728 14.7363 10.8739C14.7363 10.875 14.7363 10.8762 14.7363 10.8773C14.7363 10.8784 14.7363 10.8795 14.7363 10.8806C14.7363 10.8817 14.7363 10.8829 14.7363 10.884C14.7363 10.8851 14.7363 10.8862 14.7363 10.8873C14.7363 10.8884 14.7363 10.8895 14.7363 10.8907C14.7363 10.8918 14.7363 10.8929 14.7363 10.894C14.7363 10.8951 14.7363 10.8962 14.7363 10.8973C14.7363 10.8985 14.7363 10.8996 14.7363 10.9007C14.7363 10.9018 14.7363 10.9029 14.7363 10.904C14.7363 10.9051 14.7363 10.9063 14.7363 10.9074C14.7363 10.9085 14.7363 10.9096 14.7363 10.9107C14.7363 10.9118 14.7363 10.9129 14.7363 10.9141C14.7363 10.9152 14.7363 10.9163 14.7363 10.9174C14.7363 10.9185 14.7363 10.9196 14.7363 10.9207C14.7363 10.9219 14.7363 10.923 14.7363 10.9241C14.7363 10.9252 14.7363 10.9263 14.7363 10.9274C14.7363 10.9285 14.7363 10.9297 14.7363 10.9308C14.7363 10.9319 14.7363 10.933 14.7363 10.9341C14.7363 10.9352 14.7363 10.9363 14.7363 10.9375C14.7363 10.9386 14.7363 10.9397 14.7363 10.9408C14.7363 10.9419 14.7363 10.943 14.7363 10.9441C14.7363 10.9453 14.7363 10.9464 14.7363 10.9475C14.7363 10.9486 14.7363 10.9497 14.7363 10.9508C14.7363 10.9519 14.7363 10.9531 14.7363 10.9542C14.7363 10.9553 14.7363 10.9564 14.7363 10.9575C14.7363 10.9586 14.7363 10.9597 14.7363 10.9609C14.7363 10.962 14.7363 10.9631 14.7363 10.9642C14.7363 10.9653 14.7363 10.9664 14.7363 10.9675C14.7363 10.9687 14.7363 10.9698 14.7363 10.9709C14.7363 10.972 14.7363 10.9731 14.7363 10.9742C14.7363 10.9753 14.7363 10.9764 14.7363 10.9776C14.7363 10.9787 14.7363 10.9798 14.7363 10.9809C14.7363 10.982 14.7363 10.9831 14.7363 10.9842C14.7363 10.9854 14.7363 10.9865 14.7363 10.9876C14.7363 10.9887 14.7363 10.9898 14.7363 10.9909C14.7363 10.992 14.7363 10.9932 14.7363 10.9943C14.7363 10.9954 14.7363 10.9965 14.7363 10.9976C14.7363 10.9987 14.7363 10.9998 14.7363 11.0009C14.7363 11.0021 14.7363 11.0032 14.7363 11.0043C14.7363 11.0054 14.7363 11.0065 14.7363 11.0076C14.7363 11.0087 14.7363 11.0099 14.7363 11.011C14.7363 11.0121 14.7363 11.0132 14.7363 11.0143C14.7363 11.0154 14.7363 11.0165 14.7363 11.0176C14.7363 11.0188 14.7363 11.0199 14.7363 11.021C14.7363 11.0221 14.7363 11.0232 14.7363 11.0243C14.7363 11.0254 14.7363 11.0266 14.7363 11.0277C14.7363 11.0288 14.7363 11.0299 14.7363 11.031C14.7363 11.0321 14.7363 11.0332 14.7363 11.0343C14.7363 11.0355 14.7363 11.0366 14.7363 11.0377C14.7363 11.0388 14.7363 11.0399 14.7363 11.041C14.7363 11.0421 14.7363 11.0433 14.7363 11.0444C14.7363 11.0455 14.7363 11.0466 14.7363 11.0477C14.7363 11.0488 14.7363 11.0499 14.7363 11.051C14.7363 11.0522 14.7363 11.0533 14.7363 11.0544C14.7363 11.0555 14.7363 11.0566 14.7363 11.0577C14.7363 11.0588 14.7363 11.0599 14.7363 11.0611C14.7363 11.0622 14.7363 11.0633 14.7363 11.0644C14.7363 11.0655 14.7363 11.0666 14.7363 11.0677C14.7363 11.0688 14.7363 11.07 14.7363 11.0711C14.7363 11.0722 14.7363 11.0733 14.7363 11.0744C14.7363 11.0755 14.7363 11.0766 14.7363 11.0777C14.7363 11.0789 14.7363 11.08 14.7363 11.0811C14.7363 11.0822 14.7363 11.0833 14.7363 11.0844C14.7363 11.0855 14.7363 11.0866 14.7363 11.0878C14.7363 11.0889 14.7363 11.09 14.7363 11.0911C14.7363 11.0922 14.7363 11.0933 14.7363 11.0944C14.7363 11.0955 14.7363 11.0967 14.7363 11.0978C14.7363 11.0989 14.7363 11.1 14.7363 11.1011C14.7363 11.1022 14.7363 11.1033 14.7363 11.1044C14.7363 11.1056 14.7363 11.1067 14.7363 11.1078C14.7363 11.1089 14.7363 11.11 14.7363 11.1111C14.7363 11.1122 14.7363 11.1133 14.7363 11.1145C14.7363 11.1156 14.7363 11.1167 14.7363 11.1178C14.7363 11.1189 14.7363 11.12 14.7363 11.1211C14.7363 11.1222 14.7363 11.1234 14.7363 11.1245C14.7363 11.1256 14.7363 11.1267 14.7363 11.1278C14.7363 11.1289 14.7363 11.13 14.7363 11.1311C14.7363 11.1322 14.7363 11.1334 14.7363 11.1345C14.7363 11.1356 14.7363 11.1367 14.7363 11.1378C14.7363 11.1389 14.7363 11.14 14.7363 11.1411C14.7363 11.1423 14.7363 11.1434 14.7363 11.1445C14.7363 11.1456 14.7363 11.1467 14.7363 11.1478C14.7363 11.1489 14.7363 11.15 14.7363 11.1512C14.7363 11.1523 14.7363 11.1534 14.7363 11.1545C14.7363 11.1556 14.7363 11.1567 14.7363 11.1578C14.7363 11.1589 14.7363 11.16 14.7363 11.1612C14.7363 11.1623 14.7363 11.1634 14.7363 11.1645C14.7363 11.1656 14.7363 11.1667 14.7363 11.1678C14.7363 11.1689 14.7363 11.17 14.7363 11.1712C14.7363 11.1723 14.7363 11.1734 14.7363 11.1745C14.7363 11.1756 14.7363 11.1767 14.7363 11.1778C14.7363 11.1789 14.7363 11.1801 14.7363 11.1812C14.7363 11.1823 14.7363 11.1834 14.7363 11.1845C14.7363 11.1856 14.7363 11.1867 14.7363 11.1878C14.7363 11.1889 14.7363 11.1901 14.7363 11.1912C14.7363 11.1923 14.7363 11.1934 14.7363 11.1945C14.7363 11.1956 14.7363 11.1967 14.7363 11.1978C14.7363 11.1989 14.7363 11.2001 14.7363 11.2012C14.7363 11.2023 14.7363 11.2034 14.7363 11.2045C14.7363 11.2056 14.7363 11.2067 14.7363 11.2078C14.7363 11.2089 14.7363 11.2101 14.7363 11.2112C14.7363 11.2123 14.7363 11.2134 14.7363 11.2145C14.7363 11.2156 14.7363 11.2167 14.7363 11.2178C14.7363 11.2189 14.7363 11.2201 14.7363 11.2212C14.7363 11.2223 14.7363 11.2234 14.7363 11.2245C14.7363 11.2256 14.7363 11.2267 14.7363 11.2278C14.7363 11.2289 14.7363 11.2301 14.7363 11.2312C14.7363 11.2323 14.7363 11.2334 14.7363 11.2345C14.7363 11.2356 14.7363 11.2367 14.7363 11.2378C14.7363 11.2389 14.7363 11.2401 14.7363 11.2412C14.7363 11.2423 14.7363 11.2434 14.7363 11.2445C14.7363 11.2456 14.7363 11.2467 14.7363 11.2478C14.7363 11.2489 14.7363 11.25 14.7363 11.2512C14.7363 11.2523 14.7363 11.2534 14.7363 11.2545C14.7363 11.2556 14.7363 11.2567 14.7363 11.2578C14.7363 11.2589 14.7363 11.26 14.7363 11.2612C14.7363 11.2623 14.7363 11.2634 14.7363 11.2645C14.7363 11.2656 14.7363 11.2667 14.7363 11.2678C14.7363 11.2689 14.7363 11.27 14.7363 11.2711C14.7363 11.2723 14.7363 11.2734 14.7363 11.2745C14.7363 11.2756 14.7363 11.2767 14.7363 11.2778C14.7363 11.2789 14.7363 11.28 14.7363 11.2811C14.7363 11.2823 14.7363 11.2834 14.7363 11.2845C14.7363 11.2856 14.7363 11.2867 14.7363 11.2878C14.7363 11.2889 14.7363 11.29 14.7363 11.2911C14.7363 11.2922 14.7363 11.2934 14.7363 11.2945C14.7363 11.2956 14.7363 11.2967 14.7363 11.2978C14.7363 11.2989 14.7363 11.3 14.7363 11.3011C14.7363 11.3022 14.7363 11.3033 14.7363 11.3045C14.7363 11.3056 14.7363 11.3067 14.7363 11.3078C14.7363 11.3089 14.7363 11.31 14.7363 11.3111C14.7363 11.3122 14.7363 11.3133 14.7363 11.3144C14.7363 11.3156 14.7363 11.3167 14.7363 11.3178C14.7363 11.3189 14.7363 11.32 14.7363 11.3211C14.7363 11.3222 14.7363 11.3233 14.7363 11.3244C14.7363 11.3255 14.7363 11.3267 14.7363 11.3278C14.7363 11.3289 14.7363 11.33 14.7363 11.3311C14.7363 11.3322 14.7363 11.3333 14.7363 11.3344C14.7363 11.3355 14.7363 11.3366 14.7363 11.3378C14.7363 11.3389 14.7363 11.34 14.7363 11.3411C14.7363 11.3422 14.7363 11.3433 14.7363 11.3444C14.7363 11.3455 14.7363 11.3466 14.7363 11.3477C14.7363 11.3488 14.7363 11.35 14.7363 11.3511C14.7363 11.3522 14.7363 11.3533 14.7363 11.3544C14.7363 11.3555 14.7363 11.3566 14.7363 11.3577C14.7363 11.3588 14.7363 11.3599 14.7363 11.3611C14.7363 11.3622 14.7363 11.3633 14.7363 11.3644C14.7363 11.3655 14.7363 11.3666 14.7363 11.3677C14.7363 11.3688 14.7363 11.3699 14.7363 11.371C14.7363 11.3721 14.7363 11.3733 14.7363 11.3744C14.7363 11.3755 14.7363 11.3766 14.7363 11.3777C14.7363 11.3788 14.7363 11.3799 14.7363 11.381C14.7363 11.3821 14.7363 11.3832 14.7363 11.3843C14.7363 11.3855 14.7363 11.3866 14.7363 11.3877C14.7363 11.3888 14.7363 11.3899 14.7363 11.391C14.7363 11.3921 14.7363 11.3932 14.7363 11.3943C14.7363 11.3954 14.7363 11.3965 14.7363 11.3977C14.7363 11.3988 14.7363 11.3999 14.7363 11.401C14.7363 11.4021 14.7363 11.4032 14.7363 11.4043C14.7363 11.4054 14.7363 11.4065 14.7363 11.4076C14.7363 11.4087 14.7363 11.4099 14.7363 11.411C14.7363 11.4121 14.7363 11.4132 14.7363 11.4143C14.7363 11.4154 14.7363 11.4165 14.7363 11.4176C14.7363 11.4187 14.7363 11.4198 14.7363 11.4209C14.7363 11.4221 14.7363 11.4232 14.7363 11.4243C14.7363 11.4254 14.7363 11.4265 14.7363 11.4276C14.7363 11.4287 14.7363 11.4298 14.7363 11.4309C14.7363 11.432 14.7363 11.4331 14.7363 11.4342C14.7363 11.4354 14.7363 11.4365 14.7363 11.4376C14.7363 11.4387 14.7363 11.4398 14.7363 11.4409C14.7363 11.442 14.7363 11.4431 14.7363 11.4442C14.7363 11.4453 14.7363 11.4464 14.7363 11.4476C14.7363 11.4487 14.7363 11.4498 14.7363 11.4509C14.7363 11.452 14.7363 11.4531 14.7363 11.4542C14.7363 11.4553 14.7363 11.4564 14.7363 11.4575C14.7363 11.4586 14.7363 11.4597 14.7363 11.4609C14.7363 11.462 14.7363 11.4631 14.7363 11.4642C14.7363 11.4653 14.7363 11.4664 14.7363 11.4675C14.7363 11.4686 14.7363 11.4697 14.7363 11.4708C14.7363 11.4719 14.7363 11.473 14.7363 11.4742C14.7363 11.4753 14.7363 11.4764 14.7363 11.4775C14.7363 11.4786 14.7363 11.4797 14.7363 11.4808C14.7363 11.4819 14.7363 11.483 14.7363 11.4841C14.7363 11.4852 14.7363 11.4863 14.7363 11.4874C14.7363 11.4886 14.7363 11.4897 14.7363 11.4908C14.7363 11.4919 14.7363 11.493 14.7363 11.4941C14.7363 11.4952 14.7363 11.4963 14.7363 11.4974C14.7363 11.4985 14.7363 11.4996 14.7363 11.5007C14.7363 11.5019 14.7363 11.503 14.7363 11.5041C14.7363 11.5052 14.7363 11.5063 14.7363 11.5074C14.7363 11.5085 14.7363 11.5096 14.7363 11.5107C14.7363 11.5118 14.7363 11.5129 14.7363 11.514C14.7363 11.5151 14.7363 11.5163 14.7363 11.5174C14.7363 11.5185 14.7363 11.5196 14.7363 11.5207C14.7363 11.5218 14.7363 11.5229 14.7363 11.524C14.7363 11.5251 14.7363 11.5262 14.7363 11.5273C14.7363 11.5284 14.7363 11.5295 14.7363 11.5307C14.7363 11.5318 14.7363 11.5329 14.7363 11.534C14.7363 11.5351 14.7363 11.5362 14.7363 11.5373C14.7363 11.5384 14.7363 11.5395 14.7363 11.5406C14.7363 11.5417 14.7363 11.5428 14.7363 11.5439C14.7363 11.545 14.7363 11.5462 14.7363 11.5473C14.7363 11.5484 14.7363 11.5495 14.7363 11.5506C14.7363 11.5517 14.7363 11.5528 14.7363 11.5539C14.7363 11.555 14.7363 11.5561 14.7363 11.5572C14.7363 11.5583 14.7363 11.5594 14.7363 11.5605C14.7363 11.5617 14.7363 11.5628 14.7363 11.5639C14.7363 11.565 14.7363 11.5661 14.7363 11.5672C14.7363 11.5683 14.7363 11.5694 14.7363 11.5705C14.7363 11.5716 14.7363 11.5727 14.7363 11.5738C14.7363 11.5749 14.7363 11.576 14.7363 11.5772C14.7363 11.5783 14.7363 11.5794 14.7363 11.5805C14.7363 11.5816 14.7363 11.5827 14.7363 11.5838C14.7363 11.5849 14.7363 11.586 14.7363 11.5871C14.7363 11.5882 14.7363 11.5893 14.7363 11.5904C14.7363 11.5915 14.7363 11.5927 14.7363 11.5938C14.7363 11.5949 14.7363 11.596 14.7363 11.5971C14.7363 11.5982 14.7363 11.5993 14.7363 11.6004C14.7363 11.6015 14.7363 11.6026 14.7363 11.6037C14.7363 11.6048 14.7363 11.6059 14.7363 11.607C14.7363 11.6081 14.7363 11.6093 14.7363 11.6104C14.7363 11.6115 14.7363 11.6126 14.7363 11.6137C14.7363 11.6148 14.7363 11.6159 14.7363 11.617C14.7363 11.6181 14.7363 11.6192 14.7363 11.6203C14.7363 11.6214 14.7363 11.6225 14.7363 11.6236C14.7363 11.6247 14.7363 11.6259 14.7363 11.627C14.7363 11.6281 14.7363 11.6292 14.7363 11.6303C14.7363 11.6314 14.7363 11.6325 14.7363 11.6336C14.7363 11.6347 14.7363 11.6358 14.7363 11.6369C14.7363 11.638 14.7363 11.6391 14.7363 11.6402C14.7363 11.6413 14.7363 11.6424 14.7363 11.6436H16.7363C16.7363 11.6424 16.7363 11.6413 16.7363 11.6402C16.7363 11.6391 16.7363 11.638 16.7363 11.6369C16.7363 11.6358 16.7363 11.6347 16.7363 11.6336C16.7363 11.6325 16.7363 11.6314 16.7363 11.6303C16.7363 11.6292 16.7363 11.6281 16.7363 11.627C16.7363 11.6259 16.7363 11.6247 16.7363 11.6236C16.7363 11.6225 16.7363 11.6214 16.7363 11.6203C16.7363 11.6192 16.7363 11.6181 16.7363 11.617C16.7363 11.6159 16.7363 11.6148 16.7363 11.6137C16.7363 11.6126 16.7363 11.6115 16.7363 11.6104C16.7363 11.6093 16.7363 11.6081 16.7363 11.607C16.7363 11.6059 16.7363 11.6048 16.7363 11.6037C16.7363 11.6026 16.7363 11.6015 16.7363 11.6004C16.7363 11.5993 16.7363 11.5982 16.7363 11.5971C16.7363 11.596 16.7363 11.5949 16.7363 11.5938C16.7363 11.5927 16.7363 11.5915 16.7363 11.5904C16.7363 11.5893 16.7363 11.5882 16.7363 11.5871C16.7363 11.586 16.7363 11.5849 16.7363 11.5838C16.7363 11.5827 16.7363 11.5816 16.7363 11.5805C16.7363 11.5794 16.7363 11.5783 16.7363 11.5772C16.7363 11.576 16.7363 11.5749 16.7363 11.5738C16.7363 11.5727 16.7363 11.5716 16.7363 11.5705C16.7363 11.5694 16.7363 11.5683 16.7363 11.5672C16.7363 11.5661 16.7363 11.565 16.7363 11.5639C16.7363 11.5628 16.7363 11.5617 16.7363 11.5605C16.7363 11.5594 16.7363 11.5583 16.7363 11.5572C16.7363 11.5561 16.7363 11.555 16.7363 11.5539C16.7363 11.5528 16.7363 11.5517 16.7363 11.5506C16.7363 11.5495 16.7363 11.5484 16.7363 11.5473C16.7363 11.5462 16.7363 11.545 16.7363 11.5439C16.7363 11.5428 16.7363 11.5417 16.7363 11.5406C16.7363 11.5395 16.7363 11.5384 16.7363 11.5373C16.7363 11.5362 16.7363 11.5351 16.7363 11.534C16.7363 11.5329 16.7363 11.5318 16.7363 11.5307C16.7363 11.5295 16.7363 11.5284 16.7363 11.5273C16.7363 11.5262 16.7363 11.5251 16.7363 11.524C16.7363 11.5229 16.7363 11.5218 16.7363 11.5207C16.7363 11.5196 16.7363 11.5185 16.7363 11.5174C16.7363 11.5163 16.7363 11.5151 16.7363 11.514C16.7363 11.5129 16.7363 11.5118 16.7363 11.5107C16.7363 11.5096 16.7363 11.5085 16.7363 11.5074C16.7363 11.5063 16.7363 11.5052 16.7363 11.5041C16.7363 11.503 16.7363 11.5019 16.7363 11.5007C16.7363 11.4996 16.7363 11.4985 16.7363 11.4974C16.7363 11.4963 16.7363 11.4952 16.7363 11.4941C16.7363 11.493 16.7363 11.4919 16.7363 11.4908C16.7363 11.4897 16.7363 11.4886 16.7363 11.4874C16.7363 11.4863 16.7363 11.4852 16.7363 11.4841C16.7363 11.483 16.7363 11.4819 16.7363 11.4808C16.7363 11.4797 16.7363 11.4786 16.7363 11.4775C16.7363 11.4764 16.7363 11.4753 16.7363 11.4742C16.7363 11.473 16.7363 11.4719 16.7363 11.4708C16.7363 11.4697 16.7363 11.4686 16.7363 11.4675C16.7363 11.4664 16.7363 11.4653 16.7363 11.4642C16.7363 11.4631 16.7363 11.462 16.7363 11.4609C16.7363 11.4597 16.7363 11.4586 16.7363 11.4575C16.7363 11.4564 16.7363 11.4553 16.7363 11.4542C16.7363 11.4531 16.7363 11.452 16.7363 11.4509C16.7363 11.4498 16.7363 11.4487 16.7363 11.4476C16.7363 11.4464 16.7363 11.4453 16.7363 11.4442C16.7363 11.4431 16.7363 11.442 16.7363 11.4409C16.7363 11.4398 16.7363 11.4387 16.7363 11.4376C16.7363 11.4365 16.7363 11.4354 16.7363 11.4342C16.7363 11.4331 16.7363 11.432 16.7363 11.4309C16.7363 11.4298 16.7363 11.4287 16.7363 11.4276C16.7363 11.4265 16.7363 11.4254 16.7363 11.4243C16.7363 11.4232 16.7363 11.4221 16.7363 11.4209C16.7363 11.4198 16.7363 11.4187 16.7363 11.4176C16.7363 11.4165 16.7363 11.4154 16.7363 11.4143C16.7363 11.4132 16.7363 11.4121 16.7363 11.411C16.7363 11.4099 16.7363 11.4087 16.7363 11.4076C16.7363 11.4065 16.7363 11.4054 16.7363 11.4043C16.7363 11.4032 16.7363 11.4021 16.7363 11.401C16.7363 11.3999 16.7363 11.3988 16.7363 11.3977C16.7363 11.3965 16.7363 11.3954 16.7363 11.3943C16.7363 11.3932 16.7363 11.3921 16.7363 11.391C16.7363 11.3899 16.7363 11.3888 16.7363 11.3877C16.7363 11.3866 16.7363 11.3855 16.7363 11.3843C16.7363 11.3832 16.7363 11.3821 16.7363 11.381C16.7363 11.3799 16.7363 11.3788 16.7363 11.3777C16.7363 11.3766 16.7363 11.3755 16.7363 11.3744C16.7363 11.3733 16.7363 11.3721 16.7363 11.371C16.7363 11.3699 16.7363 11.3688 16.7363 11.3677C16.7363 11.3666 16.7363 11.3655 16.7363 11.3644C16.7363 11.3633 16.7363 11.3622 16.7363 11.3611C16.7363 11.3599 16.7363 11.3588 16.7363 11.3577C16.7363 11.3566 16.7363 11.3555 16.7363 11.3544C16.7363 11.3533 16.7363 11.3522 16.7363 11.3511C16.7363 11.35 16.7363 11.3488 16.7363 11.3477C16.7363 11.3466 16.7363 11.3455 16.7363 11.3444C16.7363 11.3433 16.7363 11.3422 16.7363 11.3411C16.7363 11.34 16.7363 11.3389 16.7363 11.3378C16.7363 11.3366 16.7363 11.3355 16.7363 11.3344C16.7363 11.3333 16.7363 11.3322 16.7363 11.3311C16.7363 11.33 16.7363 11.3289 16.7363 11.3278C16.7363 11.3267 16.7363 11.3255 16.7363 11.3244C16.7363 11.3233 16.7363 11.3222 16.7363 11.3211C16.7363 11.32 16.7363 11.3189 16.7363 11.3178C16.7363 11.3167 16.7363 11.3156 16.7363 11.3144C16.7363 11.3133 16.7363 11.3122 16.7363 11.3111C16.7363 11.31 16.7363 11.3089 16.7363 11.3078C16.7363 11.3067 16.7363 11.3056 16.7363 11.3045C16.7363 11.3033 16.7363 11.3022 16.7363 11.3011C16.7363 11.3 16.7363 11.2989 16.7363 11.2978C16.7363 11.2967 16.7363 11.2956 16.7363 11.2945C16.7363 11.2934 16.7363 11.2922 16.7363 11.2911C16.7363 11.29 16.7363 11.2889 16.7363 11.2878C16.7363 11.2867 16.7363 11.2856 16.7363 11.2845C16.7363 11.2834 16.7363 11.2823 16.7363 11.2811C16.7363 11.28 16.7363 11.2789 16.7363 11.2778C16.7363 11.2767 16.7363 11.2756 16.7363 11.2745C16.7363 11.2734 16.7363 11.2723 16.7363 11.2711C16.7363 11.27 16.7363 11.2689 16.7363 11.2678C16.7363 11.2667 16.7363 11.2656 16.7363 11.2645C16.7363 11.2634 16.7363 11.2623 16.7363 11.2612C16.7363 11.26 16.7363 11.2589 16.7363 11.2578C16.7363 11.2567 16.7363 11.2556 16.7363 11.2545C16.7363 11.2534 16.7363 11.2523 16.7363 11.2512C16.7363 11.25 16.7363 11.2489 16.7363 11.2478C16.7363 11.2467 16.7363 11.2456 16.7363 11.2445C16.7363 11.2434 16.7363 11.2423 16.7363 11.2412C16.7363 11.2401 16.7363 11.2389 16.7363 11.2378C16.7363 11.2367 16.7363 11.2356 16.7363 11.2345C16.7363 11.2334 16.7363 11.2323 16.7363 11.2312C16.7363 11.2301 16.7363 11.2289 16.7363 11.2278C16.7363 11.2267 16.7363 11.2256 16.7363 11.2245C16.7363 11.2234 16.7363 11.2223 16.7363 11.2212C16.7363 11.2201 16.7363 11.2189 16.7363 11.2178C16.7363 11.2167 16.7363 11.2156 16.7363 11.2145C16.7363 11.2134 16.7363 11.2123 16.7363 11.2112C16.7363 11.2101 16.7363 11.2089 16.7363 11.2078C16.7363 11.2067 16.7363 11.2056 16.7363 11.2045C16.7363 11.2034 16.7363 11.2023 16.7363 11.2012C16.7363 11.2001 16.7363 11.1989 16.7363 11.1978C16.7363 11.1967 16.7363 11.1956 16.7363 11.1945C16.7363 11.1934 16.7363 11.1923 16.7363 11.1912C16.7363 11.1901 16.7363 11.1889 16.7363 11.1878C16.7363 11.1867 16.7363 11.1856 16.7363 11.1845C16.7363 11.1834 16.7363 11.1823 16.7363 11.1812C16.7363 11.1801 16.7363 11.1789 16.7363 11.1778C16.7363 11.1767 16.7363 11.1756 16.7363 11.1745C16.7363 11.1734 16.7363 11.1723 16.7363 11.1712C16.7363 11.17 16.7363 11.1689 16.7363 11.1678C16.7363 11.1667 16.7363 11.1656 16.7363 11.1645C16.7363 11.1634 16.7363 11.1623 16.7363 11.1612C16.7363 11.16 16.7363 11.1589 16.7363 11.1578C16.7363 11.1567 16.7363 11.1556 16.7363 11.1545C16.7363 11.1534 16.7363 11.1523 16.7363 11.1512C16.7363 11.15 16.7363 11.1489 16.7363 11.1478C16.7363 11.1467 16.7363 11.1456 16.7363 11.1445C16.7363 11.1434 16.7363 11.1423 16.7363 11.1411C16.7363 11.14 16.7363 11.1389 16.7363 11.1378C16.7363 11.1367 16.7363 11.1356 16.7363 11.1345C16.7363 11.1334 16.7363 11.1322 16.7363 11.1311C16.7363 11.13 16.7363 11.1289 16.7363 11.1278C16.7363 11.1267 16.7363 11.1256 16.7363 11.1245C16.7363 11.1234 16.7363 11.1222 16.7363 11.1211C16.7363 11.12 16.7363 11.1189 16.7363 11.1178C16.7363 11.1167 16.7363 11.1156 16.7363 11.1145C16.7363 11.1133 16.7363 11.1122 16.7363 11.1111C16.7363 11.11 16.7363 11.1089 16.7363 11.1078C16.7363 11.1067 16.7363 11.1056 16.7363 11.1044C16.7363 11.1033 16.7363 11.1022 16.7363 11.1011C16.7363 11.1 16.7363 11.0989 16.7363 11.0978C16.7363 11.0967 16.7363 11.0955 16.7363 11.0944C16.7363 11.0933 16.7363 11.0922 16.7363 11.0911C16.7363 11.09 16.7363 11.0889 16.7363 11.0878C16.7363 11.0866 16.7363 11.0855 16.7363 11.0844C16.7363 11.0833 16.7363 11.0822 16.7363 11.0811C16.7363 11.08 16.7363 11.0789 16.7363 11.0777C16.7363 11.0766 16.7363 11.0755 16.7363 11.0744C16.7363 11.0733 16.7363 11.0722 16.7363 11.0711C16.7363 11.07 16.7363 11.0688 16.7363 11.0677C16.7363 11.0666 16.7363 11.0655 16.7363 11.0644C16.7363 11.0633 16.7363 11.0622 16.7363 11.0611C16.7363 11.0599 16.7363 11.0588 16.7363 11.0577C16.7363 11.0566 16.7363 11.0555 16.7363 11.0544C16.7363 11.0533 16.7363 11.0522 16.7363 11.051C16.7363 11.0499 16.7363 11.0488 16.7363 11.0477C16.7363 11.0466 16.7363 11.0455 16.7363 11.0444C16.7363 11.0433 16.7363 11.0421 16.7363 11.041C16.7363 11.0399 16.7363 11.0388 16.7363 11.0377C16.7363 11.0366 16.7363 11.0355 16.7363 11.0343C16.7363 11.0332 16.7363 11.0321 16.7363 11.031C16.7363 11.0299 16.7363 11.0288 16.7363 11.0277C16.7363 11.0266 16.7363 11.0254 16.7363 11.0243C16.7363 11.0232 16.7363 11.0221 16.7363 11.021C16.7363 11.0199 16.7363 11.0188 16.7363 11.0176C16.7363 11.0165 16.7363 11.0154 16.7363 11.0143C16.7363 11.0132 16.7363 11.0121 16.7363 11.011C16.7363 11.0099 16.7363 11.0087 16.7363 11.0076C16.7363 11.0065 16.7363 11.0054 16.7363 11.0043C16.7363 11.0032 16.7363 11.0021 16.7363 11.0009C16.7363 10.9998 16.7363 10.9987 16.7363 10.9976C16.7363 10.9965 16.7363 10.9954 16.7363 10.9943C16.7363 10.9932 16.7363 10.992 16.7363 10.9909C16.7363 10.9898 16.7363 10.9887 16.7363 10.9876C16.7363 10.9865 16.7363 10.9854 16.7363 10.9842C16.7363 10.9831 16.7363 10.982 16.7363 10.9809C16.7363 10.9798 16.7363 10.9787 16.7363 10.9776C16.7363 10.9764 16.7363 10.9753 16.7363 10.9742C16.7363 10.9731 16.7363 10.972 16.7363 10.9709C16.7363 10.9698 16.7363 10.9687 16.7363 10.9675C16.7363 10.9664 16.7363 10.9653 16.7363 10.9642C16.7363 10.9631 16.7363 10.962 16.7363 10.9609C16.7363 10.9597 16.7363 10.9586 16.7363 10.9575C16.7363 10.9564 16.7363 10.9553 16.7363 10.9542C16.7363 10.9531 16.7363 10.9519 16.7363 10.9508C16.7363 10.9497 16.7363 10.9486 16.7363 10.9475C16.7363 10.9464 16.7363 10.9453 16.7363 10.9441C16.7363 10.943 16.7363 10.9419 16.7363 10.9408C16.7363 10.9397 16.7363 10.9386 16.7363 10.9375C16.7363 10.9363 16.7363 10.9352 16.7363 10.9341C16.7363 10.933 16.7363 10.9319 16.7363 10.9308C16.7363 10.9297 16.7363 10.9285 16.7363 10.9274C16.7363 10.9263 16.7363 10.9252 16.7363 10.9241C16.7363 10.923 16.7363 10.9219 16.7363 10.9207C16.7363 10.9196 16.7363 10.9185 16.7363 10.9174C16.7363 10.9163 16.7363 10.9152 16.7363 10.9141C16.7363 10.9129 16.7363 10.9118 16.7363 10.9107C16.7363 10.9096 16.7363 10.9085 16.7363 10.9074C16.7363 10.9063 16.7363 10.9051 16.7363 10.904C16.7363 10.9029 16.7363 10.9018 16.7363 10.9007C16.7363 10.8996 16.7363 10.8985 16.7363 10.8973C16.7363 10.8962 16.7363 10.8951 16.7363 10.894C16.7363 10.8929 16.7363 10.8918 16.7363 10.8907C16.7363 10.8895 16.7363 10.8884 16.7363 10.8873C16.7363 10.8862 16.7363 10.8851 16.7363 10.884C16.7363 10.8829 16.7363 10.8817 16.7363 10.8806C16.7363 10.8795 16.7363 10.8784 16.7363 10.8773C16.7363 10.8762 16.7363 10.875 16.7363 10.8739C16.7363 10.8728 16.7363 10.8717 16.7363 10.8706C16.7363 10.8695 16.7363 10.8684 16.7363 10.8672C16.7363 10.8661 16.7363 10.865 16.7363 10.8639C16.7363 10.8628 16.7363 10.8617 16.7363 10.8606C16.7363 10.8594 16.7363 10.8583 16.7363 10.8572C16.7363 10.8561 16.7363 10.855 16.7363 10.8539C16.7363 10.8527 16.7363 10.8516 16.7363 10.8505C16.7363 10.8494 16.7363 10.8483 16.7363 10.8472C16.7363 10.8461 16.7363 10.8449 16.7363 10.8438C16.7363 10.8427 16.7363 10.8416 16.7363 10.8405C16.7363 10.8394 16.7363 10.8383 16.7363 10.8371C16.7363 10.836 16.7363 10.8349 16.7363 10.8338C16.7363 10.8327 16.7363 10.8316 16.7363 10.8304C16.7363 10.8293 16.7363 10.8282 16.7363 10.8271C16.7363 10.826 16.7363 10.8249 16.7363 10.8238C16.7363 10.8226 16.7363 10.8215 16.7363 10.8204C16.7363 10.8193 16.7363 10.8182 16.7363 10.8171C16.7363 10.8159 16.7363 10.8148 16.7363 10.8137C16.7363 10.8126 16.7363 10.8115 16.7363 10.8104C16.7363 10.8092 16.7363 10.8081 16.7363 10.807C16.7363 10.8059 16.7363 10.8048 16.7363 10.8037C16.7363 10.8026 16.7363 10.8014 16.7363 10.8003C16.7363 10.7992 16.7363 10.7981 16.7363 10.797C16.7363 10.7959 16.7363 10.7947 16.7363 10.7936C16.7363 10.7925 16.7363 10.7914 16.7363 10.7903C16.7363 10.7892 16.7363 10.7881 16.7363 10.7869C16.7363 10.7858 16.7363 10.7847 16.7363 10.7836C16.7363 10.7825 16.7363 10.7814 16.7363 10.7802C16.7363 10.7791 16.7363 10.778 16.7363 10.7769C16.7363 10.7758 16.7363 10.7747 16.7363 10.7735C16.7363 10.7724 16.7363 10.7713 16.7363 10.7702C16.7363 10.7691 16.7363 10.768 16.7363 10.7668C16.7363 10.7657 16.7363 10.7646 16.7363 10.7635C16.7363 10.7624 16.7363 10.7613 16.7363 10.7602C16.7363 10.759 16.7363 10.7579 16.7363 10.7568C16.7363 10.7557 16.7363 10.7546 16.7363 10.7535C16.7363 10.7523 16.7363 10.7512 16.7363 10.7501C16.7363 10.749 16.7363 10.7479 16.7363 10.7468C16.7363 10.7456 16.7363 10.7445 16.7363 10.7434C16.7363 10.7423 16.7363 10.7412 16.7363 10.7401C16.7363 10.7389 16.7363 10.7378 16.7363 10.7367C16.7363 10.7356 16.7363 10.7345 16.7363 10.7334C16.7363 10.7322 16.7363 10.7311 16.7363 10.73C16.7363 10.7289 16.7363 10.7278 16.7363 10.7267C16.7363 10.7255 16.7363 10.7244 16.7363 10.7233C16.7363 10.7222 16.7363 10.7211 16.7363 10.72C16.7363 10.7188 16.7363 10.7177 16.7363 10.7166C16.7363 10.7155 16.7363 10.7144 16.7363 10.7133C16.7363 10.7121 16.7363 10.711 16.7363 10.7099C16.7363 10.7088 16.7363 10.7077 16.7363 10.7066C16.7363 10.7054 16.7363 10.7043 16.7363 10.7032C16.7363 10.7021 16.7363 10.701 16.7363 10.6999C16.7363 10.6987 16.7363 10.6976 16.7363 10.6965C16.7363 10.6954 16.7363 10.6943 16.7363 10.6932C16.7363 10.692 16.7363 10.6909 16.7363 10.6898C16.7363 10.6887 16.7363 10.6876 16.7363 10.6865C16.7363 10.6853 16.7363 10.6842 16.7363 10.6831C16.7363 10.682 16.7363 10.6809 16.7363 10.6798C16.7363 10.6786 16.7363 10.6775 16.7363 10.6764C16.7363 10.6753 16.7363 10.6742 16.7363 10.6731C16.7363 10.6719 16.7363 10.6708 16.7363 10.6697C16.7363 10.6686 16.7363 10.6675 16.7363 10.6664C16.7363 10.6652 16.7363 10.6641 16.7363 10.663C16.7363 10.6619 16.7363 10.6608 16.7363 10.6596C16.7363 10.6585 16.7363 10.6574 16.7363 10.6563C16.7363 10.6552 16.7363 10.6541 16.7363 10.6529C16.7363 10.6518 16.7363 10.6507 16.7363 10.6496C16.7363 10.6485 16.7363 10.6474 16.7363 10.6462C16.7363 10.6451 16.7363 10.644 16.7363 10.6429C16.7363 10.6418 16.7363 10.6407 16.7363 10.6395C16.7363 10.6384 16.7363 10.6373 16.7363 10.6362C16.7363 10.6351 16.7363 10.6339 16.7363 10.6328C16.7363 10.6317 16.7363 10.6306 16.7363 10.6295C16.7363 10.6284 16.7363 10.6272 16.7363 10.6261C16.7363 10.625 16.7363 10.6239 16.7363 10.6228C16.7363 10.6217 16.7363 10.6205 16.7363 10.6194C16.7363 10.6183 16.7363 10.6172 16.7363 10.6161C16.7363 10.615 16.7363 10.6138 16.7363 10.6127C16.7363 10.6116 16.7363 10.6105 16.7363 10.6094C16.7363 10.6082 16.7363 10.6071 16.7363 10.606C16.7363 10.6049 16.7363 10.6038 16.7363 10.6027C16.7363 10.6015 16.7363 10.6004 16.7363 10.5993C16.7363 10.5982 16.7363 10.5971 16.7363 10.5959C16.7363 10.5948 16.7363 10.5937 16.7363 10.5926C16.7363 10.5915 16.7363 10.5904 16.7363 10.5892C16.7363 10.5881 16.7363 10.587 16.7363 10.5859C16.7363 10.5848 16.7363 10.5836 16.7363 10.5825C16.7363 10.5814 16.7363 10.5803 16.7363 10.5792C16.7363 10.5781 16.7363 10.5769 16.7363 10.5758C16.7363 10.5747 16.7363 10.5736 16.7363 10.5725C16.7363 10.5713 16.7363 10.5702 16.7363 10.5691C16.7363 10.568 16.7363 10.5669 16.7363 10.5658C16.7363 10.5646 16.7363 10.5635 16.7363 10.5624C16.7363 10.5613 16.7363 10.5602 16.7363 10.559C16.7363 10.5579 16.7363 10.5568 16.7363 10.5557C16.7363 10.5546 16.7363 10.5535 16.7363 10.5523C16.7363 10.5512 16.7363 10.5501 16.7363 10.549C16.7363 10.5479 16.7363 10.5467 16.7363 10.5456C16.7363 10.5445 16.7363 10.5434 16.7363 10.5423C16.7363 10.5412 16.7363 10.54 16.7363 10.5389C16.7363 10.5378 16.7363 10.5367 16.7363 10.5356C16.7363 10.5344 16.7363 10.5333 16.7363 10.5322C16.7363 10.5311 16.7363 10.53 16.7363 10.5288C16.7363 10.5277 16.7363 10.5266 16.7363 10.5255C16.7363 10.5244 16.7363 10.5233 16.7363 10.5221C16.7363 10.521 16.7363 10.5199 16.7363 10.5188C16.7363 10.5177 16.7363 10.5165 16.7363 10.5154C16.7363 10.5143 16.7363 10.5132 16.7363 10.5121C16.7363 10.5109 16.7363 10.5098 16.7363 10.5087C16.7363 10.5076 16.7363 10.5065 16.7363 10.5054C16.7363 10.5042 16.7363 10.5031 16.7363 10.502C16.7363 10.5009 16.7363 10.4998 16.7363 10.4986C16.7363 10.4975 16.7363 10.4964 16.7363 10.4953C16.7363 10.4942 16.7363 10.493 16.7363 10.4919C16.7363 10.4908 16.7363 10.4897 16.7363 10.4886C16.7363 10.4874 16.7363 10.4863 16.7363 10.4852C16.7363 10.4841 16.7363 10.483 16.7363 10.4818C16.7363 10.4807 16.7363 10.4796 16.7363 10.4785C16.7363 10.4774 16.7363 10.4763 16.7363 10.4751C16.7363 10.474 16.7363 10.4729 16.7363 10.4718C16.7363 10.4707 16.7363 10.4695 16.7363 10.4684C16.7363 10.4673 16.7363 10.4662 16.7363 10.4651C16.7363 10.4639 16.7363 10.4628 16.7363 10.4617C16.7363 10.4606 16.7363 10.4595 16.7363 10.4583C16.7363 10.4572 16.7363 10.4561 16.7363 10.455C16.7363 10.4539 16.7363 10.4527 16.7363 10.4516C16.7363 10.4505 16.7363 10.4494 16.7363 10.4483C16.7363 10.4471 16.7363 10.446 16.7363 10.4449C16.7363 10.4438 16.7363 10.4427 16.7363 10.4415C16.7363 10.4404 16.7363 10.4393 16.7363 10.4382C16.7363 10.4371 16.7363 10.436 16.7363 10.4348C16.7363 10.4337 16.7363 10.4326 16.7363 10.4315C16.7363 10.4304 16.7363 10.4292 16.7363 10.4281C16.7363 10.427 16.7363 10.4259 16.7363 10.4248C16.7363 10.4236 16.7363 10.4225 16.7363 10.4214C16.7363 10.4203 16.7363 10.4192 16.7363 10.418C16.7363 10.4169 16.7363 10.4158 16.7363 10.4147C16.7363 10.4136 16.7363 10.4124 16.7363 10.4113C16.7363 10.4102 16.7363 10.4091 16.7363 10.408C16.7363 10.4068 16.7363 10.4057 16.7363 10.4046C16.7363 10.4035 16.7363 10.4024 16.7363 10.4012C16.7363 10.4001 16.7363 10.399 16.7363 10.3979C16.7363 10.3968 16.7363 10.3956 16.7363 10.3945C16.7363 10.3934 16.7363 10.3923 16.7363 10.3912C16.7363 10.39 16.7363 10.3889 16.7363 10.3878C16.7363 10.3867 16.7363 10.3856 16.7363 10.3844C16.7363 10.3833 16.7363 10.3822 16.7363 10.3811C16.7363 10.3799 16.7363 10.3788 16.7363 10.3777C16.7363 10.3766 16.7363 10.3755 16.7363 10.3743C16.7363 10.3732 16.7363 10.3721 16.7363 10.371C16.7363 10.3699 16.7363 10.3687 16.7363 10.3676C16.7363 10.3665 16.7363 10.3654 16.7363 10.3643C16.7363 10.3631 16.7363 10.362 16.7363 10.3609C16.7363 10.3598 16.7363 10.3587 16.7363 10.3575C16.7363 10.3564 16.7363 10.3553 16.7363 10.3542C16.7363 10.3531 16.7363 10.3519 16.7363 10.3508C16.7363 10.3497 16.7363 10.3486 16.7363 10.3475C16.7363 10.3463 16.7363 10.3452 16.7363 10.3441C16.7363 10.343 16.7363 10.3418 16.7363 10.3407C16.7363 10.3396 16.7363 10.3385 16.7363 10.3374C16.7363 10.3362 16.7363 10.3351 16.7363 10.334C16.7363 10.3329 16.7363 10.3318 16.7363 10.3306C16.7363 10.3295 16.7363 10.3284 16.7363 10.3273C16.7363 10.3262 16.7363 10.325 16.7363 10.3239C16.7363 10.3228 16.7363 10.3217 16.7363 10.3206C16.7363 10.3194 16.7363 10.3183 16.7363 10.3172C16.7363 10.3161 16.7363 10.3149 16.7363 10.3138C16.7363 10.3127 16.7363 10.3116 16.7363 10.3105C16.7363 10.3093 16.7363 10.3082 16.7363 10.3071C16.7363 10.306 16.7363 10.3049 16.7363 10.3037C16.7363 10.3026 16.7363 10.3015 16.7363 10.3004C16.7363 10.2993 16.7363 10.2981 16.7363 10.297C16.7363 10.2959 16.7363 10.2948 16.7363 10.2936C16.7363 10.2925 16.7363 10.2914 16.7363 10.2903C16.7363 10.2892 16.7363 10.288 16.7363 10.2869C16.7363 10.2858 16.7363 10.2847 16.7363 10.2836C16.7363 10.2824 16.7363 10.2813 16.7363 10.2802C16.7363 10.2791 16.7363 10.2779 16.7363 10.2768C16.7363 10.2757 16.7363 10.2746 16.7363 10.2735C16.7363 10.2723 16.7363 10.2712 16.7363 10.2701C16.7363 10.269 16.7363 10.2679 16.7363 10.2667C16.7363 10.2656 16.7363 10.2645 16.7363 10.2634C16.7363 10.2622 16.7363 10.2611 16.7363 10.26C16.7363 10.2589 16.7363 10.2578 16.7363 10.2566C16.7363 10.2555 16.7363 10.2544 16.7363 10.2533C16.7363 10.2521 16.7363 10.251 16.7363 10.2499C16.7363 10.2488 16.7363 10.2477 16.7363 10.2465C16.7363 10.2454 16.7363 10.2443 16.7363 10.2432C16.7363 10.2421 16.7363 10.2409 16.7363 10.2398C16.7363 10.2387 16.7363 10.2376 16.7363 10.2364C16.7363 10.2353 16.7363 10.2342 16.7363 10.2331C16.7363 10.232 16.7363 10.2308 16.7363 10.2297C16.7363 10.2286 16.7363 10.2275 16.7363 10.2263C16.7363 10.2252 16.7363 10.2241 16.7363 10.223C16.7363 10.2219 16.7363 10.2207 16.7363 10.2196C16.7363 10.2185 16.7363 10.2174 16.7363 10.2162C16.7363 10.2151 16.7363 10.214 16.7363 10.2129C16.7363 10.2118 16.7363 10.2106 16.7363 10.2095C16.7363 10.2084 16.7363 10.2073 16.7363 10.2061C16.7363 10.205 16.7363 10.2039 16.7363 10.2028C16.7363 10.2017 16.7363 10.2005 16.7363 10.1994C16.7363 10.1983 16.7363 10.1972 16.7363 10.196C16.7363 10.1949 16.7363 10.1938 16.7363 10.1927C16.7363 10.1916 16.7363 10.1904 16.7363 10.1893C16.7363 10.1882 16.7363 10.1871 16.7363 10.1859C16.7363 10.1848 16.7363 10.1837 16.7363 10.1826C16.7363 10.1815 16.7363 10.1803 16.7363 10.1792C16.7363 10.1781 16.7363 10.177 16.7363 10.1758C16.7363 10.1747 16.7363 10.1736 16.7363 10.1725C16.7363 10.1713 16.7363 10.1702 16.7363 10.1691C16.7363 10.168 16.7363 10.1669 16.7363 10.1657C16.7363 10.1646 16.7363 10.1635 16.7363 10.1624C16.7363 10.1612 16.7363 10.1601 16.7363 10.159C16.7363 10.1579 16.7363 10.1568 16.7363 10.1556C16.7363 10.1545 16.7363 10.1534 16.7363 10.1523C16.7363 10.1511 16.7363 10.15 16.7363 10.1489C16.7363 10.1478 16.7363 10.1466 16.7363 10.1455C16.7363 10.1444 16.7363 10.1433 16.7363 10.1422C16.7363 10.141 16.7363 10.1399 16.7363 10.1388C16.7363 10.1377 16.7363 10.1365 16.7363 10.1354C16.7363 10.1343 16.7363 10.1332 16.7363 10.132C16.7363 10.1309 16.7363 10.1298 16.7363 10.1287C16.7363 10.1276 16.7363 10.1264 16.7363 10.1253C16.7363 10.1242 16.7363 10.1231 16.7363 10.1219C16.7363 10.1208 16.7363 10.1197 16.7363 10.1186C16.7363 10.1174 16.7363 10.1163 16.7363 10.1152C16.7363 10.1141 16.7363 10.113 16.7363 10.1118C16.7363 10.1107 16.7363 10.1096 16.7363 10.1085C16.7363 10.1073 16.7363 10.1062 16.7363 10.1051C16.7363 10.104 16.7363 10.1028 16.7363 10.1017C16.7363 10.1006 16.7363 10.0995 16.7363 10.0983C16.7363 10.0972 16.7363 10.0961 16.7363 10.095C16.7363 10.0939 16.7363 10.0927 16.7363 10.0916C16.7363 10.0905 16.7363 10.0894 16.7363 10.0882C16.7363 10.0871 16.7363 10.086 16.7363 10.0849C16.7363 10.0837 16.7363 10.0826 16.7363 10.0815C16.7363 10.0804 16.7363 10.0792 16.7363 10.0781C16.7363 10.077 16.7363 10.0759 16.7363 10.0748C16.7363 10.0736 16.7363 10.0725 16.7363 10.0714C16.7363 10.0703 16.7363 10.0691 16.7363 10.068C16.7363 10.0669 16.7363 10.0658 16.7363 10.0646C16.7363 10.0635 16.7363 10.0624 16.7363 10.0613C16.7363 10.0601 16.7363 10.059 16.7363 10.0579C16.7363 10.0568 16.7363 10.0556 16.7363 10.0545C16.7363 10.0534 16.7363 10.0523 16.7363 10.0512C16.7363 10.05 16.7363 10.0489 16.7363 10.0478C16.7363 10.0467 16.7363 10.0455 16.7363 10.0444C16.7363 10.0433 16.7363 10.0422 16.7363 10.041C16.7363 10.0399 16.7363 10.0388 16.7363 10.0377C16.7363 10.0365 16.7363 10.0354 16.7363 10.0343C16.7363 10.0332 16.7363 10.032 16.7363 10.0309C16.7363 10.0298 16.7363 10.0287 16.7363 10.0275C16.7363 10.0264 16.7363 10.0253 16.7363 10.0242C16.7363 10.023 16.7363 10.0219 16.7363 10.0208C16.7363 10.0197 16.7363 10.0185 16.7363 10.0174C16.7363 10.0163 16.7363 10.0152 16.7363 10.0141C16.7363 10.0129 16.7363 10.0118 16.7363 10.0107C16.7363 10.0096 16.7363 10.0084 16.7363 10.0073C16.7363 10.0062 16.7363 10.0051 16.7363 10.0039C16.7363 10.0028 16.7363 10.0017 16.7363 10.0006C16.7363 9.99943 16.7363 9.99831 16.7363 9.99719C16.7363 9.99606 16.7363 9.99494 16.7363 9.99381C16.7363 9.99269 16.7363 9.99156 16.7363 9.99044C16.7363 9.98931 16.7363 9.98819 16.7363 9.98706C16.7363 9.98594 16.7363 9.98481 16.7363 9.98369C16.7363 9.98256 16.7363 9.98144 16.7363 9.98032C16.7363 9.97919 16.7363 9.97807 16.7363 9.97694C16.7363 9.97582 16.7363 9.97469 16.7363 9.97357C16.7363 9.97244 16.7363 9.97132 16.7363 9.97019C16.7363 9.96907 16.7363 9.96794 16.7363 9.96682C16.7363 9.96569 16.7363 9.96457 16.7363 9.96344C16.7363 9.96232 16.7363 9.96119 16.7363 9.96007C16.7363 9.95894 16.7363 9.95782 16.7363 9.95669C16.7363 9.95557 16.7363 9.95444 16.7363 9.95332C16.7363 9.95219 16.7363 9.95107 16.7363 9.94994C16.7363 9.94882 16.7363 9.94769 16.7363 9.94657C16.7363 9.94544 16.7363 9.94432 16.7363 9.94319C16.7363 9.94207 16.7363 9.94094 16.7363 9.93981C16.7363 9.93869 16.7363 9.93756 16.7363 9.93644C16.7363 9.93531 16.7363 9.93419 16.7363 9.93306C16.7363 9.93194 16.7363 9.93081 16.7363 9.92969H14.7363ZM14.7363 11.6436C14.7363 12.1754 14.7088 12.7129 14.6536 13.2562L16.6433 13.4586C16.7052 12.8496 16.7363 12.2445 16.7363 11.6436H14.7363ZM14.6523 13.2698C14.5526 14.402 14.3089 15.4677 13.9239 16.4707L15.791 17.1875C16.2458 16.003 16.5294 14.7542 16.6446 13.4451L14.6523 13.2698ZM13.9249 16.4679C13.5449 17.449 13.0331 18.2981 12.3932 19.0245L13.8939 20.3466C14.6993 19.4324 15.3301 18.3772 15.7899 17.1903L13.9249 16.4679ZM12.3888 19.0296C11.7715 19.7398 11.017 20.3058 10.1132 20.7276L10.959 22.54C12.106 22.0047 13.0898 21.2719 13.8984 20.3415L12.3888 19.0296ZM10.1132 20.7276C9.24133 21.1345 8.21304 21.3516 7.00586 21.3516V23.3516C8.45493 23.3516 9.78015 23.0901 10.959 22.54L10.1132 20.7276ZM7.00586 21.3516C6.54475 21.3516 6.05422 21.3124 5.53322 21.2316L5.22655 23.2079C5.83836 23.3028 6.43182 23.3516 7.00586 23.3516V21.3516ZM5.53585 21.232C5.0301 21.1521 4.52196 21.032 4.01109 20.8706L3.40883 22.7778C4.01125 22.968 4.61638 23.1116 5.22392 23.2075L5.53585 21.232ZM4.01597 20.8722C3.51699 20.7118 3.03689 20.5161 2.57514 20.2853L1.68072 22.0741C2.2346 22.3511 2.80918 22.5851 3.40395 22.7762L4.01597 20.8722ZM2.59582 20.2959C2.16038 20.0654 1.78107 19.8056 1.45343 19.5189L0.136417 21.0241C0.590026 21.421 1.09939 21.7667 1.66004 22.0635L2.59582 20.2959ZM1.78389 20.4196L2.6921 14.3551L0.714154 14.0589L-0.194049 20.1234L1.78389 20.4196ZM1.00831 14.9262C1.65621 15.5522 2.37902 16.0658 3.17486 16.4638L4.06928 14.6749C3.45887 14.3697 2.90238 13.9752 2.39794 13.4878L1.00831 14.9262ZM3.18488 16.4687C4.03259 16.8808 4.9499 17.082 5.92188 17.082V15.082C5.23369 15.082 4.6178 14.9415 4.05926 14.67L3.18488 16.4687ZM5.92188 17.082C6.55017 17.082 7.14469 16.9914 7.67224 16.7693L6.89612 14.926C6.68148 15.0164 6.3678 15.082 5.92188 15.082V17.082ZM7.67224 16.7693C8.16649 16.5612 8.60058 16.2638 8.95297 15.8691L7.46109 14.5371C7.3252 14.6893 7.14406 14.8216 6.89612 14.926L7.67224 16.7693ZM8.95297 15.8691C9.28319 15.4993 9.53583 15.0747 9.71361 14.6049L7.84303 13.8971C7.74738 14.1499 7.61916 14.3601 7.46109 14.5371L8.95297 15.8691ZM9.70848 14.6181C9.88472 14.1716 10.0067 13.705 10.0759 13.2205L8.09599 12.9377C8.04802 13.2735 7.96489 13.5881 7.84817 13.8838L9.70848 14.6181ZM10.0729 13.2398C10.149 12.7726 10.1921 12.2966 10.2029 11.8123L8.20337 11.7678C8.1946 12.1624 8.15959 12.5458 8.09893 12.9184L10.0729 13.2398ZM10.2021 11.8344C10.2223 11.3805 10.2324 10.9312 10.2324 10.4863H8.23242C8.23242 10.9009 8.223 11.3206 8.20411 11.7456L10.2021 11.8344ZM10.2324 10.4863C10.2324 8.89999 10.1526 7.32318 9.99289 5.75604L8.0032 5.95881C8.15599 7.45807 8.23242 8.9672 8.23242 10.4863H10.2324ZM9.99296 5.75667C9.83755 4.22201 9.70157 2.68739 9.58502 1.15278L7.59076 1.30425C7.70859 2.85558 7.84604 4.40689 8.00314 5.95817L9.99296 5.75667ZM8.65325 2.22638L15.3622 1.78692L15.2315 -0.208799L8.52253 0.230654L8.65325 2.22638ZM14.3015 0.884775C14.5914 3.89998 14.7363 6.91492 14.7363 9.92969H16.7363C16.7363 6.85071 16.5883 3.77189 16.2923 0.69335L14.3015 0.884775Z" fill="black" mask="url(#path-1-outside-1_23_12)"/>
</svg>
