<svg width="70" height="130" viewBox="0 0 70 130" fill="none" xmlns="http://www.w3.org/2000/svg">
<path d="M26.7474 31.5815C26.7474 34.3825 26.7474 37.4636 26.7474 40.2646C27.0558 64.9136 27.6725 89.8427 27.9809 114.492C27.9809 117.293 27.9809 119.814 28.2893 122.615C28.5976 126.256 29.5228 130.738 34.7651 129.897C36.9237 129.617 39.3907 125.416 39.6991 122.895C40.9326 102.167 41.8577 81.7197 42.7828 60.9922C43.0912 56.2304 42.7828 51.4687 45.5582 46.4269C49.2587 52.0289 52.3424 57.9111 56.3513 63.233C58.2016 65.7539 62.8272 68.5549 65.6025 67.9947C71.1533 66.8743 70.5365 61.2723 68.6863 57.9111C60.6686 41.105 52.6508 24.0187 43.0912 7.77283C36.9238 -2.59094 27.6725 -2.59094 21.505 7.77283C13.1789 21.4978 7.01145 36.3432 0.227213 50.6284C-0.69791 52.309 1.46071 55.11 2.07745 57.3508C4.54445 56.5105 8.24494 56.5106 9.47844 54.8299C12.5622 51.4687 14.4124 46.9871 16.8794 43.0657C19.3464 38.8641 21.8134 34.6626 24.2804 30.7412C24.8971 31.3014 25.8223 31.5815 26.7474 31.5815Z" fill="#FEBC2E"/>
</svg>
