<svg width="404" height="607" viewBox="0 0 404 607" fill="none" xmlns="http://www.w3.org/2000/svg">
<path fill-rule="evenodd" clip-rule="evenodd" d="M291.404 2.3281C287.285 4.00239 283.682 5.97291 283.398 6.71131C283.114 7.44542 284.857 9.26138 287.272 10.7425C291.65 13.4299 291.643 13.4385 284.948 14.7608C281.255 15.4906 275.793 17.6071 272.81 19.4617C269.057 21.7971 270.967 22.2221 279.008 20.8398C297.384 17.6844 316.253 14.8939 318.679 14.9669C320.034 15.0098 320.78 13.3527 320.586 10.7425C320.376 7.92195 324.895 6.44943 333.756 6.44943C343.332 6.44943 347.146 7.80174 346.9 11.1117C346.681 14.0481 347.005 15.4047 347.773 14.7694C348.444 14.2113 349.342 14.9025 349.768 16.3063C350.194 17.7058 354.029 20.917 358.29 23.4414C362.551 25.9657 366.909 29.735 367.974 31.8171C369.04 33.8949 369.911 33.998 369.911 32.0446C369.911 27.1677 368.544 24.33 360.614 12.7431C359.62 11.292 357.761 8.10655 356.482 5.6681C353.728 0.413396 302.588 -2.20966 291.404 2.3281ZM134.13 6.84868C131.703 9.23991 131.773 9.4331 135.293 10.0685C139 10.7339 140.12 8.91794 137.875 5.87846C137.236 5.01126 135.551 5.44914 134.13 6.84868ZM128.449 8.96087C127.881 9.69498 125.383 11.5367 122.897 13.0521C120.411 14.5676 118.377 17.2293 118.377 18.9723C118.377 20.711 119.132 21.3678 120.056 20.4276C121.343 19.1182 121.554 19.7751 120.96 23.2525C120.371 26.6955 120.743 27.6786 122.509 27.3395C124.629 26.9359 124.697 26.6096 123.284 23.6217L121.735 20.3461L123.629 19.8352C124.67 19.5561 125.599 21.0501 125.694 23.158C125.792 25.3346 127.759 25.6008 130.257 23.7719C134.992 20.3117 134.91 18.6589 129.998 18.5687C128.294 18.5344 127.481 17.5642 128.191 16.4093C129.411 14.4259 131.062 5.73679 129.973 7.03329C129.703 7.35527 129.017 8.22246 128.449 8.96087ZM306.533 9.62199C304.769 10.4591 301.748 10.4634 299.818 9.63488C297.889 8.81062 299.332 8.12372 303.025 8.11943C306.718 8.11084 308.296 8.78914 306.533 9.62199ZM313.742 9.29143C313.387 10.4849 312.806 10.4849 312.451 9.29143C312.096 8.10225 312.386 7.12774 313.097 7.12774C313.807 7.12774 314.098 8.10225 313.742 9.29143ZM352.996 13.5845C352.641 14.778 352.06 14.778 351.705 13.5845C351.35 12.3953 351.64 11.4208 352.35 11.4208C353.061 11.4208 353.351 12.3953 352.996 13.5845ZM356.621 13.5587C356.272 14.735 355.574 14.808 355.072 13.7176C354.569 12.6271 354.855 11.6655 355.708 11.5796C356.56 11.4938 356.971 12.3824 356.621 13.5587ZM135.551 17.9935C136.048 19.0753 136.862 19.0753 137.359 17.9935C137.855 16.9159 137.449 16.0315 136.455 16.0315C135.46 16.0315 135.054 16.9159 135.551 17.9935ZM140.458 17.8775C140.813 19.071 141.394 19.071 141.749 17.8775C142.104 16.6884 141.813 15.7139 141.103 15.7139C140.393 15.7139 140.103 16.6884 140.458 17.8775ZM41.5773 24.9697C41.4286 26.9702 38.7175 28.2109 35.5524 27.7258C29.8094 26.8543 19.7507 33.1737 18.0576 38.7203C17.491 40.5749 17.2033 45.6064 17.2715 52.4624C17.3877 64.1309 17.4677 64.5474 20.372 68.5571C22.7489 71.8413 22.9405 78.7875 20.6303 77.916C19.0921 77.3364 18.964 78.2723 19.1004 89.0908C19.2305 99.4285 19.0699 100.905 17.8091 100.961C16.003 101.047 15.3666 104.863 15.2241 116.472C15.1316 124.023 15.4668 126.075 17.1609 128.325C19.903 131.97 19.7548 137.907 16.8536 140.625C14.5619 142.771 11.7124 158.235 12.2578 165.567C12.3932 167.392 11.8064 170.161 10.9537 171.719C9.61338 174.166 9.50285 175.377 10.1376 180.653C10.5415 184.01 11.1794 186.788 11.5549 186.822C12.0693 186.874 12.0512 187.865 11.4815 190.862C10.9521 193.644 11.5559 195.228 13.5005 196.16C16.2416 197.473 16.2752 197.654 16.3216 211.443C16.348 219.119 16.1946 225.395 15.9818 225.395C15.769 225.395 15.5944 229.259 15.5944 233.981C15.5944 240.344 15.2267 242.718 14.174 243.151C12.936 243.662 12.9045 243.976 13.9292 245.611C15.4265 247.998 18.15 259.68 17.2178 259.714C16.8237 259.727 16.6408 262.419 16.7999 265.866C17.2203 274.972 16.1977 279.883 12.7986 285.086C9.75748 289.74 8.44712 294.084 10.0849 294.084C10.5586 294.084 10.9459 296.982 10.9459 300.524C10.9459 305.534 10.2574 306.963 7.84696 306.963C4.50522 306.963 3.46603 315.163 6.68484 316.133C7.88363 316.494 8.17907 317.426 7.45959 318.58C6.82016 319.602 6.29747 322.105 6.29747 324.144C6.29747 326.184 5.829 329.086 5.25673 330.597C4.68445 332.104 4.34459 335.062 4.50057 337.161C4.65707 339.264 4.02126 342.815 3.08795 345.051C1.62162 348.567 1.91757 349.19 5.26447 349.636C9.24202 350.169 9.38974 354.689 5.61414 360.33C3.94018 362.829 3.73616 364.254 4.27693 369.668C4.79033 374.811 5.00158 374.97 5.35796 370.488C5.70195 366.156 5.9731 366.8 6.57637 373.377C7.28759 381.126 7.25402 382.186 6.17919 386.05C5.17512 389.656 5.41581 390.601 7.84696 392.619C10.3964 394.731 10.5751 395.508 9.59013 400.2C8.98687 403.076 7.47611 406.717 6.23291 408.288C2.36899 413.174 2.14638 418.291 5.78097 418.682L9.1382 419.038L4.74798 432.763L0.357754 446.488L2.94024 448.634L5.52272 450.781L2.47952 456.589C0.353106 460.651 -0.346747 463.54 0.155288 466.184C0.550924 468.266 1.3391 470.134 1.90724 470.336C2.93301 470.701 2.93301 470.726 1.91654 474.028C1.17382 476.436 1.81221 478.368 4.24078 481.06C7.27417 484.417 7.39451 484.911 5.52272 486.306C4.38643 487.152 3.23619 489.65 2.96606 491.853C2.66185 494.334 4.8208 495.987 8.64753 496.197C13.4143 496.459 14.4963 497.519 13.3993 500.847C12.576 503.349 11.9789 508.372 11.9789 512.803C11.9789 519.002 11.0761 521.973 7.20805 528.498C4.58425 532.924 2.87516 537.247 3.40973 538.102C4.18758 539.347 4.23768 540.416 3.66075 543.451C3.13083 546.241 3.28164 547.276 4.23148 547.375C4.94166 547.448 5.86464 549.307 6.28301 551.505C7.12799 555.944 6.90848 557.03 4.15917 562.005C3.40922 563.362 2.66959 567.208 2.51516 570.557C2.27964 575.649 3.17215 576.318 8.01069 574.661C12.2795 573.202 13.5847 573.914 13.0119 577.392C12.3586 581.363 12.3994 581.994 13.2702 581.419C14.9963 580.268 15.3744 581.642 14.5614 586.107C14.0346 589 14.7778 589.378 16.8857 587.292C20.7439 583.466 20.5466 583.423 29.2816 590.052C34.6345 594.113 42.4817 594.774 59.4966 592.606C73.6202 590.803 86.8612 591.421 93.8437 594.203C116.856 603.386 119.145 604.03 118.816 601.205C118.632 599.621 116.075 597.277 113.135 595.998C110.195 594.723 107.568 591.949 107.298 589.846C106.626 584.595 151.1 585.003 166.786 590.391C175.783 593.482 243.743 599.531 267.387 599.346C272.662 599.303 295.668 593.877 296.724 592.426C297.595 591.224 298.045 592.113 297.855 594.663C297.682 596.99 297.773 598.891 298.057 598.891C298.341 598.891 298.717 596.959 298.893 594.598C299.311 588.97 301.217 589.034 301.217 594.676C301.217 599.531 313.418 599.819 322.328 595.178C326.408 593.053 327.746 593.675 327.936 597.784C328.073 600.755 328.523 603.184 328.935 603.184C329.348 603.184 329.542 601.253 329.366 598.891C329.191 596.53 329.467 594.268 329.981 593.864C330.495 593.461 331.264 592.701 331.69 592.173C332.117 591.649 333.744 590.984 335.306 590.696C337.037 590.378 337.882 588.777 337.469 586.605C336.799 583.071 340.463 579.783 350.801 574.648C355.998 572.068 358.35 565.019 354.391 563.894C353.127 563.534 351.86 562.791 351.576 562.241C351.292 561.692 348.851 560.756 346.152 560.164L341.246 559.078L344.603 555.737C346.449 553.9 350.245 551.792 353.038 551.058C355.83 550.32 358.227 548.225 358.362 546.4C358.498 544.576 359.074 543.082 359.642 543.082C360.21 543.082 360.55 541.403 360.398 539.347C360.243 537.273 359.139 537.192 357.914 539.162C355.441 543.137 353.084 544.138 353.455 541.055C353.952 536.917 364.653 521.591 365.394 523.952C365.827 525.33 366.297 523.48 366.471 519.715C366.69 514.971 367.571 512.828 369.508 512.331L372.235 511.631L369.395 509.098C367.16 507.102 366.85 506.015 367.944 504.002C368.709 502.59 370.453 502.873 371.818 504.624C373.184 506.376 374.354 507.419 374.419 506.943C374.483 506.462 374.166 501.679 373.713 496.309C373.168 489.843 372.717 487.989 372.378 490.814C372.037 493.643 371.317 493.57 370.242 490.59C367.356 482.601 367.812 480.802 372.326 482.369C375.475 483.46 376.653 482.528 376.402 479.149C376.184 476.222 376.507 474.242 377.241 474.006C378.303 473.663 373.227 465.09 369.136 460.316C368.284 459.32 369.33 458.186 371.461 457.8C373.591 457.409 375.683 455.216 376.109 452.927C376.752 449.476 376.708 448.742 375.851 448.634C375.283 448.561 374.469 446.462 374.043 443.968C373.477 440.654 373.928 440.164 375.72 442.152C378.926 445.698 379.603 441.95 378.124 428.865C377.47 423.069 377.24 418.583 377.599 418.583C377.949 418.583 378.093 416.651 377.917 414.29C377.741 411.929 376.624 409.967 375.433 409.932C374.243 409.894 372.92 407.85 372.494 405.386C371.936 402.166 372.479 401.694 374.431 403.712C377.19 406.558 378.234 400.84 375.98 395.22C374.847 392.395 374.843 392.224 375.851 388.201C376.67 384.938 376.506 384.453 375.063 385.878C372.983 387.935 370.8 378.679 372.262 374.012C372.72 372.553 373.512 371.359 374.022 371.359C374.532 371.359 375.239 368.462 375.593 364.92C376.098 359.863 376.099 358.48 375.6 358.48C375.248 358.48 375.098 355.612 375.263 352.041C375.454 347.902 375.243 345.494 374.673 345.3C373.936 345.047 373.961 344.399 374.818 341.48C375.778 338.208 375.748 337.624 374.397 333.194C373.597 330.575 372.609 328.429 372.202 328.429C371.794 328.429 371.461 326.497 371.461 324.136C371.461 321.774 372.797 319.654 374.431 319.426L377.4 319.01L375.464 312.403C373.363 305.242 372.983 296.806 374.463 290.225C374.977 287.937 377.999 284.695 381.177 283.021C384.355 281.351 386.956 278.488 386.956 276.659C386.956 274.83 386.316 271.395 385.535 269.021C384.346 265.415 384.725 264.655 387.859 264.372C389.984 264.179 391.604 262.174 391.604 259.74C391.604 257.379 391.125 255.447 390.541 255.447C389.956 255.447 389.615 253.601 389.782 251.343C389.95 249.084 390.429 248.325 390.846 249.655C391.263 250.982 391.604 250.256 391.604 248.041C391.604 245.822 390.5 241.855 389.151 239.223C387.068 235.162 387.868 234.647 394.445 235.806L402.192 237.176L395.478 229.328C383.729 215.594 383.939 215.951 385.406 212.297C386.601 209.322 386.613 209.047 385.566 208.652C383.991 208.056 383.591 200.65 385.011 198.383C385.662 197.34 385.226 196.254 384.029 195.928C382.845 195.606 381.799 193.438 381.704 191.111C381.61 188.784 378.86 185.298 375.593 183.371C369.775 179.936 369.698 179.756 371.833 174.591C373.224 171.23 376.847 169.667 381.839 170.273C389.064 171.153 389.723 170.582 390.398 162.893C391.042 155.564 391.907 154.388 397.565 153.135C402.696 152.001 404 150.477 404 145.622C404 142.273 403.798 139.534 403.551 139.534C402.825 139.534 394.011 126.599 393.024 124.088C391.158 119.331 392.224 113.759 395.09 113.282C398.029 112.793 398.038 112.75 395.994 109.238C394.858 107.285 392.069 105.43 389.796 105.121C385.749 104.563 380.26 98.7287 381.791 96.6036C383.248 94.5816 377.922 88.6529 374.361 88.3352C371.257 88.0561 370.652 86.6523 369.608 77.2849L368.411 66.5522L370.582 66.1659L372.752 65.7795L370.986 61.5594C370.014 59.2411 368.795 58.2709 368.274 59.4C367.754 60.5291 367.329 59.8465 367.329 57.8803C367.329 55.9141 366.922 53.4198 366.425 52.3379C365.928 51.2604 366.567 49.9081 367.845 49.3414L370.169 48.3067L367.845 45.0526C360.249 34.423 306.225 28.5544 288.821 36.4708C283.85 38.7332 277.42 40.6307 274.531 40.6866C270.825 40.7638 269.203 42.3737 269.018 46.1602C268.821 50.2 268.65 50.2901 268.326 46.5122C267.961 42.2793 257.236 37.4067 256.282 41.0386C255.35 44.5889 119.292 44.121 110.113 40.5363C104.006 38.1494 97.0331 35.4447 94.6184 34.526C92.2038 33.6073 85.0168 31.8472 78.6478 30.6236C72.2784 29.3958 64.7246 27.1806 61.8617 25.7038C53.5833 21.4279 41.8722 21.0029 41.5773 24.9697ZM303.703 22.2608C304.075 23.5014 304.521 23.3469 304.693 21.9216C304.864 20.4963 304.559 19.4831 304.015 19.6677C303.413 19.8738 303.291 20.8913 303.703 22.2608ZM289.758 26.5538C290.13 27.7945 290.576 27.64 290.747 26.2147C290.919 24.7894 290.614 23.7762 290.07 23.9608C289.468 24.1669 289.345 25.1843 289.758 26.5538ZM293.89 26.5538C294.262 27.7945 294.708 27.64 294.879 26.2147C295.051 24.7894 294.746 23.7762 294.202 23.9608C293.6 24.1669 293.477 25.1843 293.89 26.5538ZM128.062 35.2387C128.701 36.2604 129.746 36.2604 130.386 35.2387C131.025 34.2126 130.502 33.3755 129.224 33.3755C127.945 33.3755 127.422 34.2126 128.062 35.2387ZM232.662 52.1962C232.312 53.3725 231.615 53.4455 231.113 52.3551C230.61 51.2647 230.896 50.303 231.748 50.2171C232.601 50.1313 233.012 51.0199 232.662 52.1962ZM365.123 51.973C364.951 53.3983 364.506 53.5529 364.133 52.3122C363.721 50.9427 363.843 49.9252 364.445 49.7192C364.99 49.5345 365.294 50.5477 365.123 51.973ZM288.157 59.5975C288.333 61.0614 286.637 62.4781 284.388 62.7486C282.139 63.0148 274.372 64.2168 267.128 65.4146C259.885 66.6166 234.244 69.0851 210.149 70.9097C186.054 72.7342 165.073 75.5376 163.524 77.1475C160.678 80.1011 157.272 76.6924 157.896 71.5107C158.255 68.527 163.145 67.7285 190.558 66.1959C201.02 65.6078 207.731 63.6329 207.731 61.1387C207.731 58.8891 208.058 58.0906 208.458 59.3656C209.562 62.8859 226.763 62.2892 239.238 58.2967C251.434 54.39 287.646 55.3559 288.157 59.5975ZM301.647 55.8239C301.276 58.9106 292.423 59.2841 292.056 56.2274C291.886 54.8236 294.034 53.6731 296.827 53.6731C299.62 53.6731 301.789 54.639 301.647 55.8239ZM303.66 56.2661C303.488 57.6914 303.042 57.8459 302.67 56.6052C302.258 55.2357 302.38 54.2183 302.982 54.0122C303.526 53.8276 303.831 54.8408 303.66 56.2661ZM264.423 61.0013C265.065 62.0274 265.995 61.9887 266.489 60.9154C266.983 59.8422 266.457 59.0007 265.321 59.048C264.184 59.0952 263.78 59.9753 264.423 61.0013ZM334.967 61.1859C335.098 62.9546 331.994 64.4057 328.068 64.4057C324.143 64.4057 320.757 62.9546 320.543 61.1859C320.33 59.4172 323.434 57.9661 327.442 57.9661C331.45 57.9661 334.836 59.4172 334.967 61.1859ZM337.63 62.2592C336.22 67.2992 335.822 67.2992 335.822 62.2592C335.822 59.898 336.461 58.1035 337.243 58.2666C338.501 58.5371 338.545 58.9879 337.63 62.2592ZM243.273 65.1913C243.645 66.432 244.091 66.2775 244.263 64.8522C244.434 63.4269 244.129 62.4137 243.585 62.5983C242.983 62.8044 242.861 63.8218 243.273 65.1913ZM246.349 65.3716C247.277 66.3247 248.671 66.3075 249.448 65.3287C250.224 64.3456 249.464 63.5643 247.76 63.59C246.055 63.6115 245.421 64.4143 246.349 65.3716ZM142.087 75.3916C141.715 77.302 141.2 77.7829 140.944 76.4649C140.687 75.1469 140.781 72.5024 141.152 70.592C141.524 68.6816 142.039 68.2008 142.296 69.5187C142.552 70.8367 142.458 73.4812 142.087 75.3916ZM151.433 71.7769C151.433 73.6272 149.748 74.9108 147.688 74.6318C144.909 74.254 144.343 73.2966 145.493 70.9183C147.476 66.8141 151.433 67.3894 151.433 71.7769ZM156.598 68.8061C156.598 73.3911 153.809 79.6804 153.023 76.8684C152.379 74.5674 152.479 73.2666 153.499 70.6821C155.076 66.681 156.598 65.7623 156.598 68.8061ZM139.794 75.383C139.628 77.6068 137.705 79.4014 135.52 79.367C133.336 79.3284 131.82 77.8816 132.152 76.1472C133.071 71.3433 140.147 70.6349 139.794 75.383ZM304.972 73.6615C304.622 74.8378 303.925 74.9108 303.422 73.8204C302.92 72.7299 303.206 71.7683 304.058 71.6824C304.91 71.5966 305.321 72.4852 304.972 73.6615ZM341.117 78.1692C340.478 79.191 339.431 79.191 338.792 78.1692C338.153 77.1432 338.676 76.3061 339.954 76.3061C341.233 76.3061 341.755 77.1432 341.117 78.1692ZM20.7594 135.241C20.7594 137.602 20.6571 139.534 20.5316 139.534C20.4061 139.534 20.1602 137.602 19.9846 135.241C19.809 132.88 19.9118 130.948 20.2124 130.948C20.513 130.948 20.7594 132.88 20.7594 135.241ZM6.71738 292.723C7.08978 293.964 7.53551 293.81 7.70699 292.384C7.87847 290.959 7.57373 289.946 7.02935 290.13C6.42763 290.336 6.30522 291.354 6.71738 292.723ZM373.903 365.366C373.732 366.792 373.286 366.946 372.914 365.705C372.501 364.336 372.624 363.318 373.226 363.112C373.77 362.928 374.075 363.941 373.903 365.366ZM10.9459 375.652C10.9459 378.014 10.6996 379.945 10.399 379.945C10.0984 379.945 9.99558 378.014 10.1712 375.652C10.3468 373.291 10.5927 371.359 10.7182 371.359C10.8437 371.359 10.9459 373.291 10.9459 375.652ZM164.625 440.336C165.181 447.81 164.548 449.394 163.839 442.298C163.432 438.219 163.393 435.755 163.736 435.755C164.037 435.755 164.438 437.816 164.625 440.336ZM197.377 450.905C197.684 449.33 197.801 446.243 197.637 444.045C197.467 441.748 198.653 440.048 200.427 440.048C202.209 440.048 203.593 442.04 203.702 444.762C203.806 447.355 204.983 450.502 206.318 451.751C209.642 454.868 208.884 461.479 205.389 459.843C203.287 458.86 202.566 460.002 202.566 464.313C202.566 471.602 200.676 471.959 200.326 464.733C200.175 461.621 200.048 462.63 200.025 467.133C200.002 471.405 199.793 473.92 199.559 472.718C199.326 471.521 198.747 474.303 198.273 478.905C197.262 488.727 194.819 490.277 194.819 481.103C194.819 476.406 194.371 475.539 192.942 477.462C191.469 479.45 191.119 478.699 191.319 473.976C191.459 470.662 191.903 468.151 192.306 468.391C192.709 468.631 193.356 466 193.744 462.548C194.358 457.092 194.221 456.654 192.698 459.212C191.734 460.831 190.558 463.055 190.085 464.154C189.611 465.257 189.088 464.325 188.922 462.093C188.756 459.856 189.795 456.684 191.231 455.044C192.668 453.4 194.121 449.536 194.46 446.453C194.966 441.86 195.234 442.014 195.948 447.308C196.428 450.862 197.071 452.481 197.377 450.905ZM270.227 446.003C270.227 449.527 267.068 451.3 266.817 447.917C266.671 445.951 267.378 444.341 268.389 444.341C269.4 444.341 270.227 445.088 270.227 446.003ZM175.913 471.851C175.47 481.463 174.82 476.659 174.976 464.914C175.169 450.309 175.182 450.188 175.725 457.924C176.001 461.853 176.085 468.121 175.913 471.851ZM212.519 455.744C212.169 456.92 211.472 456.993 210.969 455.902C210.467 454.812 210.753 453.85 211.605 453.765C212.457 453.679 212.868 454.567 212.519 455.744ZM229.941 457.439C226.628 462.338 214.852 462.179 213.929 457.22C213.415 454.46 216.372 453.219 222.71 453.528C229.245 453.855 231.53 455.087 229.941 457.439ZM240.658 456.001C239.876 456.984 238.599 456.984 237.817 456.001C237.036 455.018 237.675 454.215 239.238 454.215C240.8 454.215 241.439 455.018 240.658 456.001ZM245.565 455.769C245.21 456.963 244.629 456.963 244.273 455.769C243.919 454.58 244.209 453.606 244.919 453.606C245.629 453.606 245.92 454.58 245.565 455.769ZM250.73 455.769C250.375 456.963 249.794 456.963 249.438 455.769C249.084 454.58 249.374 453.606 250.084 453.606C250.794 453.606 251.085 454.58 250.73 455.769ZM162.796 459.32C162.796 465.57 160.871 478.664 159.97 478.544C158.963 478.407 158.968 478.085 160.104 470.211L161.285 462.024L159.071 460.372C157.126 458.921 157.218 458.629 159.826 457.972C161.46 457.56 162.796 458.165 162.796 459.32ZM165.239 459.814C165.067 461.239 164.621 461.393 164.249 460.153C163.837 458.783 163.959 457.766 164.561 457.56C165.105 457.375 165.41 458.388 165.239 459.814ZM196.885 461.514C196.885 463.875 197.131 465.807 197.432 465.807C197.732 465.807 197.835 463.875 197.66 461.514C197.484 459.152 197.238 457.22 197.113 457.22C196.987 457.22 196.885 459.152 196.885 461.514ZM358.408 459.814C358.237 461.239 357.791 461.393 357.419 460.153C357.007 458.783 357.129 457.766 357.731 457.56C358.275 457.375 358.58 458.388 358.408 459.814ZM362.293 460.062C361.938 461.256 361.357 461.256 361.002 460.062C360.647 458.873 360.937 457.899 361.647 457.899C362.357 457.899 362.648 458.873 362.293 460.062ZM140.447 464.107C140.275 465.532 139.829 465.686 139.457 464.446C139.045 463.076 139.167 462.059 139.769 461.853C140.313 461.668 140.618 462.681 140.447 464.107ZM154.93 466.614C154.818 469.417 154.417 472.564 154.04 473.607C153.655 474.676 153.503 473.521 153.693 470.963C153.883 468.412 153.518 465.6 152.861 464.553C152.028 463.222 152.187 462.514 153.413 462.097C154.536 461.715 155.064 463.287 154.93 466.614ZM171.318 470.1C171.13 475.024 171.225 478.686 171.542 478.686C171.845 478.686 172.093 480.296 172.093 482.262C172.093 487.839 169.993 485.173 169.535 479.012C169.218 474.749 168.875 474.62 168.016 478.441C167.406 481.154 166.655 482.086 166.348 480.506C165.728 477.321 169.214 462.415 170.707 461.861C171.417 461.599 171.566 463.604 171.318 470.1ZM268.936 465.807C269.112 468.168 269.009 470.1 268.708 470.1C268.408 470.1 268.161 468.168 268.161 465.807C268.161 463.445 268.264 461.514 268.389 461.514C268.515 461.514 268.76 463.445 268.936 465.807ZM273.843 463.407C273.843 464.45 273.61 466.493 273.326 467.953C273.042 469.413 272.81 468.559 272.81 466.06C272.81 463.561 273.042 461.514 273.326 461.514C273.61 461.514 273.843 462.364 273.843 463.407ZM349.39 464.33C349.041 465.506 348.343 465.579 347.841 464.489C347.338 463.398 347.624 462.437 348.477 462.351C349.329 462.265 349.74 463.153 349.39 464.33ZM352.21 464.107C352.039 465.532 351.593 465.686 351.221 464.446C350.809 463.076 350.931 462.059 351.533 461.853C352.077 461.668 352.382 462.681 352.21 464.107ZM148.076 470.1C148.251 472.461 148.149 474.393 147.848 474.393C147.547 474.393 147.301 472.461 147.301 470.1C147.301 467.738 147.403 465.807 147.529 465.807C147.654 465.807 147.9 467.738 148.076 470.1ZM209.141 468.4C208.969 469.825 208.524 469.979 208.151 468.739C207.739 467.369 207.861 466.352 208.463 466.146C209.007 465.961 209.312 466.974 209.141 468.4ZM211.723 468.4C211.552 469.825 211.106 469.979 210.734 468.739C210.321 467.369 210.444 466.352 211.046 466.146C211.59 465.961 211.895 466.974 211.723 468.4ZM216.512 472.246C216.512 475.788 216.744 478.686 217.028 478.686C217.312 478.686 217.544 476.273 217.544 473.319C217.543 469.335 218.677 468.314 221.941 469.344C224.601 470.185 226.217 472.375 226.03 474.886C225.861 477.166 225.312 477.952 224.81 476.629C224.309 475.307 223.225 477.153 222.401 480.725C221.074 486.478 220.883 486.486 220.735 480.807C220.548 473.637 218.299 472.01 217.803 478.686C217.457 483.344 215.327 484.58 214.826 480.412C214.323 476.234 215.013 465.807 215.792 465.807C216.188 465.807 216.512 468.704 216.512 472.246ZM264.029 472.246C263.485 477.698 263.599 478.686 264.772 478.686C265.563 478.686 266.019 480.523 265.837 482.979C265.661 485.34 265.028 487.272 264.429 487.272C263.831 487.272 263.507 488.654 263.71 490.341C263.913 492.029 265.961 492.814 268.259 492.093C271.994 490.917 272.405 491.543 272.108 497.97C271.89 502.701 271.997 504.487 272.422 503.195C272.777 502.109 273.01 499.052 272.939 496.395C272.868 493.737 273.405 491.565 274.132 491.565C274.881 491.565 275.315 493.424 275.134 495.858C274.958 498.219 275.061 500.151 275.362 500.151C275.662 500.151 275.909 498.219 275.909 495.858C275.909 488.714 277.84 491.05 278.19 498.618C278.369 502.499 278.438 506.32 278.343 507.11C278.248 507.896 275.88 509.068 273.08 509.712C269.364 510.566 267.932 509.437 267.774 505.517C267.656 502.568 267.099 500.151 266.538 500.151C265.977 500.151 265.661 502.083 265.837 504.444C266.024 506.947 265.498 508.737 264.576 508.737C263.708 508.737 262.996 506.805 262.996 504.444C262.996 502.083 262.136 500.151 261.085 500.151C258.996 500.151 259.263 493.286 261.447 490.857C262.418 489.775 262.778 486.491 262.901 477.612C263.002 470.374 263.376 465.807 263.869 465.807C264.525 465.807 264.554 466.991 264.029 472.246ZM315.421 475.706C315.989 476.938 315.35 477.75 314 477.514C312.651 477.278 311.547 475.38 311.547 473.302C311.547 471.22 312.041 470.825 312.645 472.418C313.484 474.629 313.643 473.942 313.32 469.486C312.989 464.905 313.057 464.708 313.643 468.563C314.053 471.263 314.853 474.474 315.421 475.706ZM250.859 474.393C250.683 476.754 250.321 478.686 250.053 478.686C249.786 478.686 249.567 476.754 249.567 474.393C249.567 472.031 249.93 470.1 250.373 470.1C250.815 470.1 251.034 472.031 250.859 474.393ZM195.852 478.686C196.853 484.065 197.401 484.065 197.401 478.686C197.401 476.325 196.878 474.423 196.239 474.457C195.3 474.513 195.225 475.32 195.852 478.686ZM244.403 480.549C244.403 484.035 245.018 487.358 245.823 488.212C246.962 489.423 246.822 490.127 245.113 491.78C243.171 493.656 242.982 492.977 242.982 484.116C242.982 478.729 243.299 474.393 243.692 474.393C244.083 474.393 244.403 477.162 244.403 480.549ZM260.414 478.046C260.414 480.201 259.48 482.073 258.338 482.206C257.195 482.335 256.366 481.034 256.493 479.317C256.84 474.655 260.414 473.495 260.414 478.046ZM99.5252 482.979C99.7008 485.34 99.4818 487.272 99.0391 487.272C98.5965 487.272 98.2339 485.34 98.2339 482.979C98.2339 480.618 98.4524 478.686 98.7199 478.686C98.9875 478.686 99.3495 480.618 99.5252 482.979ZM202.05 483.232C202.05 485.731 201.792 486.452 201.475 484.829C201.16 483.206 200.699 484.541 200.451 487.796C200.094 492.475 199.998 492.14 199.992 486.199C199.987 481.528 200.374 478.686 201.017 478.686C201.585 478.686 202.05 480.734 202.05 483.232ZM209.281 481.906C209.281 483.674 208.722 485.125 208.039 485.125C207.356 485.125 206.905 483.674 207.037 481.906C207.168 480.137 207.727 478.686 208.278 478.686C208.83 478.686 209.281 480.137 209.281 481.906ZM307.673 482.979C307.498 485.34 306.845 487.134 306.223 486.971C305.132 486.679 305.128 486.538 306.124 482.979C307.545 477.9 308.051 477.9 307.673 482.979ZM345.636 482.979C345.636 485.34 346.159 487.302 346.798 487.336C347.437 487.375 348.309 489.277 348.735 491.565C349.306 494.634 348.9 495.965 347.185 496.631C345.907 497.129 344.048 498.301 343.053 499.232C342.059 500.168 333.227 501.499 323.427 502.19C313.626 502.881 307.002 502.006 308.706 500.241C310.411 498.481 312.967 495.837 314.388 494.368C319.845 488.732 326.464 487.263 326.787 491.612C326.967 494.025 327.352 494.772 327.643 493.273C327.935 491.78 328.716 492.969 329.381 495.922C330.044 498.876 331.01 499.889 331.527 498.172C332.043 496.455 334.136 494.712 336.177 494.3C338.218 493.887 340.04 492.286 340.226 490.741C340.411 489.199 341.356 489.006 342.325 490.311C343.726 492.2 344.086 491.256 344.086 485.688C344.086 481.837 344.435 478.686 344.861 478.686C345.287 478.686 345.636 480.618 345.636 482.979ZM360.83 484.052C361.07 488.345 361.191 488.345 361.432 484.052C361.756 478.282 366.068 476.445 366.474 481.906C366.606 483.674 365.69 484.447 364.439 483.618C363.018 482.678 362.164 483.889 362.164 486.838C362.164 493.999 359.735 492.497 359.394 485.125C359.033 477.295 360.393 476.277 360.83 484.052ZM241.045 487.272C240.87 489.633 240.101 491.428 239.336 491.264C238.095 490.994 238.057 490.565 238.979 487.272C240.414 482.146 241.426 482.146 241.045 487.272ZM289.596 487.272C289.42 489.633 289.756 491.565 290.34 491.565C290.925 491.565 291.404 489.633 291.404 487.272C291.404 482.202 292.405 483.348 293.255 489.393C294.035 494.935 291.383 504.719 289.947 501.598C289.392 500.391 288.781 501.503 288.591 504.071C288.4 506.638 287.895 508.737 287.469 508.737C287.043 508.737 286.849 506.655 287.038 504.114C287.276 500.911 286.651 500.4 285.003 502.452C283.559 504.251 282.623 503.774 282.623 501.237C282.623 498.94 283.956 495.914 285.585 494.519C287.214 493.123 288.628 489.955 288.727 487.478C288.826 485.005 289.134 482.979 289.411 482.979C289.688 482.979 289.772 484.911 289.596 487.272ZM304.363 486.937C303.963 489.045 302.952 490.049 302.115 489.169C300.944 487.937 300.534 489.509 300.329 496.008C300.183 500.649 299.865 504.444 299.624 504.444C299.066 504.444 299.667 490.466 300.405 486.263C300.709 484.529 301.889 483.112 303.025 483.112C304.434 483.112 304.86 484.327 304.363 486.937ZM122.509 491.063C122.509 496.176 120.512 500.258 120.182 495.824C120.038 493.883 120.212 491.32 120.569 490.122C121.627 486.576 122.509 487.006 122.509 491.063ZM129.224 491.565C129.224 493.926 129.005 495.858 128.738 495.858C128.47 495.858 128.108 493.926 127.932 491.565C127.757 489.204 127.976 487.272 128.419 487.272C128.861 487.272 129.224 489.204 129.224 491.565ZM138.521 491.097C138.521 497.588 134.749 498.97 133.37 492.986C132.161 487.744 132.304 487.323 135.293 487.298C137.068 487.285 138.521 488.993 138.521 491.097ZM140.109 492.745C140.045 497.88 139.337 496.884 139.115 491.35C139.001 488.517 139.187 486.971 139.528 487.916C139.869 488.86 140.13 491.033 140.109 492.745ZM144.682 506.269C144.702 508.454 144.288 506.522 143.761 501.976C143.112 496.373 142.987 492.724 143.374 490.65C143.891 487.869 144.591 496.219 144.682 506.269ZM149.066 489.878C150.118 493.231 150.126 500.151 149.078 500.151C148.636 500.151 148.408 501.967 148.573 504.182C148.738 506.402 148.404 507.926 147.832 507.565C146.76 506.895 146.594 496.455 147.559 490.556C148.192 486.692 148.083 486.74 149.066 489.878ZM351.834 491.565C351.834 493.926 351.427 495.828 350.93 495.794C350.157 495.738 350.139 495.12 350.801 491.565C351.775 486.327 351.834 486.327 351.834 491.565ZM154.294 498.249C152.973 502.757 152.903 503.757 153.777 505.603C154.596 507.333 154.542 507.836 153.494 508.239C152.747 508.527 151.948 505.406 151.607 500.868C151.065 493.656 151.217 492.999 153.42 493.016C155.801 493.033 155.809 493.08 154.294 498.249ZM161.394 503.199C161.602 512.249 161.479 513.408 160.537 511.304C159.933 509.956 158.509 508.767 157.373 508.664C155.701 508.514 155.481 507.63 156.222 504.049C156.725 501.615 157.007 497.88 156.848 495.746C156.689 493.617 157.593 492.046 158.855 492.256C160.867 492.591 161.181 493.943 161.394 503.199ZM176.57 502.568C177.107 508.664 177.4 509.274 177.88 505.286C178.74 498.138 179.84 498.867 179.84 506.591C179.84 511.609 179.184 512.957 176.871 512.691C175.237 512.506 174.191 511.377 174.546 510.188C176.065 505.092 174.984 500.151 172.351 500.151C169.279 500.151 168.452 507.101 171.189 509.926C172.233 511 171.756 511.914 169.928 512.343C168.279 512.73 166.837 510.982 166.642 508.364C166.392 505.002 166.138 505.002 165.733 508.364C165.424 510.931 164.823 513.03 164.397 513.03C163.824 513.03 163.774 511.772 164.202 508.213C164.521 505.565 164.653 500.61 164.495 497.202C164.254 491.964 165.111 491.294 170.045 492.861C174.941 494.415 175.991 495.974 176.57 502.568ZM188.102 501.224C188.106 506.02 184.6 505.122 184.237 500.233C184.048 497.695 184.752 496.416 186.012 497.013C187.16 497.558 188.1 499.456 188.102 501.224ZM206.698 499.898C206.698 502.122 206.466 505.127 206.183 506.582C205.282 511.21 191.33 509.085 190.17 504.144C189.58 501.632 195.978 497.21 201.146 496.558C204.331 496.158 206.698 497.579 206.698 499.898ZM229.349 502.388C229.893 506.913 228.916 508.445 224.099 510.622C219.159 512.858 213.929 507.389 213.929 499.988C213.929 496.214 228.886 498.545 229.349 502.388ZM247.76 504.29C244.428 506.762 241.923 504.942 242.752 500.649C243.033 499.194 244.972 498.902 247.061 499.996L250.859 501.988L247.76 504.29ZM256.798 500.151C256.798 502.512 256.696 504.444 256.571 504.444C256.445 504.444 256.199 502.512 256.024 500.151C255.848 497.79 255.951 495.858 256.251 495.858C256.552 495.858 256.798 497.79 256.798 500.151ZM268.42 500.151C268.244 502.512 268.463 504.444 268.906 504.444C269.348 504.444 269.711 502.512 269.711 500.151C269.711 497.79 269.492 495.858 269.225 495.858C268.957 495.858 268.595 497.79 268.42 500.151ZM375.496 498.79C375.868 500.031 376.314 499.876 376.486 498.451C376.657 497.026 376.352 496.013 375.808 496.197C375.206 496.403 375.084 497.421 375.496 498.79ZM254.504 504.041C254.345 506.178 253.75 506.921 253.182 505.685C251.761 502.598 251.889 500.151 253.472 500.151C254.198 500.151 254.663 501.903 254.504 504.041ZM281.203 502.993C280.848 504.187 280.267 504.187 279.912 502.993C279.557 501.804 279.847 500.829 280.557 500.829C281.267 500.829 281.558 501.804 281.203 502.993ZM304.962 502.993C304.607 504.187 304.026 504.187 303.671 502.993C303.316 501.804 303.606 500.829 304.316 500.829C305.026 500.829 305.317 501.804 304.962 502.993ZM371.719 521.616C371.895 523.978 372.14 525.909 372.266 525.909C372.391 525.909 372.494 523.978 372.494 521.616C372.494 519.255 372.247 517.323 371.947 517.323C371.646 517.323 371.543 519.255 371.719 521.616ZM385.31 520.255C385.682 521.496 386.128 521.342 386.299 519.916C386.471 518.491 386.166 517.478 385.621 517.662C385.02 517.868 384.897 518.886 385.31 520.255ZM174.158 574.206C174.158 575.975 169.452 577.065 163.7 576.628C156.46 576.074 154.592 575.082 157.631 573.408C163.937 569.93 174.157 570.424 174.158 574.206ZM179.324 575.782C179.324 576.683 178.22 577.198 176.871 576.919C174.761 576.482 174.634 576.001 175.967 573.485C177.414 570.75 179.324 572.06 179.324 575.782ZM152.595 575.975C152.24 577.169 151.659 577.169 151.304 575.975C150.949 574.786 151.239 573.811 151.95 573.811C152.66 573.811 152.951 574.786 152.595 575.975ZM105.851 585.128C106.209 587.085 104.089 588.798 101.079 588.983C98.1006 589.168 95.7573 588.06 95.872 586.519C96.185 582.312 105.108 581.071 105.851 585.128ZM341.924 588.944C342.296 590.185 342.742 590.03 342.913 588.605C343.085 587.18 342.78 586.167 342.236 586.351C341.634 586.557 341.512 587.575 341.924 588.944ZM304.176 592.898C304.005 594.324 303.559 594.478 303.187 593.237C302.774 591.868 302.897 590.85 303.499 590.644C304.043 590.46 304.348 591.473 304.176 592.898ZM124.676 602.094C127.714 602.85 132.827 602.854 136.039 602.098C139.25 601.343 136.765 600.724 130.515 600.72C124.265 600.716 121.638 601.334 124.676 602.094ZM170.966 604.12C171.241 606.409 171.898 607.525 172.426 606.593C173.136 605.344 173.006 604.262 171.925 602.433C170.982 600.832 170.643 601.433 170.966 604.12ZM331.077 601.823C331.45 603.064 331.896 602.91 332.067 601.484C332.238 600.059 331.934 599.046 331.389 599.23C330.788 599.436 330.665 600.454 331.077 601.823ZM175.069 606.22C175.712 607.246 176.641 607.207 177.135 606.134C177.629 605.06 177.103 604.219 175.967 604.266C174.83 604.313 174.426 605.193 175.069 606.22ZM182.3 606.22C182.942 607.246 183.872 607.207 184.366 606.134C184.86 605.06 184.334 604.219 183.198 604.266C182.061 604.313 181.657 605.193 182.3 606.22ZM198.314 606.297C199.243 607.25 200.637 607.233 201.413 606.254C202.19 605.271 201.43 604.489 199.726 604.515C198.021 604.537 197.386 605.34 198.314 606.297ZM205.802 606.267C206.587 607.25 207.749 607.224 208.384 606.207C209.019 605.189 208.377 604.382 206.956 604.412C205.536 604.447 205.017 605.279 205.802 606.267ZM273.455 606.142C273.952 607.224 274.766 607.224 275.263 606.142C275.76 605.065 275.354 604.18 274.359 604.18C273.365 604.18 272.959 605.065 273.455 606.142ZM281.978 606.026C282.333 607.22 282.914 607.22 283.269 606.026C283.624 604.837 283.333 603.863 282.623 603.863C281.913 603.863 281.623 604.837 281.978 606.026Z" fill="black"/>
<rect x="64" y="103" width="9" height="445" fill="#FEBC2E"/>
<rect x="91" y="399" width="268" height="116" fill="black"/>
</svg>
