<svg width="1804" height="949" viewBox="0 0 1804 949" fill="none" xmlns="http://www.w3.org/2000/svg">
<path fill-rule="evenodd" clip-rule="evenodd" d="M1301.22 3.63981C1282.83 6.25745 1266.74 9.3382 1265.47 10.4926C1264.2 11.6404 1271.99 14.4795 1282.77 16.7951C1302.32 20.9967 1302.29 21.0102 1272.39 23.0774C1255.9 24.2184 1231.51 27.5274 1218.19 30.4269C1201.43 34.0782 1209.96 34.7427 1245.87 32.5814C1327.92 27.6482 1412.18 23.2855 1423.01 23.3996C1429.06 23.4667 1432.39 20.8759 1431.53 16.7951C1430.59 12.3854 1450.77 10.0832 1490.34 10.0832C1533.1 10.0832 1550.13 12.1974 1549.03 17.3723C1548.05 21.9632 1549.5 24.0842 1552.93 23.0908C1555.92 22.2183 1559.93 23.2989 1561.83 25.4937C1563.74 27.6818 1580.86 32.7023 1599.89 36.6488C1618.92 40.5954 1638.38 46.4885 1643.13 49.7437C1647.89 52.9923 1651.78 53.1534 1651.78 50.0995C1651.78 42.4748 1645.67 38.0382 1610.27 19.9228C1605.83 17.6542 1597.53 12.674 1591.82 8.86166C1579.52 0.646314 1351.16 -3.45464 1301.22 3.63981ZM598.939 10.7074C588.099 14.4459 588.41 14.748 604.128 15.7413C620.683 16.7817 625.685 13.9425 615.66 9.19054C612.805 7.83474 605.281 8.51934 598.939 10.7074ZM573.569 14.0097C571.032 15.1574 559.876 18.0368 548.776 20.4061C537.678 22.7754 528.596 26.9367 528.596 29.6618C528.596 32.3801 531.967 33.407 536.091 31.9371C541.839 29.89 542.779 30.9169 540.127 36.3535C537.498 41.7364 539.159 43.2735 547.046 42.7432C556.511 42.1123 556.816 41.6022 550.506 36.9307L543.587 31.8096L552.044 31.0109C556.694 30.5746 560.845 32.9103 561.269 36.2058C561.705 39.6088 570.49 40.0249 581.641 37.1656C602.786 31.7559 602.419 29.1718 580.488 29.0309C572.877 28.9772 569.245 27.4603 572.416 25.6548C577.864 22.5539 585.239 8.96905 580.373 10.996C579.169 11.4994 576.106 12.8552 573.569 14.0097ZM1368.78 15.0433C1360.9 16.3521 1347.41 16.3588 1338.79 15.0634C1330.18 13.7748 1336.62 12.7008 1353.11 12.6941C1369.6 12.6807 1376.65 13.7412 1368.78 15.0433ZM1400.97 14.5265C1399.38 16.3924 1396.79 16.3924 1395.2 14.5265C1393.62 12.6673 1394.91 11.1437 1398.08 11.1437C1401.26 11.1437 1402.55 12.6673 1400.97 14.5265ZM1576.25 21.2383C1574.66 23.1043 1572.07 23.1043 1570.48 21.2383C1568.9 19.3792 1570.19 17.8556 1573.37 17.8556C1576.54 17.8556 1577.84 19.3792 1576.25 21.2383ZM1592.44 21.1981C1590.88 23.0371 1587.76 23.1512 1585.52 21.4464C1583.27 19.7416 1584.55 18.2381 1588.36 18.1039C1592.16 17.9697 1594 19.359 1592.44 21.1981ZM605.281 28.1315C607.5 29.8228 611.135 29.8228 613.353 28.1315C615.572 26.4468 613.757 25.0641 609.317 25.0641C604.878 25.0641 603.063 26.4468 605.281 28.1315ZM627.191 27.9502C628.778 29.8161 631.373 29.8161 632.957 27.9502C634.544 26.091 633.246 24.5675 630.074 24.5675C626.903 24.5675 625.607 26.091 627.191 27.9502ZM185.657 39.0383C184.993 42.166 172.887 44.1057 158.754 43.3473C133.109 41.9848 88.1935 51.8647 80.6334 60.5364C78.1033 63.4359 76.8187 71.3023 77.1231 82.0211C77.642 100.264 77.9995 100.915 90.9681 107.184C101.582 112.319 102.437 123.178 92.1212 121.816C85.253 120.91 84.681 122.373 85.2898 139.287C85.871 155.449 85.1538 157.758 79.524 157.845C71.4587 157.979 68.6174 163.946 67.9808 182.095C67.568 193.901 69.0648 197.11 76.6296 200.627C88.8739 206.325 88.212 215.608 75.2573 219.856C65.0241 223.212 52.3 247.388 54.7355 258.852C55.3397 261.705 52.7198 266.034 48.912 268.47C42.9271 272.296 42.4335 274.189 45.268 282.438C47.0715 287.687 49.9199 292.029 51.5966 292.083C53.8937 292.163 53.813 293.714 51.2691 298.399C48.9051 302.748 51.6012 305.225 60.2845 306.681C72.5243 308.735 72.6742 309.017 72.8818 330.576C72.9994 342.576 72.3144 352.389 71.3642 352.389C70.414 352.389 69.6344 358.43 69.6344 365.813C69.6344 375.76 67.9923 379.472 63.292 380.149C57.7637 380.948 57.623 381.438 62.1988 383.995C68.8849 387.727 81.0462 405.99 76.8833 406.044C75.1235 406.064 74.3071 410.272 75.0174 415.662C76.8948 429.898 72.3283 437.576 57.1502 445.711C43.5705 452.987 37.7193 459.779 45.0327 459.779C47.1476 459.779 48.8774 464.31 48.8774 469.847C48.8774 477.68 45.8031 479.915 35.0394 479.915C20.1174 479.915 15.477 492.735 29.8501 494.251C35.2031 494.815 36.5224 496.272 33.3096 498.077C30.4544 499.675 28.1204 503.588 28.1204 506.776C28.1204 509.964 26.0285 514.501 23.4731 516.864C20.9177 519.22 19.4001 523.844 20.0966 527.126C20.7954 530.415 17.9563 535.966 13.7888 539.463C7.24109 544.96 8.56264 545.933 23.5077 546.631C41.2688 547.463 41.9284 554.531 25.0691 563.35C17.5943 567.257 16.6832 569.485 19.098 577.949C21.3905 585.989 22.3338 586.238 23.9251 579.23C25.4612 572.458 26.672 573.465 29.3658 583.748C32.5416 595.863 32.3917 597.52 27.5922 603.561C23.1087 609.199 24.1835 610.676 35.0394 613.83C46.4235 617.133 47.2215 618.347 42.8233 625.684C40.1295 630.18 33.3834 635.872 27.8321 638.329C10.5784 645.967 9.58434 653.967 25.814 654.578L40.8052 655.135L21.2014 676.593L1.59749 698.051L13.1292 701.407L24.6609 704.763L11.0719 713.844C1.57674 720.193 -1.54835 724.711 0.693414 728.845C2.46007 732.1 5.97954 735.02 8.51651 735.335C13.0969 735.906 13.0969 735.946 8.55803 741.108C5.24152 744.873 8.09215 747.893 18.9366 752.102C32.4817 757.35 33.019 758.122 24.6609 760.304C19.5869 761.626 14.4507 765.532 13.2445 768.975C11.8861 772.855 21.5266 775.439 38.6142 775.768C59.8994 776.177 64.7312 777.835 59.8325 783.037C56.1562 786.95 53.4901 794.803 53.4901 801.729C53.4901 811.421 49.4586 816.066 32.1864 826.268C20.4703 833.188 12.8386 839.947 15.2256 841.282C18.699 843.229 18.9227 844.9 16.3465 849.646C13.9802 854.008 14.6537 855.626 18.895 855.78C22.0662 855.894 26.1877 858.8 28.0558 862.237C31.829 869.177 30.8488 870.875 18.5721 878.654C15.2233 880.775 11.9207 886.789 11.2311 892.024C10.1794 899.984 14.1647 901.032 35.7705 898.441C54.8324 896.159 60.6605 897.273 58.1028 902.71C55.1852 908.918 55.3674 909.905 59.2559 909.005C66.9637 907.206 68.6519 909.354 65.0218 916.335C62.6693 920.858 65.9881 921.449 75.4003 918.187C92.6286 912.207 91.7476 912.14 130.752 922.503C154.655 928.852 189.695 929.886 265.673 926.496C328.74 923.677 387.865 924.644 419.045 928.993C521.803 943.35 532.025 944.357 530.556 939.94C529.733 937.464 518.316 933.799 505.186 931.799C492.059 929.805 480.329 925.47 479.125 922.181C476.122 913.972 674.716 914.61 744.757 923.033C784.933 927.866 1088.4 937.323 1193.97 937.034C1217.53 936.967 1320.26 928.483 1324.97 926.215C1328.86 924.335 1330.87 925.725 1330.03 929.711C1329.25 933.349 1329.66 936.323 1330.93 936.323C1332.2 936.323 1333.88 933.302 1334.66 929.611C1336.53 920.811 1345.04 920.912 1345.04 929.732C1345.04 937.323 1399.52 937.772 1439.31 930.517C1457.53 927.194 1463.5 928.168 1464.35 934.591C1464.96 939.236 1466.97 943.035 1468.81 943.035C1470.65 943.035 1471.52 940.014 1470.73 936.323C1469.95 932.631 1471.19 929.094 1473.48 928.463C1475.78 927.832 1479.21 926.644 1481.11 925.819C1483.02 925 1490.28 923.959 1497.26 923.51C1504.99 923.013 1508.76 920.509 1506.92 917.113C1503.92 911.589 1520.28 906.448 1566.45 898.421C1589.66 894.387 1600.16 883.366 1582.48 881.607C1576.83 881.044 1571.18 879.882 1569.91 879.023C1568.64 878.164 1557.74 876.701 1545.69 875.775L1523.78 874.077L1538.77 868.855C1547.02 865.982 1563.97 862.687 1576.44 861.539C1588.91 860.384 1599.61 857.109 1600.21 854.257C1600.82 851.404 1603.39 849.068 1605.93 849.068C1608.46 849.068 1609.98 846.444 1609.3 843.229C1608.61 839.987 1603.68 839.86 1598.21 842.94C1587.17 849.156 1576.64 850.719 1578.3 845.9C1580.52 839.43 1628.3 815.469 1631.61 819.16C1633.54 821.315 1635.64 818.422 1636.42 812.536C1637.4 805.119 1641.33 801.77 1649.98 800.991L1662.16 799.897L1649.48 795.937C1639.5 792.816 1638.11 791.118 1643 787.97C1646.41 785.762 1654.2 786.205 1660.3 788.943C1666.39 791.682 1671.62 793.313 1671.91 792.568C1672.2 791.816 1670.78 784.339 1668.76 775.942C1666.33 765.834 1664.31 762.935 1662.79 767.351C1661.27 771.774 1658.06 771.66 1653.26 767.002C1640.37 754.511 1642.41 751.699 1662.56 754.149C1676.63 755.854 1681.89 754.397 1680.77 749.115C1679.79 744.537 1681.24 741.443 1684.51 741.074C1689.25 740.537 1666.59 727.133 1648.32 719.67C1644.52 718.113 1649.19 716.341 1658.7 715.737C1668.21 715.126 1677.56 711.696 1679.46 708.119C1682.33 702.722 1682.13 701.575 1678.3 701.407C1675.77 701.293 1672.14 698.011 1670.23 694.111C1667.7 688.929 1669.72 688.164 1677.72 691.272C1692.03 696.816 1695.06 690.957 1688.45 670.499C1685.53 661.438 1684.51 654.424 1686.11 654.424C1687.68 654.424 1688.31 651.403 1687.53 647.712C1686.75 644.02 1681.75 640.953 1676.44 640.899C1671.12 640.839 1665.22 637.644 1663.31 633.791C1660.82 628.757 1663.25 628.019 1671.96 631.174C1684.28 635.624 1688.94 626.684 1678.88 617.898C1673.82 613.481 1673.81 613.213 1678.3 606.924C1681.96 601.823 1681.23 601.064 1674.79 603.293C1665.5 606.508 1655.75 592.037 1662.28 584.741C1664.33 582.459 1667.86 580.593 1670.14 580.593C1672.42 580.593 1675.57 576.063 1677.15 570.525C1679.41 562.619 1679.41 560.457 1677.19 560.457C1675.61 560.457 1674.94 555.974 1675.68 550.39C1676.53 543.919 1675.59 540.154 1673.04 539.852C1669.75 539.456 1669.87 538.442 1673.69 533.878C1677.98 528.764 1677.85 527.851 1671.81 520.924C1668.24 516.83 1663.83 513.474 1662.01 513.474C1660.19 513.474 1658.7 510.454 1658.7 506.762C1658.7 503.071 1664.67 499.755 1671.96 499.399L1685.22 498.748L1676.57 488.419C1667.2 477.223 1665.5 464.035 1672.11 453.745C1674.4 450.168 1687.89 445.1 1702.09 442.483C1716.28 439.872 1727.89 435.395 1727.89 432.536C1727.89 429.676 1725.04 424.307 1721.55 420.595C1716.24 414.957 1717.93 413.769 1731.93 413.326C1741.42 413.024 1748.65 409.89 1748.65 406.084C1748.65 402.393 1746.51 399.372 1743.9 399.372C1741.29 399.372 1739.76 396.486 1740.51 392.956C1741.26 389.425 1743.4 388.237 1745.26 390.318C1747.12 392.392 1748.65 391.258 1748.65 387.794C1748.65 384.324 1743.72 378.122 1737.69 374.008C1728.39 367.659 1731.96 366.853 1761.33 368.665L1795.93 370.807L1765.95 358.537C1713.48 337.066 1714.42 337.623 1720.97 331.911C1726.31 327.26 1726.36 326.83 1721.68 326.213C1714.65 325.28 1712.87 313.702 1719.21 310.158C1722.11 308.527 1720.17 306.829 1714.82 306.319C1709.54 305.815 1704.87 302.426 1704.44 298.788C1704.02 295.15 1691.74 289.7 1677.15 286.686C1651.17 281.317 1650.83 281.035 1660.36 272.961C1666.57 267.705 1682.75 265.262 1705.04 266.209C1737.31 267.585 1740.25 266.692 1743.26 254.671C1746.14 243.214 1750 241.375 1775.27 239.415C1798.18 237.643 1804 235.26 1804 227.669C1804 222.434 1803.1 218.152 1802 218.152C1798.75 218.152 1759.4 197.929 1754.99 194.002C1746.66 186.565 1751.42 177.853 1764.22 177.108C1777.34 176.343 1777.38 176.276 1768.25 170.786C1763.18 167.732 1750.72 164.832 1740.58 164.349C1722.5 163.477 1697.99 154.355 1704.83 151.033C1711.34 147.871 1687.55 138.602 1671.65 138.106C1657.79 137.669 1655.09 135.475 1650.43 120.829L1645.08 104.05L1654.78 103.445L1664.47 102.841L1656.58 96.2436C1652.24 92.6192 1646.8 91.1023 1644.47 92.8675C1642.15 94.6328 1640.25 93.5656 1640.25 90.4916C1640.25 87.4175 1638.43 83.5179 1636.21 81.8265C1634 80.1418 1636.85 78.0276 1642.56 77.1416L1652.93 75.524L1642.56 70.4364C1608.63 53.8178 1367.4 44.6427 1289.69 57.0194C1267.49 60.5566 1238.77 63.5232 1225.88 63.6105C1209.33 63.7313 1202.09 66.2482 1201.26 72.1681C1200.38 78.484 1199.62 78.6249 1198.17 72.7185C1196.54 66.1006 1148.65 58.4826 1144.39 64.1608C1140.22 69.7116 532.68 68.9799 491.694 63.3755C464.422 59.6437 433.286 55.4153 422.504 53.9789C411.722 52.5426 379.629 49.7907 351.19 47.8778C322.748 45.9582 289.018 42.4949 276.234 40.186C239.268 33.501 186.974 32.8365 185.657 39.0383ZM1356.14 34.8031C1357.8 36.7428 1359.79 36.5012 1360.56 34.2728C1361.32 32.0445 1359.96 30.4605 1357.53 30.7491C1354.85 31.0713 1354.3 32.662 1356.14 34.8031ZM1293.87 41.5149C1295.53 43.4547 1297.52 43.2131 1298.29 40.9847C1299.05 38.7564 1297.69 37.1724 1295.26 37.461C1292.57 37.7831 1292.03 39.3738 1293.87 41.5149ZM1312.32 41.5149C1313.98 43.4547 1315.97 43.2131 1316.74 40.9847C1317.5 38.7564 1316.14 37.1724 1313.71 37.461C1311.03 37.7831 1310.48 39.3738 1312.32 41.5149ZM571.839 55.0931C574.695 56.6905 579.363 56.6905 582.218 55.0931C585.073 53.489 582.737 52.1801 577.029 52.1801C571.321 52.1801 568.984 53.489 571.839 55.0931ZM1038.92 81.605C1037.36 83.4441 1034.24 83.5582 1032 81.8534C1029.75 80.1485 1031.03 78.6451 1034.84 78.5108C1038.64 78.3766 1040.48 79.7659 1038.92 81.605ZM1630.4 81.256C1629.63 83.4843 1627.64 83.726 1625.98 81.7862C1624.14 79.6451 1624.69 78.0544 1627.37 77.7322C1629.8 77.4436 1631.17 79.0277 1630.4 81.256ZM1286.72 93.1763C1287.51 95.465 1279.93 97.68 1269.89 98.1028C1259.85 98.5189 1225.17 100.398 1192.82 102.271C1160.47 104.15 1045.98 108.01 938.388 110.862C830.795 113.715 737.107 118.098 730.19 120.614C717.482 125.232 702.272 119.903 705.06 111.802C706.666 107.137 728.497 105.889 850.906 103.492C897.626 102.573 927.592 99.4854 927.592 95.5858C927.592 92.0688 929.052 90.8204 930.837 92.8138C935.768 98.3176 1012.57 97.3847 1068.28 91.1426C1122.74 85.0348 1284.44 86.5449 1286.72 93.1763ZM1346.96 87.2765C1345.3 92.1024 1305.77 92.6863 1304.13 87.9075C1303.37 85.7127 1312.96 83.9139 1325.44 83.9139C1337.91 83.9139 1347.59 85.4241 1346.96 87.2765ZM1355.95 87.9678C1355.18 90.1962 1353.19 90.4378 1351.53 88.4981C1349.69 86.357 1350.23 84.7663 1352.92 84.4442C1355.35 84.1555 1356.71 85.7395 1355.95 87.9678ZM1180.74 95.3711C1183.61 96.9752 1187.76 96.9148 1189.97 95.2368C1192.17 93.5588 1189.82 92.2433 1184.75 92.3172C1179.67 92.391 1177.87 93.7669 1180.74 95.3711ZM1495.74 95.6597C1496.33 98.425 1482.47 100.694 1464.94 100.694C1447.41 100.694 1432.29 98.425 1431.34 95.6597C1430.39 92.8944 1444.25 90.6258 1462.14 90.6258C1480.04 90.6258 1495.16 92.8944 1495.74 95.6597ZM1507.64 97.3377C1501.34 105.217 1499.56 105.217 1499.56 97.3377C1499.56 93.6461 1502.42 90.8406 1505.91 91.0956C1511.53 91.5185 1511.72 92.2232 1507.64 97.3377ZM1086.3 101.922C1087.96 103.862 1089.95 103.62 1090.72 101.392C1091.48 99.1633 1090.12 97.5793 1087.69 97.8679C1085 98.1901 1084.46 99.7808 1086.3 101.922ZM1100.03 102.204C1104.18 103.694 1110.4 103.667 1113.87 102.137C1117.34 100.6 1113.94 99.378 1106.33 99.4183C1098.72 99.4519 1095.89 100.707 1100.03 102.204ZM634.468 117.869C632.807 120.856 630.508 121.608 629.362 119.547C628.216 117.487 628.635 113.352 630.294 110.365C631.954 107.379 634.253 106.627 635.4 108.687C636.546 110.748 636.126 114.882 634.468 117.869ZM676.201 112.218C676.201 115.111 668.678 117.118 659.48 116.681C647.07 116.091 644.542 114.594 649.678 110.876C658.532 104.459 676.201 105.358 676.201 112.218ZM699.265 107.573C699.265 114.742 686.813 124.574 683.3 120.178C680.426 116.581 680.871 114.547 685.426 110.506C692.47 104.251 699.265 102.815 699.265 107.573ZM624.228 117.856C623.487 121.333 614.901 124.138 605.145 124.085C595.389 124.024 588.62 121.762 590.103 119.051C594.209 111.54 625.803 110.433 624.228 117.856ZM1361.8 115.164C1360.24 117.003 1357.13 117.118 1354.88 115.413C1352.64 113.708 1353.92 112.204 1357.72 112.07C1361.53 111.936 1363.36 113.325 1361.8 115.164ZM1523.2 122.212C1520.35 123.809 1515.68 123.809 1512.82 122.212C1509.97 120.608 1512.31 119.299 1518.01 119.299C1523.72 119.299 1526.06 120.608 1523.2 122.212ZM92.6978 211.44C92.6978 215.131 92.2412 218.152 91.6807 218.152C91.1203 218.152 90.0225 215.131 89.2383 211.44C88.4542 207.748 88.9131 204.728 90.2554 204.728C91.5977 204.728 92.6978 207.748 92.6978 211.44ZM29.9954 457.652C31.6583 459.591 33.6487 459.35 34.4144 457.121C35.1801 454.893 33.8193 453.309 31.3885 453.598C28.7016 453.92 28.155 455.51 29.9954 457.652ZM1669.61 571.223C1668.84 573.452 1666.85 573.693 1665.19 571.754C1663.35 569.612 1663.89 568.022 1666.58 567.7C1669.01 567.411 1670.37 568.995 1669.61 571.223ZM48.8774 587.305C48.8774 590.996 47.7773 594.017 46.435 594.017C45.0927 594.017 44.6337 590.996 45.4179 587.305C46.2021 583.613 47.2999 580.593 47.8603 580.593C48.4208 580.593 48.8774 583.613 48.8774 587.305ZM735.107 688.433C737.589 700.118 734.764 702.595 731.599 691.5C729.78 685.124 729.604 681.271 731.136 681.271C732.483 681.271 734.272 684.493 735.107 688.433ZM881.357 704.958C882.727 702.494 883.25 697.668 882.519 694.232C881.758 690.641 887.056 687.983 894.976 687.983C902.935 687.983 909.113 691.098 909.6 695.353C910.066 699.407 915.32 704.327 921.279 706.28C936.123 711.153 932.74 721.489 917.135 718.932C907.748 717.394 904.529 719.18 904.529 725.919C904.529 737.315 896.09 737.873 894.524 726.576C893.85 721.71 893.285 723.288 893.179 730.328C893.08 737.007 892.143 740.94 891.101 739.061C890.059 737.188 887.475 741.537 885.358 748.732C880.842 764.089 869.933 766.512 869.933 752.169C869.933 744.826 867.932 743.47 861.552 746.477C854.975 749.585 853.413 748.41 854.304 741.027C854.929 735.846 856.912 731.919 858.711 732.295C860.512 732.671 863.402 728.556 865.136 723.16C867.874 714.629 867.263 713.945 860.461 717.945C856.158 720.475 850.906 723.952 848.794 725.67C846.681 727.395 844.345 725.939 843.602 722.449C842.859 718.952 847.5 713.992 853.914 711.428C860.328 708.857 866.815 702.816 868.331 697.997C870.591 690.816 871.788 691.057 874.977 699.333C877.118 704.89 879.989 707.421 881.357 704.958ZM1206.66 697.292C1206.66 702.803 1192.55 705.575 1191.43 700.286C1190.78 697.212 1193.94 694.695 1198.45 694.695C1202.96 694.695 1206.66 695.863 1206.66 697.292ZM785.515 737.705C783.533 752.733 780.63 745.222 781.326 726.858C782.191 704.025 782.247 703.837 784.673 715.931C785.904 722.073 786.283 731.872 785.515 737.705ZM948.969 712.522C947.408 714.361 944.294 714.475 942.05 712.77C939.806 711.065 941.084 709.562 944.889 709.428C948.695 709.293 950.531 710.683 948.969 712.522ZM1026.76 715.173C1011.97 722.831 959.389 722.583 955.268 714.831C952.973 710.515 966.177 708.575 994.476 709.058C1023.66 709.569 1033.86 711.495 1026.76 715.173ZM1074.62 712.924C1071.13 714.462 1065.43 714.462 1061.94 712.924C1058.45 711.387 1061.3 710.132 1068.28 710.132C1075.26 710.132 1078.11 711.387 1074.62 712.924ZM1096.53 712.562C1094.95 714.428 1092.35 714.428 1090.77 712.562C1089.18 710.703 1090.48 709.179 1093.65 709.179C1096.82 709.179 1098.12 710.703 1096.53 712.562ZM1119.59 712.562C1118.01 714.428 1115.42 714.428 1113.83 712.562C1112.24 710.703 1113.54 709.179 1116.71 709.179C1119.88 709.179 1121.18 710.703 1119.59 712.562ZM726.941 718.113C726.941 727.885 718.343 748.356 714.32 748.169C709.823 747.954 709.846 747.45 714.92 735.141L720.195 722.341L710.307 719.757C701.624 717.489 702.034 717.032 713.679 716.005C720.974 715.361 726.941 716.307 726.941 718.113ZM737.847 718.885C737.082 721.113 735.091 721.355 733.428 719.415C731.588 717.274 732.134 715.683 734.821 715.361C737.252 715.072 738.613 716.656 737.847 718.885ZM879.159 721.543C879.159 725.234 880.259 728.254 881.601 728.254C882.944 728.254 883.403 725.234 882.618 721.543C881.834 717.851 880.736 714.831 880.176 714.831C879.615 714.831 879.159 717.851 879.159 721.543ZM1600.42 718.885C1599.65 721.113 1597.66 721.355 1596 719.415C1594.16 717.274 1594.7 715.683 1597.39 715.361C1599.82 715.072 1601.18 716.656 1600.42 718.885ZM1617.76 719.274C1616.18 721.14 1613.58 721.14 1612 719.274C1610.41 717.415 1611.71 715.891 1614.88 715.891C1618.05 715.891 1619.35 717.415 1617.76 719.274ZM627.143 725.596C626.377 727.825 624.387 728.066 622.724 726.127C620.884 723.986 621.43 722.395 624.117 722.073C626.548 721.784 627.909 723.368 627.143 725.596ZM691.817 729.516C691.315 733.899 689.527 738.819 687.844 740.45C686.123 742.121 685.445 740.316 686.294 736.315C687.14 732.329 685.512 727.932 682.578 726.294C678.858 724.214 679.568 723.106 685.041 722.455C690.058 721.858 692.412 724.315 691.817 729.516ZM764.995 734.966C764.156 742.665 764.58 748.39 765.994 748.39C767.348 748.39 768.455 750.907 768.455 753.981C768.455 762.7 759.077 758.532 757.031 748.9C755.615 742.235 754.086 742.034 750.251 748.007C747.525 752.249 744.174 753.706 742.801 751.236C740.034 746.256 755.599 722.952 762.267 722.086C765.438 721.677 766.102 724.811 764.995 734.966ZM1200.89 728.254C1201.68 731.946 1201.22 734.966 1199.88 734.966C1198.53 734.966 1197.43 731.946 1197.43 728.254C1197.43 724.563 1197.89 721.543 1198.45 721.543C1199.01 721.543 1200.11 724.563 1200.89 728.254ZM1222.8 724.502C1222.8 726.133 1221.77 729.328 1220.5 731.61C1219.23 733.892 1218.19 732.557 1218.19 728.651C1218.19 724.744 1219.23 721.543 1220.5 721.543C1221.77 721.543 1222.8 722.871 1222.8 724.502ZM1560.15 725.946C1558.59 727.785 1555.47 727.899 1553.23 726.194C1550.99 724.489 1552.26 722.986 1556.07 722.851C1559.87 722.717 1561.71 724.107 1560.15 725.946ZM1572.74 725.596C1571.98 727.825 1569.99 728.066 1568.32 726.127C1566.48 723.986 1567.03 722.395 1569.72 722.073C1572.15 721.784 1573.51 723.368 1572.74 725.596ZM661.21 734.966C661.994 738.658 661.535 741.678 660.193 741.678C658.851 741.678 657.75 738.658 657.75 734.966C657.75 731.275 658.207 728.254 658.768 728.254C659.328 728.254 660.426 731.275 661.21 734.966ZM933.886 732.308C933.12 734.537 931.13 734.778 929.467 732.839C927.626 730.698 928.173 729.107 930.86 728.785C933.291 728.496 934.652 730.08 933.886 732.308ZM945.418 732.308C944.652 734.537 942.662 734.778 940.999 732.839C939.158 730.698 939.705 729.107 942.392 728.785C944.822 728.496 946.183 730.08 945.418 732.308ZM966.8 738.322C966.8 743.86 967.837 748.39 969.106 748.39C970.374 748.39 971.41 744.618 971.408 740C971.403 733.772 976.468 732.174 991.042 733.785C1002.92 735.101 1010.14 738.524 1009.3 742.45C1008.55 746.014 1006.1 747.242 1003.86 745.175C1001.62 743.108 996.775 745.994 993.096 751.578C987.171 760.572 986.318 760.586 985.659 751.706C984.824 740.497 974.782 737.953 972.565 748.39C971.02 755.672 961.509 757.605 959.272 751.088C957.025 744.558 960.109 728.254 963.587 728.254C965.354 728.254 966.8 732.785 966.8 738.322ZM1178.98 738.322C1176.55 746.846 1177.06 748.39 1182.3 748.39C1185.83 748.39 1187.87 751.263 1187.05 755.102C1186.27 758.793 1183.44 761.814 1180.77 761.814C1178.09 761.814 1176.65 763.975 1177.55 766.613C1178.46 769.251 1187.61 770.479 1197.87 769.351C1214.55 767.512 1216.38 768.492 1215.06 778.54C1214.08 785.936 1214.56 788.728 1216.46 786.708C1218.05 785.01 1219.09 780.231 1218.77 776.077C1218.45 771.922 1220.85 768.526 1224.09 768.526C1227.44 768.526 1229.38 771.432 1228.57 775.238C1227.78 778.929 1228.24 781.949 1229.59 781.949C1230.93 781.949 1232.03 778.929 1232.03 775.238C1232.03 764.069 1240.65 767.72 1242.22 779.553C1243.01 785.621 1243.32 791.594 1242.9 792.829C1242.47 794.058 1231.9 795.89 1219.4 796.897C1202.8 798.233 1196.41 796.467 1195.71 790.339C1195.18 785.728 1192.69 781.949 1190.19 781.949C1187.68 781.949 1186.27 784.97 1187.05 788.661C1187.89 792.574 1185.54 795.373 1181.43 795.373C1177.55 795.373 1174.37 792.353 1174.37 788.661C1174.37 784.97 1170.53 781.949 1165.84 781.949C1156.51 781.949 1157.7 771.217 1167.45 767.418C1171.79 765.727 1173.4 760.592 1173.95 746.712C1174.39 735.396 1176.07 728.254 1178.27 728.254C1181.19 728.254 1181.33 730.107 1178.98 738.322ZM1408.46 743.732C1411 745.658 1408.14 746.927 1402.12 746.558C1396.1 746.189 1391.17 743.222 1391.17 739.973C1391.17 736.718 1393.37 736.101 1396.07 738.591C1399.81 742.047 1400.52 740.973 1399.08 734.006C1397.6 726.845 1397.91 726.536 1400.52 732.563C1402.35 736.785 1405.93 741.806 1408.46 743.732ZM1120.17 741.678C1119.39 745.37 1117.77 748.39 1116.58 748.39C1115.38 748.39 1114.41 745.37 1114.41 741.678C1114.41 737.987 1116.02 734.966 1118 734.966C1119.98 734.966 1120.96 737.987 1120.17 741.678ZM874.546 748.39C879.018 756.8 881.465 756.8 881.465 748.39C881.465 744.699 879.129 741.725 876.276 741.779C872.081 741.866 871.749 743.128 874.546 748.39ZM1091.34 751.303C1091.34 756.753 1094.09 761.948 1097.68 763.284C1102.77 765.176 1102.14 766.277 1094.51 768.861C1085.84 771.794 1085 770.734 1085 756.881C1085 748.457 1086.41 741.678 1088.17 741.678C1089.91 741.678 1091.34 746.007 1091.34 751.303ZM1162.84 747.39C1162.84 750.759 1158.67 753.686 1153.57 753.894C1148.47 754.095 1144.76 752.061 1145.33 749.377C1146.88 742.088 1162.84 740.275 1162.84 747.39ZM444.414 755.102C445.198 758.793 444.221 761.814 442.244 761.814C440.267 761.814 438.648 758.793 438.648 755.102C438.648 751.41 439.624 748.39 440.819 748.39C442.013 748.39 443.63 751.41 444.414 755.102ZM902.222 755.498C902.222 759.404 901.069 760.532 899.658 757.995C898.248 755.458 896.189 757.545 895.082 762.633C893.488 769.949 893.059 769.425 893.031 760.136C893.011 752.833 894.74 748.39 897.609 748.39C900.146 748.39 902.222 751.592 902.222 755.498ZM934.511 753.424C934.511 756.189 932.015 758.458 928.964 758.458C925.915 758.458 923.902 756.189 924.49 753.424C925.076 750.659 927.571 748.39 930.034 748.39C932.498 748.39 934.511 750.659 934.511 753.424ZM1373.87 755.102C1373.08 758.793 1370.17 761.599 1367.39 761.344C1362.52 760.888 1362.5 760.666 1366.95 755.102C1373.3 747.162 1375.55 747.162 1373.87 755.102ZM1543.38 755.102C1543.38 758.793 1545.72 761.861 1548.57 761.914C1551.43 761.975 1555.32 764.948 1557.22 768.526C1559.77 773.325 1557.96 775.405 1550.3 776.446C1544.59 777.224 1536.29 779.057 1531.85 780.513C1527.41 781.976 1487.97 784.057 1444.21 785.138C1400.45 786.218 1370.87 784.849 1378.48 782.09C1386.09 779.338 1397.51 775.204 1403.85 772.909C1428.22 764.096 1457.77 761.8 1459.22 768.6C1460.02 772.372 1461.74 773.539 1463.04 771.197C1464.34 768.861 1467.83 770.72 1470.8 775.338C1473.76 779.956 1478.08 781.54 1480.38 778.855C1482.69 776.171 1492.03 773.445 1501.15 772.801C1510.26 772.157 1518.39 769.653 1519.22 767.237C1520.05 764.827 1524.27 764.525 1528.6 766.566C1534.86 769.519 1536.46 768.042 1536.46 759.337C1536.46 753.317 1538.02 748.39 1539.92 748.39C1541.83 748.39 1543.38 751.41 1543.38 755.102ZM1611.23 756.78C1612.3 763.492 1612.84 763.492 1613.92 756.78C1615.37 747.759 1634.62 744.886 1636.44 753.424C1637.02 756.189 1632.93 757.397 1627.35 756.102C1621 754.632 1617.19 756.525 1617.19 761.136C1617.19 772.331 1606.34 769.982 1604.82 758.458C1603.21 746.215 1609.28 744.625 1611.23 756.78ZM1076.35 761.814C1075.57 765.505 1072.13 768.311 1068.72 768.056C1063.18 767.633 1063.01 766.962 1067.13 761.814C1073.53 753.8 1078.05 753.8 1076.35 761.814ZM1293.15 761.814C1292.36 765.505 1293.86 768.526 1296.47 768.526C1299.08 768.526 1301.22 765.505 1301.22 761.814C1301.22 753.887 1305.69 755.679 1309.48 765.13C1312.97 773.795 1301.13 789.091 1294.71 784.211C1292.24 782.325 1289.51 784.064 1288.66 788.077C1287.8 792.091 1285.55 795.373 1283.65 795.373C1281.75 795.373 1280.88 792.118 1281.73 788.145C1282.79 783.138 1280 782.339 1272.64 785.547C1266.19 788.359 1262.01 787.614 1262.01 783.648C1262.01 780.057 1267.96 775.325 1275.24 773.143C1282.51 770.962 1288.82 766.009 1289.26 762.136C1289.71 758.27 1291.08 755.102 1292.32 755.102C1293.56 755.102 1293.93 758.122 1293.15 761.814ZM1359.09 761.29C1357.3 764.586 1352.78 766.156 1349.05 764.78C1343.82 762.854 1341.99 765.311 1341.07 775.473C1340.42 782.728 1339 788.661 1337.92 788.661C1335.43 788.661 1338.12 766.807 1341.41 760.237C1342.77 757.525 1348.04 755.31 1353.11 755.31C1359.41 755.31 1361.31 757.209 1359.09 761.29ZM547.046 767.74C547.046 775.734 538.13 782.117 536.656 775.184C536.013 772.15 536.79 768.143 538.384 766.271C543.107 760.726 547.046 761.398 547.046 767.74ZM577.029 768.526C577.029 772.217 576.053 775.238 574.858 775.238C573.664 775.238 572.047 772.217 571.263 768.526C570.479 764.834 571.457 761.814 573.433 761.814C575.41 761.814 577.029 764.834 577.029 768.526ZM618.543 767.794C618.543 777.943 601.702 780.104 595.542 770.747C590.145 762.552 590.781 761.894 604.128 761.854C612.057 761.834 618.543 764.505 618.543 767.794ZM625.635 770.371C625.349 778.399 622.187 776.842 621.195 768.19C620.688 763.76 621.518 761.344 623.04 762.821C624.562 764.297 625.729 767.693 625.635 770.371ZM646.057 791.514C646.145 794.93 644.295 791.91 641.943 784.802C639.044 776.043 638.486 770.338 640.213 767.096C642.522 762.747 645.647 775.801 646.057 791.514ZM665.633 765.888C670.327 771.13 670.364 781.949 665.687 781.949C663.71 781.949 662.693 784.789 663.431 788.252C664.167 791.722 662.677 794.105 660.119 793.541C655.336 792.494 654.591 776.171 658.904 766.948C661.729 760.908 661.242 760.981 665.633 765.888ZM1571.06 768.526C1571.06 772.217 1569.24 775.191 1567.02 775.137C1563.57 775.05 1563.49 774.083 1566.45 768.526C1570.8 760.337 1571.06 760.337 1571.06 768.526ZM688.976 778.976C683.076 786.024 682.763 787.587 686.67 790.474C690.325 793.178 690.083 793.964 685.406 794.595C682.066 795.044 678.501 790.165 676.976 783.07C674.557 771.794 675.237 770.767 685.071 770.794C695.706 770.821 695.74 770.895 688.976 778.976ZM720.679 786.715C721.608 800.864 721.062 802.676 716.855 799.387C714.157 797.279 707.798 795.42 702.724 795.259C695.258 795.024 694.278 793.642 697.583 788.044C699.83 784.238 701.089 778.399 700.381 775.063C699.673 771.734 703.707 769.277 709.343 769.606C718.326 770.13 719.729 772.244 720.679 786.715ZM788.448 785.728C790.845 795.259 792.152 796.212 794.295 789.977C798.135 778.802 803.05 779.943 803.05 792.017C803.05 799.864 800.121 801.971 789.788 801.555C782.493 801.266 777.825 799.501 779.41 797.642C786.19 789.675 781.363 781.949 769.608 781.949C755.887 781.949 752.197 792.816 764.419 797.232C769.08 798.91 766.951 800.34 758.789 801.011C751.422 801.615 744.983 798.883 744.114 794.789C742.997 789.534 741.863 789.534 740.057 794.789C738.678 798.803 735.993 802.085 734.09 802.085C731.532 802.085 731.306 800.119 733.218 794.554C734.641 790.413 735.232 782.668 734.528 777.338C733.449 769.15 737.28 768.103 759.308 770.553C781.172 772.982 785.861 775.419 788.448 785.728ZM839.94 783.627C839.958 791.125 824.305 789.722 822.681 782.077C821.837 778.11 824.981 776.11 830.606 777.043C835.733 777.895 839.933 780.862 839.94 783.627ZM922.979 781.553C922.979 785.03 921.944 789.729 920.68 792.004C916.655 799.239 854.356 795.917 849.176 788.191C846.543 784.265 875.111 777.352 898.186 776.332C912.407 775.707 922.979 777.929 922.979 781.553ZM1024.12 785.446C1026.55 792.521 1022.19 794.917 1000.68 798.32C978.62 801.817 955.268 793.266 955.268 781.694C955.268 775.795 1022.06 779.439 1024.12 785.446ZM1106.33 788.42C1091.45 792.286 1080.27 789.44 1083.97 782.728C1085.23 780.453 1093.89 779.996 1103.21 781.708L1120.17 784.822L1106.33 788.42ZM1146.69 781.949C1146.69 785.641 1146.24 788.661 1145.68 788.661C1145.12 788.661 1144.02 785.641 1143.23 781.949C1142.45 778.258 1142.91 775.238 1144.25 775.238C1145.59 775.238 1146.69 778.258 1146.69 781.949ZM1198.59 781.949C1197.8 785.641 1198.78 788.661 1200.76 788.661C1202.73 788.661 1204.35 785.641 1204.35 781.949C1204.35 778.258 1203.38 775.238 1202.18 775.238C1200.99 775.238 1199.37 778.258 1198.59 781.949ZM1676.72 779.822C1678.38 781.762 1680.37 781.52 1681.14 779.292C1681.9 777.063 1680.54 775.479 1678.11 775.768C1675.43 776.09 1674.88 777.681 1676.72 779.822ZM1136.45 788.03C1135.74 791.373 1133.08 792.534 1130.55 790.601C1124.2 785.775 1124.77 781.949 1131.84 781.949C1135.08 781.949 1137.16 784.688 1136.45 788.03ZM1255.67 786.393C1254.08 788.259 1251.49 788.259 1249.9 786.393C1248.32 784.534 1249.61 783.01 1252.79 783.01C1255.96 783.01 1257.26 784.534 1255.67 786.393ZM1361.76 786.393C1360.18 788.259 1357.58 788.259 1355.99 786.393C1354.41 784.534 1355.71 783.01 1358.88 783.01C1362.05 783.01 1363.35 784.534 1361.76 786.393ZM1659.85 815.509C1660.64 819.2 1661.74 822.221 1662.3 822.221C1662.86 822.221 1663.31 819.2 1663.31 815.509C1663.31 811.817 1662.21 808.797 1660.87 808.797C1659.53 808.797 1659.07 811.817 1659.85 815.509ZM1720.54 813.381C1722.2 815.321 1724.19 815.079 1724.96 812.851C1725.73 810.623 1724.36 809.039 1721.93 809.327C1719.25 809.649 1718.7 811.24 1720.54 813.381ZM777.675 897.729C777.678 900.495 756.662 902.199 730.977 901.515C698.646 900.649 690.307 899.099 703.877 896.481C732.038 891.044 777.671 891.816 777.675 897.729ZM800.743 900.193C800.743 901.602 795.815 902.408 789.788 901.971C780.367 901.287 779.802 900.535 785.752 896.602C792.217 892.326 800.743 894.373 800.743 900.193ZM681.39 900.495C679.806 902.361 677.211 902.361 675.625 900.495C674.04 898.635 675.336 897.112 678.508 897.112C681.679 897.112 682.977 898.635 681.39 900.495ZM472.66 914.804C474.258 917.865 464.795 920.543 451.354 920.832C438.053 921.12 427.59 919.389 428.102 916.979C429.499 910.401 469.343 908.462 472.66 914.804ZM1526.81 920.771C1528.47 922.711 1530.46 922.469 1531.23 920.241C1531.99 918.013 1530.63 916.429 1528.2 916.717C1525.51 917.039 1524.97 918.63 1526.81 920.771ZM1358.25 926.953C1357.49 929.181 1355.5 929.423 1353.83 927.483C1351.99 925.342 1352.54 923.751 1355.23 923.429C1357.66 923.14 1359.02 924.725 1358.25 926.953ZM556.721 941.33C570.287 942.511 593.12 942.518 607.461 941.336C621.802 940.155 610.701 939.189 582.794 939.182C554.888 939.175 543.155 940.142 556.721 941.33ZM763.422 944.498C764.651 948.075 767.585 949.82 769.94 948.364C773.111 946.411 772.53 944.719 767.703 941.86C763.494 939.356 761.978 940.296 763.422 944.498ZM1478.38 940.907C1480.04 942.847 1482.03 942.605 1482.79 940.377C1483.56 938.148 1482.2 936.564 1479.77 936.853C1477.08 937.175 1476.53 938.766 1478.38 940.907ZM781.744 947.78C784.613 949.384 788.764 949.324 790.969 947.646C793.174 945.968 790.826 944.652 785.752 944.726C780.678 944.8 778.875 946.176 781.744 947.78ZM814.032 947.78C816.902 949.384 821.053 949.324 823.258 947.646C825.463 945.968 823.115 944.652 818.041 944.726C812.967 944.8 811.163 946.176 814.032 947.78ZM885.543 947.901C889.687 949.391 895.914 949.364 899.381 947.833C902.847 946.296 899.455 945.075 891.844 945.115C884.233 945.149 881.398 946.404 885.543 947.901ZM918.975 947.854C922.481 949.391 927.67 949.35 930.507 947.76C933.344 946.169 930.475 944.907 924.132 944.954C917.79 945.008 915.47 946.31 918.975 947.854ZM1221.07 947.659C1223.29 949.35 1226.93 949.35 1229.15 947.659C1231.36 945.974 1229.55 944.592 1225.11 944.592C1220.67 944.592 1218.85 945.974 1221.07 947.659ZM1259.13 947.478C1260.71 949.344 1263.31 949.344 1264.89 947.478C1266.48 945.619 1265.18 944.095 1262.01 944.095C1258.84 944.095 1257.54 945.619 1259.13 947.478Z" fill="black"/>
<rect x="191" y="126" width="21" height="724" fill="#FFCF07"/>
</svg>
