<svg width="1812" height="957" viewBox="0 0 1812 957" fill="none" xmlns="http://www.w3.org/2000/svg">
<g filter="url(#filter0_d_119_9)">
<path fill-rule="evenodd" clip-rule="evenodd" d="M1305.22 3.63981C1286.83 6.25745 1270.74 9.3382 1269.47 10.4926C1268.2 11.6404 1275.99 14.4795 1286.77 16.7951C1306.32 20.9967 1306.29 21.0102 1276.39 23.0774C1259.9 24.2184 1235.51 27.5274 1222.19 30.4269C1205.43 34.0782 1213.96 34.7427 1249.87 32.5814C1331.92 27.6482 1416.18 23.2855 1427.01 23.3996C1433.06 23.4667 1436.39 20.8759 1435.53 16.7951C1434.59 12.3854 1454.77 10.0832 1494.34 10.0832C1537.1 10.0832 1554.13 12.1974 1553.03 17.3723C1552.05 21.9632 1553.5 24.0842 1556.93 23.0908C1559.92 22.2183 1563.93 23.2989 1565.83 25.4937C1567.74 27.6818 1584.86 32.7023 1603.89 36.6488C1622.92 40.5954 1642.38 46.4885 1647.13 49.7437C1651.89 52.9923 1655.78 53.1534 1655.78 50.0995C1655.78 42.4748 1649.67 38.0382 1614.27 19.9228C1609.83 17.6542 1601.53 12.674 1595.82 8.86166C1583.52 0.646314 1355.16 -3.45464 1305.22 3.63981ZM602.939 10.7074C592.099 14.4459 592.41 14.748 608.128 15.7413C624.683 16.7817 629.685 13.9425 619.66 9.19054C616.805 7.83474 609.281 8.51934 602.939 10.7074ZM577.569 14.0097C575.032 15.1574 563.876 18.0368 552.776 20.4061C541.678 22.7754 532.596 26.9367 532.596 29.6618C532.596 32.3801 535.967 33.407 540.091 31.9371C545.839 29.89 546.779 30.9169 544.127 36.3535C541.498 41.7364 543.159 43.2735 551.046 42.7432C560.511 42.1123 560.816 41.6022 554.506 36.9307L547.587 31.8096L556.044 31.0109C560.694 30.5746 564.845 32.9103 565.269 36.2058C565.705 39.6088 574.49 40.0249 585.641 37.1656C606.786 31.7559 606.419 29.1718 584.488 29.0309C576.877 28.9772 573.245 27.4603 576.416 25.6548C581.864 22.5539 589.239 8.96905 584.373 10.996C583.169 11.4994 580.106 12.8552 577.569 14.0097ZM1372.78 15.0433C1364.9 16.3521 1351.41 16.3588 1342.79 15.0634C1334.18 13.7748 1340.62 12.7008 1357.11 12.6941C1373.6 12.6807 1380.65 13.7412 1372.78 15.0433ZM1404.97 14.5265C1403.38 16.3924 1400.79 16.3924 1399.2 14.5265C1397.62 12.6673 1398.91 11.1437 1402.08 11.1437C1405.26 11.1437 1406.55 12.6673 1404.97 14.5265ZM1580.25 21.2383C1578.66 23.1043 1576.07 23.1043 1574.48 21.2383C1572.9 19.3792 1574.19 17.8556 1577.37 17.8556C1580.54 17.8556 1581.84 19.3792 1580.25 21.2383ZM1596.44 21.1981C1594.88 23.0371 1591.76 23.1512 1589.52 21.4464C1587.27 19.7416 1588.55 18.2381 1592.36 18.1039C1596.16 17.9697 1598 19.359 1596.44 21.1981ZM609.281 28.1315C611.5 29.8228 615.135 29.8228 617.353 28.1315C619.572 26.4468 617.757 25.0641 613.317 25.0641C608.878 25.0641 607.063 26.4468 609.281 28.1315ZM631.191 27.9502C632.778 29.8161 635.373 29.8161 636.957 27.9502C638.544 26.091 637.246 24.5675 634.074 24.5675C630.903 24.5675 629.607 26.091 631.191 27.9502ZM189.657 39.0383C188.993 42.166 176.887 44.1057 162.754 43.3473C137.109 41.9848 92.1935 51.8647 84.6334 60.5364C82.1033 63.4359 80.8187 71.3023 81.1231 82.0211C81.642 100.264 81.9995 100.915 94.9681 107.184C105.582 112.319 106.437 123.178 96.1212 121.816C89.253 120.91 88.681 122.373 89.2898 139.287C89.871 155.449 89.1538 157.758 83.524 157.845C75.4587 157.979 72.6174 163.946 71.9808 182.095C71.568 193.901 73.0648 197.11 80.6296 200.627C92.8739 206.325 92.212 215.608 79.2573 219.856C69.0241 223.212 56.3 247.388 58.7355 258.852C59.3397 261.705 56.7198 266.034 52.912 268.47C46.9271 272.296 46.4335 274.189 49.268 282.438C51.0715 287.687 53.9199 292.029 55.5966 292.083C57.8937 292.163 57.813 293.714 55.2691 298.399C52.9051 302.748 55.6012 305.225 64.2845 306.681C76.5243 308.735 76.6742 309.017 76.8818 330.576C76.9994 342.576 76.3144 352.389 75.3642 352.389C74.414 352.389 73.6344 358.43 73.6344 365.813C73.6344 375.76 71.9923 379.472 67.292 380.149C61.7637 380.948 61.623 381.438 66.1988 383.995C72.8849 387.727 85.0462 405.99 80.8833 406.044C79.1235 406.064 78.3071 410.272 79.0174 415.662C80.8948 429.898 76.3283 437.576 61.1502 445.711C47.5705 452.987 41.7193 459.779 49.0327 459.779C51.1476 459.779 52.8774 464.31 52.8774 469.847C52.8774 477.68 49.8031 479.915 39.0394 479.915C24.1174 479.915 19.477 492.735 33.8501 494.251C39.2031 494.815 40.5224 496.272 37.3096 498.077C34.4544 499.675 32.1204 503.588 32.1204 506.776C32.1204 509.964 30.0285 514.501 27.4731 516.864C24.9177 519.22 23.4001 523.844 24.0966 527.126C24.7954 530.415 21.9563 535.966 17.7888 539.463C11.2411 544.96 12.5626 545.933 27.5077 546.631C45.2688 547.463 45.9284 554.531 29.0691 563.35C21.5943 567.257 20.6832 569.485 23.098 577.949C25.3905 585.989 26.3338 586.238 27.9251 579.23C29.4612 572.458 30.672 573.465 33.3658 583.748C36.5416 595.863 36.3917 597.52 31.5922 603.561C27.1087 609.199 28.1835 610.676 39.0394 613.83C50.4235 617.133 51.2215 618.347 46.8233 625.684C44.1295 630.18 37.3834 635.872 31.8321 638.329C14.5784 645.967 13.5843 653.967 29.814 654.578L44.8052 655.135L25.2014 676.593L5.59749 698.051L17.1292 701.407L28.6609 704.763L15.0719 713.844C5.57674 720.193 2.45165 724.711 4.69341 728.845C6.46007 732.1 9.97954 735.02 12.5165 735.335C17.0969 735.906 17.0969 735.946 12.558 741.108C9.24152 744.873 12.0922 747.893 22.9366 752.102C36.4817 757.35 37.019 758.122 28.6609 760.304C23.5869 761.626 18.4507 765.532 17.2445 768.975C15.8861 772.855 25.5266 775.439 42.6142 775.768C63.8994 776.177 68.7312 777.835 63.8325 783.037C60.1562 786.95 57.4901 794.803 57.4901 801.729C57.4901 811.421 53.4586 816.066 36.1864 826.268C24.4703 833.188 16.8386 839.947 19.2256 841.282C22.699 843.229 22.9227 844.9 20.3465 849.646C17.9802 854.008 18.6537 855.626 22.895 855.78C26.0662 855.894 30.1877 858.8 32.0558 862.237C35.829 869.177 34.8488 870.875 22.5721 878.654C19.2233 880.775 15.9207 886.789 15.2311 892.024C14.1794 899.984 18.1647 901.032 39.7705 898.441C58.8324 896.159 64.6605 897.273 62.1028 902.71C59.1852 908.918 59.3674 909.905 63.2559 909.005C70.9637 907.206 72.6519 909.354 69.0218 916.335C66.6693 920.858 69.9881 921.449 79.4003 918.187C96.6286 912.207 95.7476 912.14 134.752 922.503C158.655 928.852 193.695 929.886 269.673 926.496C332.74 923.677 391.865 924.644 423.045 928.993C525.803 943.35 536.025 944.357 534.556 939.94C533.733 937.464 522.316 933.799 509.186 931.799C496.059 929.805 484.329 925.47 483.125 922.181C480.122 913.972 678.716 914.61 748.757 923.033C788.933 927.866 1092.4 937.323 1197.97 937.034C1221.53 936.967 1324.26 928.483 1328.97 926.215C1332.86 924.335 1334.87 925.725 1334.03 929.711C1333.25 933.349 1333.66 936.323 1334.93 936.323C1336.2 936.323 1337.88 933.302 1338.66 929.611C1340.53 920.811 1349.04 920.912 1349.04 929.732C1349.04 937.323 1403.52 937.772 1443.31 930.517C1461.53 927.194 1467.5 928.168 1468.35 934.591C1468.96 939.236 1470.97 943.035 1472.81 943.035C1474.65 943.035 1475.52 940.014 1474.73 936.323C1473.95 932.631 1475.19 929.094 1477.48 928.463C1479.78 927.832 1483.21 926.644 1485.11 925.819C1487.02 925 1494.28 923.959 1501.26 923.51C1508.99 923.013 1512.76 920.509 1510.92 917.113C1507.92 911.589 1524.28 906.448 1570.45 898.421C1593.66 894.387 1604.16 883.366 1586.48 881.607C1580.83 881.044 1575.18 879.882 1573.91 879.023C1572.64 878.164 1561.74 876.701 1549.69 875.775L1527.78 874.077L1542.77 868.855C1551.02 865.982 1567.97 862.687 1580.44 861.539C1592.91 860.384 1603.61 857.109 1604.21 854.257C1604.82 851.404 1607.39 849.068 1609.93 849.068C1612.46 849.068 1613.98 846.444 1613.3 843.229C1612.61 839.987 1607.68 839.86 1602.21 842.94C1591.17 849.156 1580.64 850.719 1582.3 845.9C1584.52 839.43 1632.3 815.469 1635.61 819.16C1637.54 821.315 1639.64 818.422 1640.42 812.536C1641.4 805.119 1645.33 801.77 1653.98 800.991L1666.16 799.897L1653.48 795.937C1643.5 792.816 1642.11 791.118 1647 787.97C1650.41 785.762 1658.2 786.205 1664.3 788.943C1670.39 791.682 1675.62 793.313 1675.91 792.568C1676.2 791.816 1674.78 784.339 1672.76 775.942C1670.33 765.834 1668.31 762.935 1666.79 767.351C1665.27 771.774 1662.06 771.66 1657.26 767.002C1644.37 754.511 1646.41 751.699 1666.56 754.149C1680.63 755.854 1685.89 754.397 1684.77 749.115C1683.79 744.537 1685.24 741.443 1688.51 741.074C1693.25 740.537 1670.59 727.133 1652.32 719.67C1648.52 718.113 1653.19 716.341 1662.7 715.737C1672.21 715.126 1681.56 711.696 1683.46 708.119C1686.33 702.722 1686.13 701.575 1682.3 701.407C1679.77 701.293 1676.14 698.011 1674.23 694.111C1671.7 688.929 1673.72 688.164 1681.72 691.272C1696.03 696.816 1699.06 690.957 1692.45 670.499C1689.53 661.438 1688.51 654.424 1690.11 654.424C1691.68 654.424 1692.31 651.403 1691.53 647.712C1690.75 644.02 1685.75 640.953 1680.44 640.899C1675.12 640.839 1669.22 637.644 1667.31 633.791C1664.82 628.757 1667.25 628.019 1675.96 631.174C1688.28 635.624 1692.94 626.684 1682.88 617.898C1677.82 613.481 1677.81 613.213 1682.3 606.924C1685.96 601.823 1685.23 601.064 1678.79 603.293C1669.5 606.508 1659.75 592.037 1666.28 584.741C1668.33 582.459 1671.86 580.593 1674.14 580.593C1676.42 580.593 1679.57 576.063 1681.15 570.525C1683.41 562.619 1683.41 560.457 1681.19 560.457C1679.61 560.457 1678.94 555.974 1679.68 550.39C1680.53 543.919 1679.59 540.154 1677.04 539.852C1673.75 539.456 1673.87 538.442 1677.69 533.878C1681.98 528.764 1681.85 527.851 1675.81 520.924C1672.24 516.83 1667.83 513.474 1666.01 513.474C1664.19 513.474 1662.7 510.454 1662.7 506.762C1662.7 503.071 1668.67 499.755 1675.96 499.399L1689.22 498.748L1680.57 488.419C1671.2 477.223 1669.5 464.035 1676.11 453.745C1678.4 450.168 1691.89 445.1 1706.09 442.483C1720.28 439.872 1731.89 435.395 1731.89 432.536C1731.89 429.676 1729.04 424.307 1725.55 420.595C1720.24 414.957 1721.93 413.769 1735.93 413.326C1745.42 413.024 1752.65 409.89 1752.65 406.084C1752.65 402.393 1750.51 399.372 1747.9 399.372C1745.29 399.372 1743.76 396.486 1744.51 392.956C1745.26 389.425 1747.4 388.237 1749.26 390.318C1751.12 392.392 1752.65 391.258 1752.65 387.794C1752.65 384.324 1747.72 378.122 1741.69 374.008C1732.39 367.659 1735.96 366.853 1765.33 368.665L1799.93 370.807L1769.95 358.537C1717.48 337.066 1718.42 337.623 1724.97 331.911C1730.31 327.26 1730.36 326.83 1725.68 326.213C1718.65 325.28 1716.87 313.702 1723.21 310.158C1726.11 308.527 1724.17 306.829 1718.82 306.319C1713.54 305.815 1708.87 302.426 1708.44 298.788C1708.02 295.15 1695.74 289.7 1681.15 286.686C1655.17 281.317 1654.83 281.035 1664.36 272.961C1670.57 267.705 1686.75 265.262 1709.04 266.209C1741.31 267.585 1744.25 266.692 1747.26 254.671C1750.14 243.214 1754 241.375 1779.27 239.415C1802.18 237.643 1808 235.26 1808 227.669C1808 222.434 1807.1 218.152 1806 218.152C1802.75 218.152 1763.4 197.929 1758.99 194.002C1750.66 186.565 1755.42 177.853 1768.22 177.108C1781.34 176.343 1781.38 176.276 1772.25 170.786C1767.18 167.732 1754.72 164.832 1744.58 164.349C1726.5 163.477 1701.99 154.355 1708.83 151.033C1715.34 147.871 1691.55 138.602 1675.65 138.106C1661.79 137.669 1659.09 135.475 1654.43 120.829L1649.08 104.05L1658.78 103.445L1668.47 102.841L1660.58 96.2436C1656.24 92.6192 1650.8 91.1023 1648.47 92.8675C1646.15 94.6328 1644.25 93.5656 1644.25 90.4916C1644.25 87.4175 1642.43 83.5179 1640.21 81.8265C1638 80.1418 1640.85 78.0276 1646.56 77.1416L1656.93 75.524L1646.56 70.4364C1612.63 53.8178 1371.4 44.6427 1293.69 57.0194C1271.49 60.5566 1242.77 63.5232 1229.88 63.6105C1213.33 63.7313 1206.09 66.2482 1205.26 72.1681C1204.38 78.484 1203.62 78.6249 1202.17 72.7185C1200.54 66.1006 1152.65 58.4826 1148.39 64.1608C1144.22 69.7116 536.68 68.9799 495.694 63.3755C468.422 59.6437 437.286 55.4153 426.504 53.9789C415.722 52.5426 383.629 49.7907 355.19 47.8778C326.748 45.9582 293.018 42.4949 280.234 40.186C243.268 33.501 190.974 32.8365 189.657 39.0383ZM1360.14 34.8031C1361.8 36.7428 1363.79 36.5012 1364.56 34.2728C1365.32 32.0445 1363.96 30.4605 1361.53 30.7491C1358.85 31.0713 1358.3 32.662 1360.14 34.8031ZM1297.87 41.5149C1299.53 43.4547 1301.52 43.2131 1302.29 40.9847C1303.05 38.7564 1301.69 37.1724 1299.26 37.461C1296.57 37.7831 1296.03 39.3738 1297.87 41.5149ZM1316.32 41.5149C1317.98 43.4547 1319.97 43.2131 1320.74 40.9847C1321.5 38.7564 1320.14 37.1724 1317.71 37.461C1315.03 37.7831 1314.48 39.3738 1316.32 41.5149ZM575.839 55.0931C578.695 56.6905 583.363 56.6905 586.218 55.0931C589.073 53.489 586.737 52.1801 581.029 52.1801C575.321 52.1801 572.984 53.489 575.839 55.0931ZM1042.92 81.605C1041.36 83.4441 1038.24 83.5582 1036 81.8534C1033.75 80.1485 1035.03 78.6451 1038.84 78.5108C1042.64 78.3766 1044.48 79.7659 1042.92 81.605ZM1634.4 81.256C1633.63 83.4843 1631.64 83.726 1629.98 81.7862C1628.14 79.6451 1628.69 78.0544 1631.37 77.7322C1633.8 77.4436 1635.17 79.0277 1634.4 81.256ZM1290.72 93.1763C1291.51 95.465 1283.93 97.68 1273.89 98.1028C1263.85 98.5189 1229.17 100.398 1196.82 102.271C1164.47 104.15 1049.98 108.01 942.388 110.862C834.795 113.715 741.107 118.098 734.19 120.614C721.482 125.232 706.272 119.903 709.06 111.802C710.666 107.137 732.497 105.889 854.906 103.492C901.626 102.573 931.592 99.4854 931.592 95.5858C931.592 92.0688 933.052 90.8204 934.837 92.8138C939.768 98.3176 1016.57 97.3847 1072.28 91.1426C1126.74 85.0348 1288.44 86.5449 1290.72 93.1763ZM1350.96 87.2765C1349.3 92.1024 1309.77 92.6863 1308.13 87.9075C1307.37 85.7127 1316.96 83.9139 1329.44 83.9139C1341.91 83.9139 1351.59 85.4241 1350.96 87.2765ZM1359.95 87.9678C1359.18 90.1962 1357.19 90.4378 1355.53 88.4981C1353.69 86.357 1354.23 84.7663 1356.92 84.4442C1359.35 84.1555 1360.71 85.7395 1359.95 87.9678ZM1184.74 95.3711C1187.61 96.9752 1191.76 96.9148 1193.97 95.2368C1196.17 93.5588 1193.82 92.2433 1188.75 92.3172C1183.67 92.391 1181.87 93.7669 1184.74 95.3711ZM1499.74 95.6597C1500.33 98.425 1486.47 100.694 1468.94 100.694C1451.41 100.694 1436.29 98.425 1435.34 95.6597C1434.39 92.8944 1448.25 90.6258 1466.14 90.6258C1484.04 90.6258 1499.16 92.8944 1499.74 95.6597ZM1511.64 97.3377C1505.34 105.217 1503.56 105.217 1503.56 97.3377C1503.56 93.6461 1506.42 90.8406 1509.91 91.0956C1515.53 91.5185 1515.72 92.2232 1511.64 97.3377ZM1090.3 101.922C1091.96 103.862 1093.95 103.62 1094.72 101.392C1095.48 99.1633 1094.12 97.5793 1091.69 97.8679C1089 98.1901 1088.46 99.7808 1090.3 101.922ZM1104.03 102.204C1108.18 103.694 1114.4 103.667 1117.87 102.137C1121.34 100.6 1117.94 99.378 1110.33 99.4183C1102.72 99.4519 1099.89 100.707 1104.03 102.204ZM638.468 117.869C636.807 120.856 634.508 121.608 633.362 119.547C632.216 117.487 632.635 113.352 634.294 110.365C635.954 107.379 638.253 106.627 639.4 108.687C640.546 110.748 640.126 114.882 638.468 117.869ZM680.201 112.218C680.201 115.111 672.678 117.118 663.48 116.681C651.07 116.091 648.542 114.594 653.678 110.876C662.532 104.459 680.201 105.358 680.201 112.218ZM703.265 107.573C703.265 114.742 690.813 124.574 687.3 120.178C684.426 116.581 684.871 114.547 689.426 110.506C696.47 104.251 703.265 102.815 703.265 107.573ZM628.228 117.856C627.487 121.333 618.901 124.138 609.145 124.085C599.389 124.024 592.62 121.762 594.103 119.051C598.209 111.54 629.803 110.433 628.228 117.856ZM1365.8 115.164C1364.24 117.003 1361.13 117.118 1358.88 115.413C1356.64 113.708 1357.92 112.204 1361.72 112.07C1365.53 111.936 1367.36 113.325 1365.8 115.164ZM1527.2 122.212C1524.35 123.809 1519.68 123.809 1516.82 122.212C1513.97 120.608 1516.31 119.299 1522.01 119.299C1527.72 119.299 1530.06 120.608 1527.2 122.212ZM96.6978 211.44C96.6978 215.131 96.2412 218.152 95.6807 218.152C95.1203 218.152 94.0225 215.131 93.2383 211.44C92.4542 207.748 92.9131 204.728 94.2554 204.728C95.5977 204.728 96.6978 207.748 96.6978 211.44ZM33.9954 457.652C35.6583 459.591 37.6487 459.35 38.4144 457.121C39.1801 454.893 37.8193 453.309 35.3885 453.598C32.7016 453.92 32.155 455.51 33.9954 457.652ZM1673.61 571.223C1672.84 573.452 1670.85 573.693 1669.19 571.754C1667.35 569.612 1667.89 568.022 1670.58 567.7C1673.01 567.411 1674.37 568.995 1673.61 571.223ZM52.8774 587.305C52.8774 590.996 51.7773 594.017 50.435 594.017C49.0927 594.017 48.6337 590.996 49.4179 587.305C50.2021 583.613 51.2999 580.593 51.8603 580.593C52.4208 580.593 52.8774 583.613 52.8774 587.305ZM739.107 688.433C741.589 700.118 738.764 702.595 735.599 691.5C733.78 685.124 733.604 681.271 735.136 681.271C736.483 681.271 738.272 684.493 739.107 688.433ZM885.357 704.958C886.727 702.494 887.25 697.668 886.519 694.232C885.758 690.641 891.056 687.983 898.976 687.983C906.935 687.983 913.113 691.098 913.6 695.353C914.066 699.407 919.32 704.327 925.279 706.28C940.123 711.153 936.74 721.489 921.135 718.932C911.748 717.394 908.529 719.18 908.529 725.919C908.529 737.315 900.09 737.873 898.524 726.576C897.85 721.71 897.285 723.288 897.179 730.328C897.08 737.007 896.143 740.94 895.101 739.061C894.059 737.188 891.475 741.537 889.358 748.732C884.842 764.089 873.933 766.512 873.933 752.169C873.933 744.826 871.932 743.47 865.552 746.477C858.975 749.585 857.413 748.41 858.304 741.027C858.929 735.846 860.912 731.919 862.711 732.295C864.512 732.671 867.402 728.556 869.136 723.16C871.874 714.629 871.263 713.945 864.461 717.945C860.158 720.475 854.906 723.952 852.794 725.67C850.681 727.395 848.345 725.939 847.602 722.449C846.859 718.952 851.5 713.992 857.914 711.428C864.328 708.857 870.815 702.816 872.331 697.997C874.591 690.816 875.788 691.057 878.977 699.333C881.118 704.89 883.989 707.421 885.357 704.958ZM1210.66 697.292C1210.66 702.803 1196.55 705.575 1195.43 700.286C1194.78 697.212 1197.94 694.695 1202.45 694.695C1206.96 694.695 1210.66 695.863 1210.66 697.292ZM789.515 737.705C787.533 752.733 784.63 745.222 785.326 726.858C786.191 704.025 786.247 703.837 788.673 715.931C789.904 722.073 790.283 731.872 789.515 737.705ZM952.969 712.522C951.408 714.361 948.294 714.475 946.05 712.77C943.806 711.065 945.084 709.562 948.889 709.428C952.695 709.293 954.531 710.683 952.969 712.522ZM1030.76 715.173C1015.97 722.831 963.389 722.583 959.268 714.831C956.973 710.515 970.177 708.575 998.476 709.058C1027.66 709.569 1037.86 711.495 1030.76 715.173ZM1078.62 712.924C1075.13 714.462 1069.43 714.462 1065.94 712.924C1062.45 711.387 1065.3 710.132 1072.28 710.132C1079.26 710.132 1082.11 711.387 1078.62 712.924ZM1100.53 712.562C1098.95 714.428 1096.35 714.428 1094.77 712.562C1093.18 710.703 1094.48 709.179 1097.65 709.179C1100.82 709.179 1102.12 710.703 1100.53 712.562ZM1123.59 712.562C1122.01 714.428 1119.42 714.428 1117.83 712.562C1116.24 710.703 1117.54 709.179 1120.71 709.179C1123.88 709.179 1125.18 710.703 1123.59 712.562ZM730.941 718.113C730.941 727.885 722.343 748.356 718.32 748.169C713.823 747.954 713.846 747.45 718.92 735.141L724.195 722.341L714.307 719.757C705.624 717.489 706.034 717.032 717.679 716.005C724.974 715.361 730.941 716.307 730.941 718.113ZM741.847 718.885C741.082 721.113 739.091 721.355 737.428 719.415C735.588 717.274 736.134 715.683 738.821 715.361C741.252 715.072 742.613 716.656 741.847 718.885ZM883.159 721.543C883.159 725.234 884.259 728.254 885.601 728.254C886.944 728.254 887.403 725.234 886.618 721.543C885.834 717.851 884.736 714.831 884.176 714.831C883.615 714.831 883.159 717.851 883.159 721.543ZM1604.42 718.885C1603.65 721.113 1601.66 721.355 1600 719.415C1598.16 717.274 1598.7 715.683 1601.39 715.361C1603.82 715.072 1605.18 716.656 1604.42 718.885ZM1621.76 719.274C1620.18 721.14 1617.58 721.14 1616 719.274C1614.41 717.415 1615.71 715.891 1618.88 715.891C1622.05 715.891 1623.35 717.415 1621.76 719.274ZM631.143 725.596C630.377 727.825 628.387 728.066 626.724 726.127C624.884 723.986 625.43 722.395 628.117 722.073C630.548 721.784 631.909 723.368 631.143 725.596ZM695.817 729.516C695.315 733.899 693.527 738.819 691.844 740.45C690.123 742.121 689.445 740.316 690.294 736.315C691.14 732.329 689.512 727.932 686.578 726.294C682.858 724.214 683.568 723.106 689.041 722.455C694.058 721.858 696.412 724.315 695.817 729.516ZM768.995 734.966C768.156 742.665 768.58 748.39 769.994 748.39C771.348 748.39 772.455 750.907 772.455 753.981C772.455 762.7 763.077 758.532 761.031 748.9C759.615 742.235 758.086 742.034 754.251 748.007C751.525 752.249 748.174 753.706 746.801 751.236C744.034 746.256 759.599 722.952 766.267 722.086C769.438 721.677 770.102 724.811 768.995 734.966ZM1204.89 728.254C1205.68 731.946 1205.22 734.966 1203.88 734.966C1202.53 734.966 1201.43 731.946 1201.43 728.254C1201.43 724.563 1201.89 721.543 1202.45 721.543C1203.01 721.543 1204.11 724.563 1204.89 728.254ZM1226.8 724.502C1226.8 726.133 1225.77 729.328 1224.5 731.61C1223.23 733.892 1222.19 732.557 1222.19 728.651C1222.19 724.744 1223.23 721.543 1224.5 721.543C1225.77 721.543 1226.8 722.871 1226.8 724.502ZM1564.15 725.946C1562.59 727.785 1559.47 727.899 1557.23 726.194C1554.99 724.489 1556.26 722.986 1560.07 722.851C1563.87 722.717 1565.71 724.107 1564.15 725.946ZM1576.74 725.596C1575.98 727.825 1573.99 728.066 1572.32 726.127C1570.48 723.986 1571.03 722.395 1573.72 722.073C1576.15 721.784 1577.51 723.368 1576.74 725.596ZM665.21 734.966C665.994 738.658 665.535 741.678 664.193 741.678C662.851 741.678 661.75 738.658 661.75 734.966C661.75 731.275 662.207 728.254 662.768 728.254C663.328 728.254 664.426 731.275 665.21 734.966ZM937.886 732.308C937.12 734.537 935.13 734.778 933.467 732.839C931.626 730.698 932.173 729.107 934.86 728.785C937.291 728.496 938.652 730.08 937.886 732.308ZM949.418 732.308C948.652 734.537 946.662 734.778 944.999 732.839C943.158 730.698 943.705 729.107 946.392 728.785C948.822 728.496 950.183 730.08 949.418 732.308ZM970.8 738.322C970.8 743.86 971.837 748.39 973.106 748.39C974.374 748.39 975.41 744.618 975.408 740C975.403 733.772 980.468 732.174 995.042 733.785C1006.92 735.101 1014.14 738.524 1013.3 742.45C1012.55 746.014 1010.1 747.242 1007.86 745.175C1005.62 743.108 1000.78 745.994 997.096 751.578C991.171 760.572 990.318 760.586 989.659 751.706C988.824 740.497 978.782 737.953 976.565 748.39C975.02 755.672 965.509 757.605 963.272 751.088C961.025 744.558 964.109 728.254 967.587 728.254C969.354 728.254 970.8 732.785 970.8 738.322ZM1182.98 738.322C1180.55 746.846 1181.06 748.39 1186.3 748.39C1189.83 748.39 1191.87 751.263 1191.05 755.102C1190.27 758.793 1187.44 761.814 1184.77 761.814C1182.09 761.814 1180.65 763.975 1181.55 766.613C1182.46 769.251 1191.61 770.479 1201.87 769.351C1218.55 767.512 1220.38 768.492 1219.06 778.54C1218.08 785.936 1218.56 788.728 1220.46 786.708C1222.05 785.01 1223.09 780.231 1222.77 776.077C1222.45 771.922 1224.85 768.526 1228.09 768.526C1231.44 768.526 1233.38 771.432 1232.57 775.238C1231.78 778.929 1232.24 781.949 1233.59 781.949C1234.93 781.949 1236.03 778.929 1236.03 775.238C1236.03 764.069 1244.65 767.72 1246.22 779.553C1247.01 785.621 1247.32 791.594 1246.9 792.829C1246.47 794.058 1235.9 795.89 1223.4 796.897C1206.8 798.233 1200.41 796.467 1199.71 790.339C1199.18 785.728 1196.69 781.949 1194.19 781.949C1191.68 781.949 1190.27 784.97 1191.05 788.661C1191.89 792.574 1189.54 795.373 1185.43 795.373C1181.55 795.373 1178.37 792.353 1178.37 788.661C1178.37 784.97 1174.53 781.949 1169.84 781.949C1160.51 781.949 1161.7 771.217 1171.45 767.418C1175.79 765.727 1177.4 760.592 1177.95 746.712C1178.39 735.396 1180.07 728.254 1182.27 728.254C1185.19 728.254 1185.33 730.107 1182.98 738.322ZM1412.46 743.732C1415 745.658 1412.14 746.927 1406.12 746.558C1400.1 746.189 1395.17 743.222 1395.17 739.973C1395.17 736.718 1397.37 736.101 1400.07 738.591C1403.81 742.047 1404.52 740.973 1403.08 734.006C1401.6 726.845 1401.91 726.536 1404.52 732.563C1406.35 736.785 1409.93 741.806 1412.46 743.732ZM1124.17 741.678C1123.39 745.37 1121.77 748.39 1120.58 748.39C1119.38 748.39 1118.41 745.37 1118.41 741.678C1118.41 737.987 1120.02 734.966 1122 734.966C1123.98 734.966 1124.96 737.987 1124.17 741.678ZM878.546 748.39C883.018 756.8 885.465 756.8 885.465 748.39C885.465 744.699 883.129 741.725 880.276 741.779C876.081 741.866 875.749 743.128 878.546 748.39ZM1095.34 751.303C1095.34 756.753 1098.09 761.948 1101.68 763.284C1106.77 765.176 1106.14 766.277 1098.51 768.861C1089.84 771.794 1089 770.734 1089 756.881C1089 748.457 1090.41 741.678 1092.17 741.678C1093.91 741.678 1095.34 746.007 1095.34 751.303ZM1166.84 747.39C1166.84 750.759 1162.67 753.686 1157.57 753.894C1152.47 754.095 1148.76 752.061 1149.33 749.377C1150.88 742.088 1166.84 740.275 1166.84 747.39ZM448.414 755.102C449.198 758.793 448.221 761.814 446.244 761.814C444.267 761.814 442.648 758.793 442.648 755.102C442.648 751.41 443.624 748.39 444.819 748.39C446.013 748.39 447.63 751.41 448.414 755.102ZM906.222 755.498C906.222 759.404 905.069 760.532 903.658 757.995C902.248 755.458 900.189 757.545 899.082 762.633C897.488 769.949 897.059 769.425 897.031 760.136C897.011 752.833 898.74 748.39 901.609 748.39C904.146 748.39 906.222 751.592 906.222 755.498ZM938.511 753.424C938.511 756.189 936.015 758.458 932.964 758.458C929.915 758.458 927.902 756.189 928.49 753.424C929.076 750.659 931.571 748.39 934.034 748.39C936.498 748.39 938.511 750.659 938.511 753.424ZM1377.87 755.102C1377.08 758.793 1374.17 761.599 1371.39 761.344C1366.52 760.888 1366.5 760.666 1370.95 755.102C1377.3 747.162 1379.55 747.162 1377.87 755.102ZM1547.38 755.102C1547.38 758.793 1549.72 761.861 1552.57 761.914C1555.43 761.975 1559.32 764.948 1561.22 768.526C1563.77 773.325 1561.96 775.405 1554.3 776.446C1548.59 777.224 1540.29 779.057 1535.85 780.513C1531.41 781.976 1491.97 784.057 1448.21 785.138C1404.45 786.218 1374.87 784.849 1382.48 782.09C1390.09 779.338 1401.51 775.204 1407.85 772.909C1432.22 764.096 1461.77 761.8 1463.22 768.6C1464.02 772.372 1465.74 773.539 1467.04 771.197C1468.34 768.861 1471.83 770.72 1474.8 775.338C1477.76 779.956 1482.08 781.54 1484.38 778.855C1486.69 776.171 1496.03 773.445 1505.15 772.801C1514.26 772.157 1522.39 769.653 1523.22 767.237C1524.05 764.827 1528.27 764.525 1532.6 766.566C1538.86 769.519 1540.46 768.042 1540.46 759.337C1540.46 753.317 1542.02 748.39 1543.92 748.39C1545.83 748.39 1547.38 751.41 1547.38 755.102ZM1615.23 756.78C1616.3 763.492 1616.84 763.492 1617.92 756.78C1619.37 747.759 1638.62 744.886 1640.44 753.424C1641.02 756.189 1636.93 757.397 1631.35 756.102C1625 754.632 1621.19 756.525 1621.19 761.136C1621.19 772.331 1610.34 769.982 1608.82 758.458C1607.21 746.215 1613.28 744.625 1615.23 756.78ZM1080.35 761.814C1079.57 765.505 1076.13 768.311 1072.72 768.056C1067.18 767.633 1067.01 766.962 1071.13 761.814C1077.53 753.8 1082.05 753.8 1080.35 761.814ZM1297.15 761.814C1296.36 765.505 1297.86 768.526 1300.47 768.526C1303.08 768.526 1305.22 765.505 1305.22 761.814C1305.22 753.887 1309.69 755.679 1313.48 765.13C1316.97 773.795 1305.13 789.091 1298.71 784.211C1296.24 782.325 1293.51 784.064 1292.66 788.077C1291.8 792.091 1289.55 795.373 1287.65 795.373C1285.75 795.373 1284.88 792.118 1285.73 788.145C1286.79 783.138 1284 782.339 1276.64 785.547C1270.19 788.359 1266.01 787.614 1266.01 783.648C1266.01 780.057 1271.96 775.325 1279.24 773.143C1286.51 770.962 1292.82 766.009 1293.26 762.136C1293.71 758.27 1295.08 755.102 1296.32 755.102C1297.56 755.102 1297.93 758.122 1297.15 761.814ZM1363.09 761.29C1361.3 764.586 1356.78 766.156 1353.05 764.78C1347.82 762.854 1345.99 765.311 1345.07 775.473C1344.42 782.728 1343 788.661 1341.92 788.661C1339.43 788.661 1342.12 766.807 1345.41 760.237C1346.77 757.525 1352.04 755.31 1357.11 755.31C1363.41 755.31 1365.31 757.209 1363.09 761.29ZM551.046 767.74C551.046 775.734 542.13 782.117 540.656 775.184C540.013 772.15 540.79 768.143 542.384 766.271C547.107 760.726 551.046 761.398 551.046 767.74ZM581.029 768.526C581.029 772.217 580.053 775.238 578.858 775.238C577.664 775.238 576.047 772.217 575.263 768.526C574.479 764.834 575.457 761.814 577.433 761.814C579.41 761.814 581.029 764.834 581.029 768.526ZM622.543 767.794C622.543 777.943 605.702 780.104 599.542 770.747C594.145 762.552 594.781 761.894 608.128 761.854C616.057 761.834 622.543 764.505 622.543 767.794ZM629.635 770.371C629.349 778.399 626.187 776.842 625.195 768.19C624.688 763.76 625.518 761.344 627.04 762.821C628.562 764.297 629.729 767.693 629.635 770.371ZM650.057 791.514C650.145 794.93 648.295 791.91 645.943 784.802C643.044 776.043 642.486 770.338 644.213 767.096C646.522 762.747 649.647 775.801 650.057 791.514ZM669.633 765.888C674.327 771.13 674.364 781.949 669.687 781.949C667.71 781.949 666.693 784.789 667.431 788.252C668.167 791.722 666.677 794.105 664.119 793.541C659.336 792.494 658.591 776.171 662.904 766.948C665.729 760.908 665.242 760.981 669.633 765.888ZM1575.06 768.526C1575.06 772.217 1573.24 775.191 1571.02 775.137C1567.57 775.05 1567.49 774.083 1570.45 768.526C1574.8 760.337 1575.06 760.337 1575.06 768.526ZM692.976 778.976C687.076 786.024 686.763 787.587 690.67 790.474C694.325 793.178 694.083 793.964 689.406 794.595C686.066 795.044 682.501 790.165 680.976 783.07C678.557 771.794 679.237 770.767 689.071 770.794C699.706 770.821 699.74 770.895 692.976 778.976ZM724.679 786.715C725.608 800.864 725.062 802.676 720.855 799.387C718.157 797.279 711.798 795.42 706.724 795.259C699.258 795.024 698.278 793.642 701.583 788.044C703.83 784.238 705.089 778.399 704.381 775.063C703.673 771.734 707.707 769.277 713.343 769.606C722.326 770.13 723.729 772.244 724.679 786.715ZM792.448 785.728C794.845 795.259 796.152 796.212 798.295 789.977C802.135 778.802 807.05 779.943 807.05 792.017C807.05 799.864 804.121 801.971 793.788 801.555C786.493 801.266 781.825 799.501 783.41 797.642C790.19 789.675 785.363 781.949 773.608 781.949C759.887 781.949 756.197 792.816 768.419 797.232C773.08 798.91 770.951 800.34 762.789 801.011C755.422 801.615 748.983 798.883 748.114 794.789C746.997 789.534 745.863 789.534 744.057 794.789C742.678 798.803 739.993 802.085 738.09 802.085C735.532 802.085 735.306 800.119 737.218 794.554C738.641 790.413 739.232 782.668 738.528 777.338C737.449 769.15 741.28 768.103 763.308 770.553C785.172 772.982 789.861 775.419 792.448 785.728ZM843.94 783.627C843.958 791.125 828.305 789.722 826.681 782.077C825.837 778.11 828.981 776.11 834.606 777.043C839.733 777.895 843.933 780.862 843.94 783.627ZM926.979 781.553C926.979 785.03 925.944 789.729 924.68 792.004C920.655 799.239 858.356 795.917 853.176 788.191C850.543 784.265 879.111 777.352 902.186 776.332C916.407 775.707 926.979 777.929 926.979 781.553ZM1028.12 785.446C1030.55 792.521 1026.19 794.917 1004.68 798.32C982.62 801.817 959.268 793.266 959.268 781.694C959.268 775.795 1026.06 779.439 1028.12 785.446ZM1110.33 788.42C1095.45 792.286 1084.27 789.44 1087.97 782.728C1089.23 780.453 1097.89 779.996 1107.21 781.708L1124.17 784.822L1110.33 788.42ZM1150.69 781.949C1150.69 785.641 1150.24 788.661 1149.68 788.661C1149.12 788.661 1148.02 785.641 1147.23 781.949C1146.45 778.258 1146.91 775.238 1148.25 775.238C1149.59 775.238 1150.69 778.258 1150.69 781.949ZM1202.59 781.949C1201.8 785.641 1202.78 788.661 1204.76 788.661C1206.73 788.661 1208.35 785.641 1208.35 781.949C1208.35 778.258 1207.38 775.238 1206.18 775.238C1204.99 775.238 1203.37 778.258 1202.59 781.949ZM1680.72 779.822C1682.38 781.762 1684.37 781.52 1685.14 779.292C1685.9 777.063 1684.54 775.479 1682.11 775.768C1679.43 776.09 1678.88 777.681 1680.72 779.822ZM1140.45 788.03C1139.74 791.373 1137.08 792.534 1134.55 790.601C1128.2 785.775 1128.77 781.949 1135.84 781.949C1139.08 781.949 1141.16 784.688 1140.45 788.03ZM1259.67 786.393C1258.08 788.259 1255.49 788.259 1253.9 786.393C1252.32 784.534 1253.61 783.01 1256.79 783.01C1259.96 783.01 1261.26 784.534 1259.67 786.393ZM1365.76 786.393C1364.18 788.259 1361.58 788.259 1359.99 786.393C1358.41 784.534 1359.71 783.01 1362.88 783.01C1366.05 783.01 1367.35 784.534 1365.76 786.393ZM1663.85 815.509C1664.64 819.2 1665.74 822.221 1666.3 822.221C1666.86 822.221 1667.31 819.2 1667.31 815.509C1667.31 811.817 1666.21 808.797 1664.87 808.797C1663.53 808.797 1663.07 811.817 1663.85 815.509ZM1724.54 813.381C1726.2 815.321 1728.19 815.079 1728.96 812.851C1729.73 810.623 1728.36 809.039 1725.93 809.327C1723.25 809.649 1722.7 811.24 1724.54 813.381ZM781.675 897.729C781.678 900.495 760.662 902.199 734.977 901.515C702.646 900.649 694.307 899.099 707.877 896.481C736.038 891.044 781.671 891.816 781.675 897.729ZM804.743 900.193C804.743 901.602 799.815 902.408 793.788 901.971C784.367 901.287 783.802 900.535 789.752 896.602C796.217 892.326 804.743 894.373 804.743 900.193ZM685.39 900.495C683.806 902.361 681.211 902.361 679.625 900.495C678.04 898.635 679.336 897.112 682.508 897.112C685.679 897.112 686.977 898.635 685.39 900.495ZM476.66 914.804C478.258 917.865 468.795 920.543 455.354 920.832C442.053 921.12 431.59 919.389 432.102 916.979C433.499 910.401 473.343 908.462 476.66 914.804ZM1530.81 920.771C1532.47 922.711 1534.46 922.469 1535.23 920.241C1535.99 918.013 1534.63 916.429 1532.2 916.717C1529.51 917.039 1528.97 918.63 1530.81 920.771ZM1362.25 926.953C1361.49 929.181 1359.5 929.423 1357.83 927.483C1355.99 925.342 1356.54 923.751 1359.23 923.429C1361.66 923.14 1363.02 924.725 1362.25 926.953ZM560.721 941.33C574.287 942.511 597.12 942.518 611.461 941.336C625.802 940.155 614.701 939.189 586.794 939.182C558.888 939.175 547.155 940.142 560.721 941.33ZM767.422 944.498C768.651 948.075 771.585 949.82 773.94 948.364C777.111 946.411 776.53 944.719 771.703 941.86C767.494 939.356 765.978 940.296 767.422 944.498ZM1482.38 940.907C1484.04 942.847 1486.03 942.605 1486.79 940.377C1487.56 938.148 1486.2 936.564 1483.77 936.853C1481.08 937.175 1480.53 938.766 1482.38 940.907ZM785.744 947.78C788.613 949.384 792.764 949.324 794.969 947.646C797.174 945.968 794.826 944.652 789.752 944.726C784.678 944.8 782.875 946.176 785.744 947.78ZM818.032 947.78C820.902 949.384 825.053 949.324 827.258 947.646C829.463 945.968 827.115 944.652 822.041 944.726C816.967 944.8 815.163 946.176 818.032 947.78ZM889.543 947.901C893.687 949.391 899.914 949.364 903.381 947.833C906.847 946.296 903.455 945.075 895.844 945.115C888.233 945.149 885.398 946.404 889.543 947.901ZM922.975 947.854C926.481 949.391 931.67 949.35 934.507 947.76C937.344 946.169 934.475 944.907 928.132 944.954C921.79 945.008 919.47 946.31 922.975 947.854ZM1225.07 947.659C1227.29 949.35 1230.93 949.35 1233.15 947.659C1235.36 945.974 1233.55 944.592 1229.11 944.592C1224.67 944.592 1222.85 945.974 1225.07 947.659ZM1263.13 947.478C1264.71 949.344 1267.31 949.344 1268.89 947.478C1270.48 945.619 1269.18 944.095 1266.01 944.095C1262.84 944.095 1261.54 945.619 1263.13 947.478Z" fill="#FEBC2E"/>
<rect x="212" y="113" width="21" height="724" fill="black"/>
<rect x="288" y="583" width="1302" height="234" fill="#FEBC2E"/>
</g>
<defs>
<filter id="filter0_d_119_9" x="0" y="0" width="1812" height="957" filterUnits="userSpaceOnUse" color-interpolation-filters="sRGB">
<feFlood flood-opacity="0" result="BackgroundImageFix"/>
<feColorMatrix in="SourceAlpha" type="matrix" values="0 0 0 0 0 0 0 0 0 0 0 0 0 0 0 0 0 0 127 0" result="hardAlpha"/>
<feOffset dy="4"/>
<feGaussianBlur stdDeviation="2"/>
<feComposite in2="hardAlpha" operator="out"/>
<feColorMatrix type="matrix" values="0 0 0 0 0 0 0 0 0 0 0 0 0 0 0 0 0 0 0.25 0"/>
<feBlend mode="normal" in2="BackgroundImageFix" result="effect1_dropShadow_119_9"/>
<feBlend mode="normal" in="SourceGraphic" in2="effect1_dropShadow_119_9" result="shape"/>
</filter>
</defs>
</svg>
