<svg width="775" height="639" viewBox="0 0 775 639" fill="none" xmlns="http://www.w3.org/2000/svg">
<path fill-rule="evenodd" clip-rule="evenodd" d="M559.005 2.45083C551.103 4.21339 544.192 6.28779 543.647 7.06512C543.102 7.83793 546.446 9.74963 551.078 11.3088C559.476 14.1379 559.463 14.147 546.62 15.539C539.535 16.3073 529.058 18.5353 523.336 20.4877C516.137 22.9462 519.801 23.3936 535.225 21.9384C570.476 18.6167 606.673 15.6791 611.328 15.7559C613.926 15.8011 615.358 14.0566 614.985 11.3088C614.583 8.33958 623.251 6.78943 640.251 6.78943C658.62 6.78943 665.935 8.21303 665.464 11.6975C665.045 14.7887 665.665 16.2169 667.139 15.548C668.426 14.9605 670.148 15.6881 670.965 17.1659C671.783 18.6393 679.14 22.0197 687.314 24.6771C695.488 27.3345 703.848 31.3026 705.891 33.4944C707.935 35.6818 709.607 35.7903 709.607 33.734C709.607 28.6 706.983 25.6126 691.772 13.4148C689.865 11.8873 686.298 8.53392 683.846 5.96691C678.563 0.435189 580.459 -2.32615 559.005 2.45083ZM257.305 7.20973C252.648 9.72702 252.782 9.9304 259.534 10.5993C266.646 11.2998 268.795 9.38808 264.488 6.18836C263.261 5.27544 260.029 5.73641 257.305 7.20973ZM246.406 9.43327C245.316 10.2061 240.523 12.1449 235.755 13.7402C230.987 15.3356 227.085 18.1376 227.085 19.9725C227.085 21.8028 228.534 22.4943 230.305 21.5045C232.774 20.1261 233.179 20.8176 232.039 24.4783C230.91 28.1028 231.623 29.1378 235.012 28.7807C239.078 28.3559 239.209 28.0124 236.498 24.867L233.525 21.4187L237.159 20.8809C239.156 20.5871 240.94 22.1598 241.122 24.3789C241.309 26.6702 245.083 26.9504 249.874 25.0251C258.957 21.3825 258.8 19.6426 249.378 19.5477C246.109 19.5115 244.548 18.4901 245.91 17.2744C248.251 15.1864 251.419 6.03922 249.329 7.40408C248.811 7.74303 247.496 8.65594 246.406 9.43327ZM588.027 10.1292C584.644 11.0105 578.847 11.0151 575.147 10.1428C571.445 9.2751 574.213 8.55199 581.298 8.54747C588.382 8.53843 591.41 9.25249 588.027 10.1292ZM601.857 9.78126C601.176 11.0376 600.062 11.0376 599.38 9.78126C598.699 8.52939 599.256 7.5035 600.618 7.5035C601.981 7.5035 602.539 8.52939 601.857 9.78126ZM677.158 14.3006C676.477 15.557 675.363 15.557 674.681 14.3006C674 13.0488 674.557 12.0229 675.92 12.0229C677.282 12.0229 677.84 13.0488 677.158 14.3006ZM684.112 14.2735C683.442 15.5118 682.104 15.5887 681.14 14.4407C680.176 13.2928 680.725 12.2805 682.36 12.1901C683.995 12.0997 684.783 13.0352 684.112 14.2735ZM260.029 18.942C260.983 20.0809 262.544 20.0809 263.497 18.942C264.45 17.8077 263.671 16.8767 261.763 16.8767C259.856 16.8767 259.076 17.8077 260.029 18.942ZM269.442 18.82C270.124 20.0764 271.238 20.0764 271.919 18.82C272.601 17.5681 272.043 16.5423 270.681 16.5423C269.318 16.5423 268.761 17.5681 269.442 18.82ZM79.7584 26.286C79.4731 28.3921 74.2724 29.6982 68.2007 29.1875C57.1839 28.2701 37.888 34.9226 34.6402 40.7616C33.5532 42.714 33.0014 48.0107 33.1322 55.2281C33.3551 67.5118 33.5087 67.9502 39.08 72.1713C43.6396 75.6286 44.0072 82.941 39.5754 82.0236C36.6247 81.4134 36.379 82.3986 36.6406 93.7875C36.8903 104.67 36.5821 106.225 34.1636 106.284C30.6987 106.374 29.4781 110.392 29.2046 122.612C29.0273 130.562 29.6703 132.722 32.9201 135.09C38.1803 138.927 37.896 145.177 32.3306 148.038C27.9344 150.298 22.4681 166.577 23.5144 174.296C23.774 176.216 22.6485 179.131 21.0126 180.772C18.4415 183.348 18.2295 184.623 19.4472 190.177C20.222 193.711 21.4456 196.635 22.1659 196.671C23.1528 196.725 23.1181 197.769 22.0252 200.924C21.0097 203.852 22.1679 205.52 25.8983 206.501C31.1565 207.884 31.2209 208.074 31.3101 222.59C31.3606 230.67 31.0663 237.278 30.6581 237.278C30.2499 237.278 29.915 241.345 29.915 246.317C29.915 253.014 29.2096 255.514 27.1903 255.97C24.8153 256.508 24.7549 256.838 26.7207 258.56C29.593 261.072 34.8175 273.37 33.0291 273.406C32.2731 273.419 31.9224 276.253 32.2276 279.882C33.0341 289.468 31.0723 294.638 24.5518 300.115C18.7179 305.014 16.2043 309.588 19.3461 309.588C20.2547 309.588 20.9978 312.638 20.9978 316.367C20.9978 321.641 19.677 323.146 15.0529 323.146C8.64244 323.146 6.64895 331.778 12.8236 332.799C15.1233 333.179 15.69 334.16 14.3098 335.375C13.0832 336.451 12.0805 339.086 12.0805 341.233C12.0805 343.379 11.1819 346.434 10.0841 348.025C8.98625 349.612 8.3343 352.725 8.63352 354.935C8.93374 357.15 7.71406 360.887 5.92367 363.242C3.11078 366.943 3.67852 367.599 10.0989 368.069C17.7291 368.629 18.0125 373.388 10.7697 379.326C7.55851 381.957 7.16714 383.457 8.20451 389.156C9.18937 394.57 9.59461 394.737 10.2783 390.019C10.9381 385.459 11.4583 386.137 12.6156 393.061C13.9799 401.218 13.9155 402.335 11.8536 406.402C9.92752 410.198 10.3892 411.193 15.0529 413.317C19.9436 415.54 20.2864 416.358 18.3969 421.298C17.2397 424.326 14.3416 428.158 11.9567 429.812C4.54448 434.956 4.11744 440.343 11.0897 440.754L17.53 441.129L9.10812 455.577L0.686285 470.026L5.64031 472.286L10.5943 474.545L4.75651 480.66C0.67737 484.935 -0.665171 487.977 0.297891 490.761C1.05685 492.953 2.56881 494.919 3.6587 495.131C5.62644 495.515 5.62644 495.542 3.67654 499.018C2.25176 501.553 3.4764 503.587 8.13516 506.42C13.9542 509.955 14.185 510.474 10.5943 511.943C8.41456 512.833 6.20804 515.464 5.68985 517.782C5.10627 520.394 9.24783 522.134 16.5887 522.356C25.7328 522.631 27.8086 523.748 25.7041 527.25C24.1248 529.885 22.9794 535.173 22.9794 539.837C22.9794 546.363 21.2475 549.49 13.8273 556.36C8.79404 561.019 5.51546 565.57 6.54094 566.469C8.0331 567.78 8.12921 568.905 7.02248 572.101C6.00592 575.038 6.29523 576.127 8.11732 576.231C9.47968 576.308 11.2502 578.265 12.0528 580.579C13.6738 585.252 13.2527 586.395 7.97861 591.633C6.53996 593.062 5.12113 597.111 4.82488 600.636C4.37307 605.996 6.08518 606.701 15.367 604.956C23.556 603.42 26.0598 604.17 24.961 607.831C23.7076 612.011 23.7859 612.676 25.4564 612.07C28.7677 610.859 29.4929 612.305 27.9334 617.005C26.9228 620.051 28.3486 620.449 32.392 618.253C39.7933 614.226 39.4149 614.18 56.1713 621.158C66.44 625.434 81.4933 626.13 114.133 623.847C141.227 621.949 166.627 622.6 180.022 625.529C224.167 635.196 228.558 635.874 227.927 632.9C227.574 631.232 222.669 628.765 217.028 627.418C211.389 626.076 206.35 623.156 205.832 620.942C204.542 615.414 289.859 615.844 319.948 621.515C337.208 624.769 467.577 631.137 512.932 630.943C523.051 630.898 567.185 625.185 569.21 623.658C570.881 622.392 571.744 623.328 571.381 626.012C571.049 628.462 571.223 630.464 571.768 630.464C572.313 630.464 573.034 628.43 573.371 625.944C574.174 620.019 577.83 620.087 577.83 626.026C577.83 631.137 601.236 631.44 618.328 626.555C626.154 624.317 628.722 624.973 629.085 629.298C629.349 632.425 630.211 634.983 631.002 634.983C631.794 634.983 632.166 632.949 631.829 630.464C631.492 627.978 632.023 625.596 633.009 625.172C633.995 624.747 635.47 623.947 636.287 623.391C637.105 622.84 640.226 622.139 643.223 621.836C646.543 621.502 648.165 619.816 647.372 617.529C646.087 613.81 653.115 610.348 672.947 604.943C682.918 602.227 687.429 594.806 679.833 593.622C677.409 593.242 674.978 592.46 674.433 591.882C673.888 591.303 669.207 590.318 664.03 589.694L654.617 588.551L661.057 585.035C664.6 583.101 671.881 580.882 677.238 580.109C682.596 579.332 687.192 577.126 687.453 575.205C687.713 573.285 688.818 571.712 689.908 571.712C690.998 571.712 691.65 569.945 691.357 567.78C691.061 565.597 688.943 565.511 686.592 567.586C681.848 571.771 677.327 572.824 678.039 569.579C678.993 565.222 699.521 549.088 700.941 551.574C701.772 553.024 702.674 551.076 703.008 547.113C703.428 542.119 705.118 539.864 708.833 539.34L714.066 538.603L708.616 535.937C704.329 533.835 703.735 532.692 705.834 530.572C707.301 529.085 710.645 529.383 713.265 531.227C715.885 533.071 718.13 534.169 718.254 533.668C718.378 533.162 717.768 528.127 716.9 522.473C715.855 515.667 714.99 513.715 714.338 516.688C713.685 519.667 712.303 519.59 710.241 516.453C704.705 508.043 705.579 506.149 714.239 507.799C720.28 508.947 722.54 507.966 722.058 504.409C721.64 501.327 722.26 499.244 723.667 498.995C725.705 498.634 715.968 489.608 708.121 484.583C706.486 483.534 708.492 482.341 712.579 481.934C716.666 481.523 720.679 479.214 721.497 476.805C722.729 473.171 722.645 472.399 721.001 472.286C719.911 472.209 718.351 469.999 717.533 467.373C716.446 463.884 717.311 463.369 720.751 465.461C726.899 469.194 728.199 465.249 725.362 451.474C724.106 445.373 723.666 440.65 724.355 440.65C725.027 440.65 725.301 438.616 724.964 436.131C724.627 433.645 722.483 431.58 720.2 431.543C717.916 431.503 715.378 429.351 714.561 426.757C713.492 423.368 714.533 422.871 718.276 424.995C723.569 427.991 725.572 421.971 721.249 416.055C719.075 413.082 719.068 412.901 721.001 408.666C722.572 405.232 722.257 404.721 719.489 406.221C715.5 408.386 711.311 398.642 714.117 393.73C714.996 392.193 716.515 390.937 717.493 390.937C718.472 390.937 719.827 387.886 720.506 384.158C721.475 378.834 721.478 377.379 720.521 377.379C719.845 377.379 719.556 374.36 719.874 370.6C720.239 366.243 719.835 363.707 718.741 363.504C717.328 363.237 717.376 362.555 719.02 359.482C720.86 356.038 720.804 355.423 718.212 350.759C716.678 348.003 714.783 345.743 714.001 345.743C713.219 345.743 712.579 343.709 712.579 341.224C712.579 338.738 715.143 336.505 718.276 336.266L723.973 335.827L720.258 328.872C716.229 321.334 715.499 312.453 718.338 305.525C719.325 303.116 725.121 299.704 731.218 297.941C737.315 296.183 742.303 293.169 742.303 291.244C742.303 289.319 741.077 285.703 739.579 283.204C737.298 279.407 738.025 278.608 744.037 278.309C748.114 278.106 751.221 275.995 751.221 273.433C751.221 270.947 750.302 268.913 749.181 268.913C748.059 268.913 747.404 266.97 747.726 264.593C748.048 262.216 748.967 261.416 749.766 262.817C750.566 264.213 751.221 263.45 751.221 261.118C751.221 258.781 749.102 254.605 746.514 251.835C742.519 247.559 744.053 247.017 756.67 248.237L771.532 249.679L758.652 241.418C736.113 226.96 736.516 227.335 739.331 223.489C741.623 220.357 741.646 220.068 739.637 219.652C736.616 219.024 735.849 211.228 738.573 208.842C739.821 207.744 738.986 206.6 736.689 206.257C734.419 205.918 732.412 203.636 732.23 201.186C732.049 198.737 726.773 195.067 720.506 193.038C709.345 189.422 709.198 189.232 713.293 183.795C715.961 180.257 722.911 178.612 732.489 179.249C746.349 180.175 747.611 179.574 748.907 171.48C750.142 163.766 751.801 162.527 762.656 161.208C772.498 160.014 775 158.41 775 153.299C775 149.774 774.613 146.89 774.139 146.89C772.746 146.89 755.838 133.273 753.945 130.629C750.366 125.622 752.411 119.756 757.909 119.254C763.545 118.739 763.563 118.694 759.642 114.997C757.463 112.941 752.112 110.988 747.753 110.663C739.989 110.075 729.46 103.934 732.395 101.696C735.191 99.5678 724.973 93.3265 718.143 92.9921C712.189 92.6983 711.028 91.2205 709.024 81.3592L706.729 70.0608L710.893 69.654L715.056 69.2473L711.669 64.8047C709.805 62.3642 707.465 61.3429 706.467 62.5315C705.469 63.7201 704.653 63.0015 704.653 60.9316C704.653 58.8617 703.872 56.236 702.919 55.0971C701.966 53.9627 703.191 52.5391 705.644 51.9426L710.102 50.8534L705.644 47.4277C691.071 36.2377 587.436 30.0597 554.051 38.3935C544.514 40.7752 532.179 42.7727 526.638 42.8315C519.528 42.9128 516.417 44.6076 516.062 48.5937C515.684 52.8464 515.356 52.9413 514.733 48.9643C514.035 44.5082 493.46 39.3787 491.63 43.2021C489.841 46.9396 228.84 46.447 211.232 42.6733C199.516 40.1605 186.14 37.3133 181.508 36.3462C176.876 35.379 163.089 33.5261 150.871 32.2381C138.653 30.9455 124.162 28.6135 118.67 27.0589C102.79 22.5576 80.3242 22.1101 79.7584 26.286ZM582.599 23.4343C583.313 24.7404 584.168 24.5777 584.497 23.0773C584.826 21.5768 584.241 20.5103 583.197 20.7046C582.043 20.9215 581.808 21.9926 582.599 23.4343ZM555.847 27.9537C556.561 29.2598 557.416 29.0971 557.745 27.5967C558.074 26.0962 557.49 25.0296 556.445 25.224C555.291 25.4409 555.056 26.512 555.847 27.9537ZM563.773 27.9537C564.488 29.2598 565.343 29.0971 565.672 27.5967C566.001 26.0962 565.416 25.0296 564.372 25.224C563.218 25.4409 562.983 26.512 563.773 27.9537ZM245.663 37.0964C246.889 38.172 248.895 38.172 250.121 37.0964C251.348 36.0163 250.344 35.135 247.892 35.135C245.44 35.135 244.436 36.0163 245.663 37.0964ZM446.319 54.9479C445.649 56.1862 444.311 56.2631 443.347 55.1152C442.383 53.9672 442.932 52.9549 444.567 52.8645C446.202 52.7741 446.99 53.7096 446.319 54.9479ZM700.421 54.7129C700.092 56.2134 699.237 56.3761 698.523 55.07C697.732 53.6283 697.967 52.5572 699.121 52.3403C700.166 52.1459 700.75 53.2125 700.421 54.7129ZM552.775 62.7393C553.113 64.2805 549.86 65.7719 545.546 66.0566C541.232 66.3368 526.333 67.6022 512.437 68.8631C498.541 70.1286 449.353 72.7272 403.132 74.6479C356.91 76.5686 316.662 79.5198 313.69 81.2146C308.231 84.3239 301.697 80.7355 302.895 75.2806C303.584 72.1397 312.963 71.2991 365.55 69.6857C385.621 69.0665 398.494 66.9876 398.494 64.3618C398.494 61.9937 399.121 61.153 399.888 62.4953C402.007 66.2012 435.002 65.573 458.933 61.37C482.33 57.2574 551.797 58.2742 552.775 62.7393ZM578.655 58.7668C577.943 62.0163 560.959 62.4095 560.255 59.1917C559.93 57.7138 564.05 56.5026 569.408 56.5026C574.766 56.5026 578.928 57.5195 578.655 58.7668ZM582.515 59.2323C582.186 60.7327 581.331 60.8954 580.617 59.5893C579.826 58.1477 580.061 57.0766 581.216 56.8597C582.26 56.6653 582.844 57.7319 582.515 59.2323ZM507.247 64.2172C508.48 65.2973 510.263 65.2566 511.21 64.1268C512.157 62.9969 511.149 62.1112 508.969 62.1609C506.789 62.2106 506.014 63.1371 507.247 64.2172ZM642.573 64.4115C642.825 66.2735 636.869 67.8011 629.339 67.8011C621.809 67.8011 615.313 66.2735 614.904 64.4115C614.495 62.5495 620.449 61.022 628.137 61.022C635.826 61.022 642.321 62.5495 642.573 64.4115ZM647.682 65.5414C644.976 70.8471 644.214 70.8471 644.214 65.5414C644.214 63.0557 645.439 61.1666 646.938 61.3383C649.353 61.6231 649.437 62.0976 647.682 65.5414ZM466.675 68.6281C467.389 69.9342 468.244 69.7715 468.573 68.2711C468.902 66.7706 468.317 65.7041 467.273 65.8984C466.119 66.1153 465.884 67.1864 466.675 68.6281ZM472.575 68.8179C474.355 69.8212 477.03 69.8031 478.52 68.7727C480.009 67.7378 478.551 66.9153 475.282 66.9424C472.012 66.965 470.794 67.8101 472.575 68.8179ZM272.568 79.3661C271.855 81.3773 270.867 81.8834 270.374 80.496C269.882 79.1085 270.062 76.3246 270.775 74.3135C271.488 72.3024 272.476 71.7962 272.968 73.1836C273.461 74.5711 273.28 77.355 272.568 79.3661ZM290.497 75.5608C290.497 77.5087 287.265 78.86 283.313 78.5662C277.982 78.1685 276.896 77.1607 279.102 74.657C282.906 70.3364 290.497 70.942 290.497 75.5608ZM300.405 72.4334C300.405 77.2601 295.055 83.881 293.546 80.9208C292.312 78.4984 292.503 77.1291 294.46 74.4084C297.486 70.1963 300.405 69.2292 300.405 72.4334ZM268.169 79.3571C267.851 81.6982 264.162 83.5873 259.971 83.5511C255.78 83.5104 252.872 81.9874 253.509 80.1616C255.273 75.1044 268.846 74.3587 268.169 79.3571ZM585.032 77.5448C584.361 78.7831 583.024 78.86 582.06 77.7121C581.096 76.5641 581.644 75.5518 583.279 75.4614C584.914 75.371 585.703 76.3065 585.032 77.5448ZM654.37 82.2902C653.144 83.3658 651.137 83.3658 649.911 82.2902C648.685 81.2101 649.688 80.3288 652.14 80.3288C654.592 80.3288 655.595 81.2101 654.37 82.2902ZM39.8231 142.371C39.8231 144.856 39.6269 146.89 39.3861 146.89C39.1454 146.89 38.6737 144.856 38.3369 142.371C38 139.885 38.1971 137.851 38.7738 137.851C39.3504 137.851 39.8231 139.885 39.8231 142.371ZM12.8861 308.155C13.6004 309.461 14.4555 309.299 14.7844 307.798C15.1134 306.298 14.5288 305.231 13.4845 305.426C12.3302 305.642 12.0954 306.714 12.8861 308.155ZM717.265 384.628C716.936 386.128 716.081 386.291 715.366 384.985C714.576 383.543 714.811 382.472 715.965 382.255C717.009 382.061 717.594 383.127 717.265 384.628ZM20.9978 395.456C20.9978 397.942 20.5252 399.975 19.9485 399.975C19.3719 399.975 19.1747 397.942 19.5116 395.456C19.8484 392.97 20.3201 390.937 20.5608 390.937C20.8016 390.937 20.9978 392.97 20.9978 395.456ZM315.803 463.55C316.869 471.418 315.655 473.086 314.296 465.615C313.514 461.322 313.439 458.727 314.097 458.727C314.675 458.727 315.444 460.897 315.803 463.55ZM378.632 474.676C379.22 473.018 379.445 469.768 379.131 467.454C378.804 465.036 381.08 463.247 384.482 463.247C387.902 463.247 390.556 465.344 390.765 468.209C390.965 470.939 393.222 474.252 395.782 475.567C402.159 478.848 400.706 485.807 394.002 484.086C389.969 483.051 388.586 484.253 388.586 488.79C388.586 496.464 384.961 496.839 384.288 489.233C383.999 485.957 383.756 487.019 383.71 491.76C383.668 496.256 383.266 498.905 382.818 497.639C382.37 496.378 381.26 499.307 380.351 504.152C378.411 514.492 373.724 516.124 373.724 506.466C373.724 501.521 372.864 500.609 370.124 502.633C367.298 504.726 366.627 503.935 367.01 498.963C367.278 495.475 368.13 492.831 368.903 493.084C369.677 493.337 370.918 490.566 371.663 486.933C372.839 481.189 372.577 480.728 369.655 483.421C367.806 485.125 365.55 487.466 364.642 488.623C363.735 489.785 362.731 488.804 362.412 486.454C362.093 484.099 364.087 480.759 366.842 479.033C369.597 477.302 372.385 473.235 373.036 469.99C374.007 465.154 374.521 465.317 375.891 470.889C376.811 474.631 378.044 476.335 378.632 474.676ZM518.382 469.515C518.382 473.226 512.322 475.092 511.839 471.531C511.559 469.461 512.916 467.766 514.855 467.766C516.794 467.766 518.382 468.553 518.382 469.515ZM337.458 496.726C336.607 506.845 335.359 501.788 335.658 489.423C336.03 474.048 336.054 473.922 337.096 482.065C337.625 486.201 337.788 492.799 337.458 496.726ZM407.678 479.77C407.007 481.008 405.67 481.085 404.706 479.937C403.742 478.789 404.291 477.777 405.925 477.686C407.56 477.596 408.349 478.531 407.678 479.77ZM441.099 481.555C434.745 486.711 412.155 486.544 410.384 481.324C409.398 478.418 415.07 477.112 427.228 477.438C439.764 477.781 444.149 479.078 441.099 481.555ZM461.658 480.041C460.159 481.076 457.708 481.076 456.209 480.041C454.71 479.006 455.936 478.161 458.933 478.161C461.931 478.161 463.157 479.006 461.658 480.041ZM471.071 479.797C470.39 481.053 469.275 481.053 468.594 479.797C467.913 478.545 468.47 477.519 469.832 477.519C471.195 477.519 471.752 478.545 471.071 479.797ZM480.979 479.797C480.298 481.053 479.183 481.053 478.502 479.797C477.821 478.545 478.378 477.519 479.74 477.519C481.103 477.519 481.66 478.545 480.979 479.797ZM312.294 483.534C312.294 490.114 308.601 503.899 306.873 503.772C304.941 503.627 304.95 503.289 307.13 495L309.396 486.382L305.149 484.642C301.418 483.114 301.595 482.807 306.597 482.115C309.731 481.681 312.294 482.319 312.294 483.534ZM316.98 484.054C316.651 485.555 315.796 485.717 315.081 484.411C314.291 482.969 314.526 481.898 315.68 481.681C316.724 481.487 317.309 482.554 316.98 484.054ZM377.687 485.844C377.687 488.329 378.16 490.363 378.737 490.363C379.313 490.363 379.51 488.329 379.174 485.844C378.837 483.358 378.365 481.324 378.124 481.324C377.884 481.324 377.687 483.358 377.687 485.844ZM687.541 484.054C687.212 485.555 686.357 485.717 685.642 484.411C684.852 482.969 685.086 481.898 686.241 481.681C687.285 481.487 687.87 482.554 687.541 484.054ZM694.993 484.316C694.312 485.573 693.197 485.573 692.516 484.316C691.835 483.064 692.392 482.038 693.754 482.038C695.116 482.038 695.674 483.064 694.993 484.316ZM269.421 488.573C269.092 490.074 268.237 490.237 267.523 488.93C266.732 487.489 266.967 486.418 268.121 486.201C269.166 486.006 269.75 487.073 269.421 488.573ZM297.205 491.213C296.989 494.164 296.221 497.477 295.498 498.575C294.759 499.7 294.468 498.484 294.832 495.791C295.196 493.106 294.497 490.146 293.236 489.043C291.638 487.642 291.943 486.897 294.294 486.458C296.449 486.056 297.461 487.71 297.205 491.213ZM328.643 494.882C328.282 500.066 328.464 503.921 329.072 503.921C329.653 503.921 330.129 505.616 330.129 507.686C330.129 513.557 326.1 510.75 325.221 504.265C324.613 499.777 323.956 499.641 322.308 503.664C321.137 506.52 319.698 507.501 319.108 505.837C317.919 502.484 324.606 486.793 327.47 486.21C328.833 485.934 329.118 488.045 328.643 494.882ZM515.905 490.363C516.241 492.849 516.044 494.882 515.468 494.882C514.891 494.882 514.418 492.849 514.418 490.363C514.418 487.877 514.615 485.844 514.855 485.844C515.096 485.844 515.568 487.877 515.905 490.363ZM525.317 487.837C525.317 488.935 524.871 491.086 524.326 492.623C523.781 494.159 523.336 493.26 523.336 490.63C523.336 488 523.781 485.844 524.326 485.844C524.871 485.844 525.317 486.739 525.317 487.837ZM670.241 488.808C669.57 490.047 668.233 490.124 667.269 488.976C666.305 487.828 666.854 486.815 668.489 486.725C670.123 486.635 670.912 487.57 670.241 488.808ZM675.651 488.573C675.322 490.074 674.467 490.237 673.753 488.93C672.962 487.489 673.197 486.418 674.351 486.201C675.395 486.006 675.98 487.073 675.651 488.573ZM284.056 494.882C284.393 497.368 284.196 499.402 283.619 499.402C283.043 499.402 282.57 497.368 282.57 494.882C282.57 492.397 282.766 490.363 283.007 490.363C283.248 490.363 283.72 492.397 284.056 494.882ZM401.198 493.093C400.869 494.593 400.014 494.756 399.3 493.45C398.509 492.008 398.744 490.937 399.898 490.72C400.943 490.526 401.527 491.592 401.198 493.093ZM406.152 493.093C405.823 494.593 404.968 494.756 404.254 493.45C403.463 492.008 403.698 490.937 404.852 490.72C405.897 490.526 406.481 491.592 406.152 493.093ZM415.338 497.142C415.338 500.871 415.784 503.921 416.329 503.921C416.874 503.921 417.319 501.381 417.318 498.272C417.316 494.078 419.491 493.002 425.752 494.087C430.855 494.973 433.956 497.278 433.598 499.922C433.273 502.321 432.219 503.148 431.257 501.756C430.296 500.364 428.215 502.308 426.635 506.068C424.09 512.124 423.723 512.133 423.44 506.154C423.081 498.606 418.767 496.894 417.815 503.921C417.151 508.825 413.065 510.126 412.104 505.738C411.139 501.341 412.464 490.363 413.958 490.363C414.717 490.363 415.338 493.414 415.338 497.142ZM506.492 497.142C505.448 502.882 505.666 503.921 507.916 503.921C509.435 503.921 510.31 505.856 509.96 508.441C509.623 510.926 508.408 512.96 507.259 512.96C506.111 512.96 505.489 514.415 505.879 516.191C506.269 517.967 510.197 518.795 514.607 518.035C521.771 516.797 522.559 517.457 521.99 524.222C521.571 529.203 521.777 531.083 522.592 529.722C523.273 528.579 523.72 525.361 523.583 522.564C523.447 519.766 524.477 517.479 525.871 517.479C527.309 517.479 528.142 519.436 527.794 521.999C527.457 524.484 527.655 526.518 528.231 526.518C528.808 526.518 529.28 524.484 529.28 521.999C529.28 514.479 532.986 516.937 533.657 524.905C534 528.99 534.132 533.012 533.95 533.844C533.768 534.671 529.225 535.905 523.855 536.583C516.726 537.482 513.978 536.294 513.676 532.167C513.448 529.063 512.381 526.518 511.305 526.518C510.228 526.518 509.623 528.552 509.96 531.038C510.317 533.672 509.31 535.557 507.541 535.557C505.875 535.557 504.51 533.523 504.51 531.038C504.51 528.552 502.861 526.518 500.844 526.518C496.837 526.518 497.349 519.292 501.538 516.734C503.401 515.595 504.092 512.137 504.328 502.791C504.52 495.172 505.239 490.363 506.184 490.363C507.442 490.363 507.499 491.61 506.492 497.142ZM605.077 500.785C606.167 502.082 604.94 502.936 602.352 502.687C599.764 502.439 597.646 500.441 597.646 498.254C597.646 496.062 598.593 495.646 599.751 497.323C601.362 499.65 601.667 498.927 601.047 494.236C600.411 489.414 600.543 489.206 601.667 493.265C602.452 496.107 603.987 499.488 605.077 500.785ZM481.226 499.402C480.89 501.887 480.195 503.921 479.682 503.921C479.169 503.921 478.749 501.887 478.749 499.402C478.749 496.916 479.445 494.882 480.294 494.882C481.143 494.882 481.563 496.916 481.226 499.402ZM375.706 503.921C377.627 509.584 378.678 509.584 378.678 503.921C378.678 501.436 377.675 499.433 376.449 499.47C374.647 499.528 374.504 500.378 375.706 503.921ZM468.841 505.883C468.841 509.552 470.022 513.05 471.566 513.95C473.752 515.224 473.482 515.965 470.204 517.705C466.478 519.68 466.117 518.966 466.117 509.638C466.117 503.966 466.724 499.402 467.479 499.402C468.228 499.402 468.841 502.317 468.841 505.883ZM499.556 503.248C499.556 505.517 497.764 507.487 495.573 507.627C493.382 507.763 491.79 506.393 492.035 504.586C492.701 499.678 499.556 498.457 499.556 503.248ZM190.921 508.441C191.258 510.926 190.838 512.96 189.988 512.96C189.139 512.96 188.444 510.926 188.444 508.441C188.444 505.955 188.863 503.921 189.376 503.921C189.889 503.921 190.584 505.955 190.921 508.441ZM387.595 508.707C387.595 511.338 387.1 512.097 386.494 510.388C385.888 508.68 385.004 510.086 384.528 513.511C383.843 518.437 383.659 518.085 383.647 511.83C383.638 506.913 384.381 503.921 385.614 503.921C386.704 503.921 387.595 506.077 387.595 508.707ZM401.467 507.311C401.467 509.173 400.395 510.7 399.084 510.7C397.774 510.7 396.909 509.173 397.162 507.311C397.413 505.449 398.485 503.921 399.544 503.921C400.602 503.921 401.467 505.449 401.467 507.311ZM590.215 508.441C589.878 510.926 588.626 512.815 587.432 512.644C585.339 512.336 585.332 512.187 587.243 508.441C589.969 503.094 590.939 503.094 590.215 508.441ZM663.039 508.441C663.039 510.926 664.043 512.992 665.268 513.028C666.494 513.068 668.167 515.071 668.984 517.479C670.08 520.711 669.3 522.112 666.011 522.812C663.559 523.336 659.992 524.57 658.085 525.551C656.178 526.536 639.235 527.937 620.434 528.665C601.634 529.392 588.927 528.47 592.197 526.613C595.466 524.76 600.371 521.976 603.095 520.431C613.564 514.497 626.261 512.951 626.882 517.529C627.225 520.069 627.965 520.855 628.523 519.278C629.083 517.705 630.582 518.957 631.856 522.067C633.13 525.176 634.982 526.242 635.973 524.435C636.963 522.627 640.978 520.792 644.893 520.358C648.809 519.924 652.304 518.239 652.66 516.612C653.016 514.989 654.828 514.786 656.687 516.16C659.375 518.148 660.067 517.154 660.067 511.292C660.067 507.238 660.735 503.921 661.553 503.921C662.37 503.921 663.039 505.955 663.039 508.441ZM692.186 509.57C692.647 514.09 692.879 514.09 693.341 509.57C693.963 503.496 702.234 501.562 703.014 507.311C703.266 509.173 701.509 509.986 699.109 509.114C696.384 508.124 694.745 509.399 694.745 512.504C694.745 520.042 690.085 518.46 689.432 510.7C688.739 502.457 691.348 501.386 692.186 509.57ZM462.401 512.96C462.064 515.446 460.589 517.335 459.123 517.163C456.742 516.878 456.668 516.426 458.438 512.96C461.19 507.564 463.132 507.564 462.401 512.96ZM555.537 512.96C555.2 515.446 555.843 517.479 556.964 517.479C558.086 517.479 559.005 515.446 559.005 512.96C559.005 507.623 560.925 508.829 562.556 515.193C564.053 521.027 558.965 531.327 556.21 528.041C555.145 526.771 553.974 527.942 553.609 530.644C553.242 533.347 552.274 535.557 551.457 535.557C550.639 535.557 550.268 533.365 550.63 530.69C551.087 527.318 549.887 526.78 546.726 528.94C543.956 530.834 542.161 530.332 542.161 527.662C542.161 525.244 544.717 522.058 547.842 520.589C550.967 519.12 553.679 515.785 553.869 513.177C554.06 510.574 554.651 508.441 555.182 508.441C555.714 508.441 555.874 510.474 555.537 512.96ZM583.865 512.607C583.098 514.826 581.157 515.884 579.553 514.958C577.307 513.66 576.519 515.315 576.127 522.157C575.846 527.042 575.237 531.038 574.773 531.038C573.703 531.038 574.855 516.322 576.271 511.898C576.856 510.072 579.118 508.581 581.298 508.581C584.002 508.581 584.818 509.86 583.865 512.607ZM235.012 516.951C235.012 522.333 231.181 526.631 230.548 521.963C230.272 519.92 230.605 517.222 231.29 515.961C233.319 512.228 235.012 512.68 235.012 516.951ZM247.892 517.479C247.892 519.965 247.473 521.999 246.96 521.999C246.446 521.999 245.752 519.965 245.415 517.479C245.078 514.994 245.498 512.96 246.347 512.96C247.196 512.96 247.892 514.994 247.892 517.479ZM265.727 516.987C265.727 523.82 258.492 525.275 255.845 518.975C253.527 513.457 253.8 513.014 259.534 512.987C262.94 512.974 265.727 514.772 265.727 516.987ZM268.773 518.722C268.65 524.127 267.292 523.079 266.866 517.253C266.648 514.271 267.005 512.644 267.659 513.638C268.313 514.632 268.814 516.919 268.773 518.722ZM277.547 532.958C277.584 535.259 276.79 533.225 275.779 528.439C274.534 522.541 274.294 518.7 275.036 516.517C276.028 513.588 277.37 522.378 277.547 532.958ZM285.957 515.703C287.973 519.233 287.989 526.518 285.98 526.518C285.13 526.518 284.693 528.43 285.011 530.762C285.327 533.098 284.687 534.703 283.588 534.323C281.533 533.618 281.213 522.627 283.066 516.417C284.279 512.35 284.07 512.4 285.957 515.703ZM674.929 517.479C674.929 519.965 674.148 521.967 673.195 521.931C671.713 521.872 671.677 521.221 672.947 517.479C674.817 511.966 674.929 511.966 674.929 517.479ZM295.985 524.516C293.45 529.261 293.315 530.314 294.994 532.258C296.564 534.079 296.46 534.608 294.451 535.033C293.016 535.335 291.484 532.05 290.83 527.273C289.79 519.68 290.082 518.989 294.307 519.007C298.876 519.025 298.891 519.075 295.985 524.516ZM309.604 529.727C310.004 539.254 309.769 540.474 307.962 538.26C306.802 536.84 304.071 535.589 301.891 535.48C298.684 535.322 298.263 534.391 299.682 530.622C300.647 528.059 301.188 524.127 300.884 521.881C300.58 519.64 302.313 517.986 304.734 518.207C308.594 518.559 309.196 519.983 309.604 529.727ZM338.718 529.063C339.748 535.48 340.309 536.122 341.23 531.923C342.879 524.399 344.991 525.167 344.991 533.297C344.991 538.58 343.733 539.999 339.294 539.719C336.16 539.525 334.154 538.336 334.835 537.084C337.748 531.72 335.674 526.518 330.624 526.518C324.73 526.518 323.145 533.835 328.395 536.809C330.397 537.939 329.483 538.901 325.976 539.353C322.812 539.76 320.045 537.92 319.672 535.164C319.192 531.625 318.705 531.625 317.929 535.164C317.337 537.866 316.183 540.076 315.366 540.076C314.267 540.076 314.17 538.752 314.991 535.006C315.603 532.217 315.856 527.002 315.554 523.413C315.09 517.9 316.736 517.195 326.199 518.844C335.592 520.48 337.606 522.121 338.718 529.063ZM360.839 527.648C360.847 532.696 354.122 531.752 353.425 526.604C353.062 523.933 354.412 522.586 356.829 523.214C359.032 523.788 360.836 525.786 360.839 527.648ZM396.513 526.251C396.513 528.592 396.068 531.756 395.525 533.288C393.796 538.16 367.032 535.923 364.807 530.721C363.675 528.077 375.949 523.422 385.862 522.735C391.971 522.315 396.513 523.811 396.513 526.251ZM439.963 528.873C441.008 533.636 439.133 535.25 429.892 537.541C420.416 539.895 410.384 534.138 410.384 526.346C410.384 522.374 439.077 524.828 439.963 528.873ZM475.282 530.875C468.89 533.478 464.085 531.562 465.676 527.042C466.215 525.51 469.934 525.203 473.941 526.355L481.226 528.452L475.282 530.875ZM492.621 526.518C492.621 529.004 492.425 531.038 492.184 531.038C491.943 531.038 491.471 529.004 491.134 526.518C490.798 524.032 490.995 521.999 491.571 521.999C492.148 521.999 492.621 524.032 492.621 526.518ZM514.914 526.518C514.577 529.004 514.997 531.038 515.846 531.038C516.695 531.038 517.391 529.004 517.391 526.518C517.391 524.032 516.972 521.999 516.458 521.999C515.945 521.999 515.251 524.032 514.914 526.518ZM720.32 525.085C721.035 526.392 721.89 526.229 722.219 524.728C722.548 523.228 721.963 522.161 720.919 522.356C719.765 522.573 719.53 523.644 720.32 525.085ZM488.22 530.613C487.914 532.863 486.773 533.645 485.684 532.344C482.957 529.094 483.203 526.518 486.239 526.518C487.633 526.518 488.525 528.362 488.22 530.613ZM539.436 529.51C538.756 530.766 537.641 530.766 536.959 529.51C536.279 528.258 536.835 527.232 538.198 527.232C539.56 527.232 540.118 528.258 539.436 529.51ZM585.013 529.51C584.333 530.766 583.218 530.766 582.536 529.51C581.856 528.258 582.412 527.232 583.775 527.232C585.137 527.232 585.695 528.258 585.013 529.51ZM713.075 549.115C713.412 551.601 713.883 553.634 714.124 553.634C714.365 553.634 714.561 551.601 714.561 549.115C714.561 546.629 714.088 544.596 713.512 544.596C712.935 544.596 712.738 546.629 713.075 549.115ZM739.146 547.682C739.86 548.988 740.715 548.826 741.044 547.325C741.373 545.825 740.788 544.758 739.744 544.953C738.59 545.17 738.355 546.241 739.146 547.682ZM334.09 604.477C334.091 606.339 325.063 607.487 314.028 607.026C300.139 606.443 296.556 605.399 302.386 603.637C314.484 599.976 334.088 600.496 334.09 604.477ZM344 606.136C344 607.085 341.883 607.627 339.294 607.334C335.246 606.873 335.004 606.366 337.56 603.718C340.337 600.839 344 602.218 344 606.136ZM292.726 606.339C292.045 607.596 290.931 607.596 290.249 606.339C289.568 605.088 290.125 604.062 291.487 604.062C292.85 604.062 293.408 605.088 292.726 606.339ZM203.055 615.975C203.742 618.036 199.676 619.839 193.902 620.033C188.188 620.227 183.693 619.061 183.913 617.439C184.513 613.01 201.63 611.704 203.055 615.975ZM655.918 619.992C656.633 621.299 657.488 621.136 657.817 619.635C658.146 618.135 657.561 617.068 656.517 617.263C655.362 617.48 655.127 618.551 655.918 619.992ZM583.506 624.155C583.177 625.655 582.322 625.818 581.608 624.512C580.817 623.07 581.052 621.999 582.206 621.782C583.251 621.588 583.835 622.654 583.506 624.155ZM239.168 633.835C244.996 634.631 254.805 634.635 260.966 633.84C267.127 633.044 262.358 632.394 250.369 632.389C238.38 632.385 233.34 633.035 239.168 633.835ZM327.967 635.968C328.495 638.377 329.755 639.552 330.767 638.572C332.129 637.256 331.88 636.118 329.806 634.192C327.998 632.507 327.347 633.139 327.967 635.968ZM635.111 633.551C635.826 634.857 636.681 634.694 637.01 633.194C637.339 631.693 636.754 630.626 635.71 630.821C634.555 631.038 634.321 632.109 635.111 633.551ZM335.838 638.178C337.07 639.259 338.854 639.218 339.801 638.088C340.748 636.958 339.74 636.072 337.56 636.122C335.38 636.172 334.605 637.098 335.838 638.178ZM349.709 638.178C350.942 639.259 352.725 639.218 353.672 638.088C354.619 636.958 353.611 636.072 351.431 636.122C349.251 636.172 348.477 637.098 349.709 638.178ZM380.43 638.26C382.21 639.263 384.886 639.245 386.375 638.215C387.864 637.18 386.406 636.357 383.137 636.384C379.867 636.407 378.649 637.252 380.43 638.26ZM394.793 638.228C396.299 639.263 398.528 639.236 399.747 638.165C400.965 637.094 399.733 636.244 397.008 636.276C394.283 636.312 393.287 637.189 394.793 638.228ZM524.574 638.097C525.527 639.236 527.089 639.236 528.042 638.097C528.995 636.963 528.215 636.032 526.308 636.032C524.401 636.032 523.621 636.963 524.574 638.097ZM540.922 637.975C541.604 639.231 542.719 639.231 543.399 637.975C544.081 636.723 543.523 635.697 542.161 635.697C540.799 635.697 540.242 636.723 540.922 637.975Z" fill="#FEBC2E"/>
<rect x="61" y="97" width="9" height="445" fill="black"/>
<rect x="137" y="425" width="570" height="117" fill="#FEBC2E"/>
</svg>
